<?xml version="1.0" encoding="utf-8"?>
<!-- Generator: Adobe Illustrator 23.0.2, SVG Export Plug-In . SVG Version: 6.00 Build 0)  -->
<svg version="1.1" id="Слой_3" xmlns="http://www.w3.org/2000/svg" xmlns:xlink="http://www.w3.org/1999/xlink" x="0px" y="0px"
     viewBox="0 0 345.5 60" style="enable-background:new 0 0 345.5 60;" xml:space="preserve">
<style type="text/css">
	.st0{fill:#FFFFFF;}
	.st1{fill:#009AE6;}
	.st2{fill:url(#SVGID_1_);}
	.st3{fill:url(#SVGID_2_);}
	.st4{fill:url(#SVGID_3_);}
	.st5{fill:#006699;}
	.st6{fill:#0080BF;}
	.st7{display:none;fill:url(#SVGID_4_);}
</style>
    <g>
	<g>
		<path class="st0" d="M96.5,15.3c0-0.3,0.1-0.5,0.2-0.7s0.4-0.2,0.6-0.2h22c0.6,0,0.9,0.3,0.9,1v4c0,0.3-0.1,0.5-0.2,0.7
			c-0.2,0.2-0.4,0.3-0.7,0.3H103v11h2.5c1.7,0,3.4,0,5,0c1.7,0,3.3,0,5.1,0c0.3,0,0.5,0.1,0.6,0.2c0.2,0.1,0.3,0.4,0.3,0.7v4
			c0,0.3-0.1,0.5-0.2,0.7s-0.4,0.3-0.6,0.3H103v10.6c0,0.3-0.1,0.5-0.2,0.6c-0.2,0.1-0.4,0.2-0.7,0.2h-4.7c-0.5,0-0.8-0.3-0.8-0.8
			L96.5,15.3L96.5,15.3z"/>
        <path class="st0" d="M131.5,41.6c0,0.7-0.4,1.1-1.1,1.1h-3.8c-0.7,0-1.1-0.4-1.1-1.1V21.2c0-0.3,0.1-0.6,0.3-0.8
			c0.2-0.2,0.5-0.3,0.8-0.3h3.8c0.3,0,0.6,0.1,0.8,0.3s0.4,0.5,0.4,0.8L131.5,41.6L131.5,41.6z"/>
        <path class="st0" d="M148.8,19.5c-0.8,0.1-1.5,0.3-2.2,0.6c-0.6,0.3-1.2,0.7-1.7,1.2s-0.8,1-1.1,1.6s-0.4,1.3-0.4,1.9
			c0,0.1,0,0.3,0,0.5c0,0.1,0,0.3,0.1,0.5c0.1,0.5,0.3,1,0.6,1.5s0.6,1.1,1,1.7s0.8,1.2,1.2,1.9c0.4,0.7,0.8,1.4,1.1,2.1
			c0.3,0.7,0.6,1.5,0.8,2.4s0.3,1.7,0.3,2.7c0,1.4-0.3,2.8-0.8,4s-1.3,2.3-2.2,3.2s-2.2,1.7-3.6,2.2c-1.4,0.6-3,0.9-4.7,1
			c-0.2,0-0.4-0.1-0.5-0.2c-0.1-0.1-0.2-0.3-0.2-0.6v-4.2c0-0.2,0.1-0.4,0.2-0.5s0.3-0.2,0.5-0.2c0.8-0.1,1.5-0.3,2.2-0.6
			c0.6-0.3,1.2-0.8,1.6-1.2s0.8-1,1-1.6s0.4-1.2,0.4-1.9c0-0.2,0-0.3,0-0.5s0-0.3-0.1-0.5c-0.1-0.5-0.3-1-0.6-1.6
			c-0.3-0.5-0.6-1.1-1-1.7s-0.8-1.2-1.2-1.9s-0.8-1.3-1.1-2.1s-0.6-1.5-0.8-2.3s-0.3-1.7-0.3-2.6c0-1.5,0.3-2.8,0.8-4.1
			s1.3-2.4,2.3-3.3s2.2-1.7,3.6-2.3c1.4-0.6,2.9-0.9,4.6-0.9c0.2,0,0.4,0.1,0.5,0.2s0.2,0.4,0.2,0.6v4.3c0,0.2-0.1,0.4-0.2,0.5
			C149.1,19.4,149,19.5,148.8,19.5z"/>
        <path class="st0" d="M169.6,21.1c0-0.3,0.1-0.5,0.3-0.7s0.4-0.3,0.7-0.3h4.2c0.3,0,0.5,0.1,0.7,0.3c0.2,0.2,0.3,0.4,0.3,0.7v20.8
			c0,0.6-0.3,0.9-0.9,0.9h-4.2c-0.6,0-1-0.3-1-0.9v-8.4h-8.9v8.4c0,0.6-0.3,0.9-1,0.9h-4.2c-0.6,0-1-0.3-1-0.9V21.1
			c0-0.3,0.1-0.5,0.3-0.7s0.4-0.3,0.7-0.3h4.2c0.3,0,0.5,0.1,0.7,0.3c0.2,0.2,0.3,0.4,0.3,0.7v7.1h8.9L169.6,21.1L169.6,21.1z"/>
        <path class="st0" d="M183.4,15.3c0-0.3,0.1-0.5,0.2-0.7s0.4-0.2,0.6-0.2h22c0.6,0,0.9,0.3,0.9,1v4c0,0.3-0.1,0.5-0.2,0.7
			s-0.4,0.3-0.7,0.3h-16.4v11h2.5c1.7,0,3.4,0,5,0c1.7,0,3.3,0,5.1,0c0.3,0,0.5,0.1,0.6,0.2c0.2,0.1,0.3,0.4,0.3,0.7v4
			c0,0.3-0.1,0.5-0.2,0.7c-0.1,0.2-0.4,0.3-0.6,0.3h-12.6v10.6c0,0.3-0.1,0.5-0.2,0.6s-0.4,0.2-0.7,0.2h-4.7c-0.5,0-0.8-0.3-0.8-0.8
			L183.4,15.3L183.4,15.3z"/>
        <path class="st0" d="M218.3,41.6c0,0.7-0.4,1.1-1.1,1.1h-3.8c-0.7,0-1.1-0.4-1.1-1.1V21.2c0-0.3,0.1-0.6,0.3-0.8
			c0.2-0.2,0.5-0.3,0.8-0.3h3.8c0.3,0,0.6,0.1,0.8,0.3s0.4,0.5,0.4,0.8L218.3,41.6L218.3,41.6z"/>
        <path class="st0" d="M235.6,19.5c-0.8,0.1-1.5,0.3-2.2,0.6c-0.6,0.3-1.2,0.7-1.7,1.2s-0.8,1-1.1,1.6s-0.4,1.3-0.4,1.9
			c0,0.1,0,0.3,0,0.5c0,0.1,0,0.3,0.1,0.5c0.1,0.5,0.3,1,0.6,1.5s0.6,1.1,1,1.7s0.8,1.2,1.2,1.9c0.4,0.7,0.8,1.4,1.1,2.1
			c0.3,0.7,0.6,1.5,0.8,2.4s0.3,1.7,0.3,2.7c0,1.4-0.3,2.8-0.8,4s-1.3,2.3-2.2,3.2s-2.2,1.7-3.6,2.2c-1.4,0.6-3,0.9-4.7,1
			c-0.2,0-0.4-0.1-0.5-0.2s-0.2-0.3-0.2-0.6v-4.2c0-0.2,0.1-0.4,0.2-0.5s0.3-0.2,0.5-0.2c0.8-0.1,1.5-0.3,2.2-0.6
			c0.6-0.3,1.2-0.8,1.6-1.2s0.8-1,1-1.6s0.4-1.2,0.4-1.9c0-0.2,0-0.3,0-0.5s0-0.3-0.1-0.5c-0.1-0.5-0.3-1-0.6-1.6
			c-0.3-0.5-0.6-1.1-1-1.7c-0.4-0.6-0.8-1.2-1.2-1.9s-0.8-1.3-1.1-2.1s-0.6-1.5-0.8-2.3s-0.3-1.7-0.3-2.6c0-1.5,0.3-2.8,0.8-4.1
			c0.5-1.3,1.3-2.4,2.3-3.3c1-1,2.2-1.7,3.6-2.3c1.4-0.6,2.9-0.9,4.6-0.9c0.2,0,0.4,0.1,0.5,0.2s0.2,0.4,0.2,0.6v4.3
			c0,0.2-0.1,0.4-0.2,0.5C236,19.4,235.8,19.5,235.6,19.5z"/>
        <path class="st0" d="M256.4,21.1c0-0.3,0.1-0.5,0.3-0.7c0.2-0.2,0.4-0.3,0.7-0.3h4.2c0.3,0,0.5,0.1,0.7,0.3
			c0.2,0.2,0.3,0.4,0.3,0.7v20.8c0,0.6-0.3,0.9-0.9,0.9h-4.2c-0.6,0-1-0.3-1-0.9v-8.4h-8.9v8.4c0,0.6-0.3,0.9-1,0.9h-4.2
			c-0.6,0-1-0.3-1-0.9V21.1c0-0.3,0.1-0.5,0.3-0.7s0.4-0.3,0.7-0.3h4.2c0.3,0,0.5,0.1,0.7,0.3c0.2,0.2,0.3,0.4,0.3,0.7v7.1h8.9
			L256.4,21.1L256.4,21.1z"/>
        <path class="st0" d="M269.1,31.4c0-0.3,0-0.6,0.2-0.8s0.3-0.5,0.5-0.7s0.4-0.4,0.7-0.5s0.5-0.2,0.8-0.2c0.6,0,1.1,0.2,1.5,0.6
			s0.6,0.9,0.6,1.5c0,0.3,0,0.6-0.2,0.8c-0.1,0.3-0.3,0.5-0.5,0.7s-0.4,0.3-0.7,0.5c-0.3,0.1-0.5,0.2-0.9,0.2c-0.3,0-0.6,0-0.8-0.2
			c-0.3-0.1-0.5-0.3-0.7-0.5s-0.3-0.4-0.5-0.7C269.1,31.9,269.1,31.7,269.1,31.4z"/>
        <path class="st0" d="M280.1,33.2c0-0.3,0.1-0.5,0.2-0.5c0.1-0.1,0.3-0.1,0.5-0.1h6.4c-1.2-1.9-2.4-3.9-3.6-5.8S281.2,23,280,21
			c-0.1-0.2-0.2-0.4-0.2-0.5s0.1-0.2,0.2-0.3s0.3-0.1,0.4-0.1h8.7c1,0,2,0.2,2.9,0.6s1.7,1,2.3,1.6s1.2,1.5,1.5,2.4
			c0.4,0.9,0.6,1.9,0.6,2.9s-0.2,2-0.5,2.9s-0.9,1.7-1.5,2.4s-1.4,1.2-2.3,1.6s-1.8,0.6-2.9,0.6h-6.3v6.7c0,0.3-0.1,0.5-0.2,0.6
			s-0.3,0.2-0.5,0.2H281c-0.2,0-0.4,0-0.5-0.2c-0.1-0.1-0.2-0.3-0.2-0.7L280.1,33.2L280.1,33.2z M283.9,22.7l6.2,9.8
			c0.5-0.1,1-0.3,1.5-0.6s0.9-0.7,1.2-1.1s0.6-0.9,0.8-1.4s0.3-1.1,0.3-1.6c0-0.7-0.1-1.3-0.4-1.9s-0.6-1.1-1-1.6s-0.9-0.8-1.5-1.1
			s-1.2-0.4-1.9-0.4h-4.8L283.9,22.7L283.9,22.7z"/>
        <path class="st0" d="M316.4,41.7c0.1,0.1,0.1,0.3,0.1,0.4c0,0.2-0.1,0.4-0.2,0.4c-0.1,0.1-0.4,0.1-0.7,0.1h-1c-0.1,0-0.2,0-0.3,0
			s-0.2-0.1-0.3-0.1s-0.2-0.2-0.3-0.3c-0.1-0.2-0.3-0.3-0.4-0.6c-0.6-1-1.2-2-1.9-3.2s-1.3-2.2-1.9-3.2h-5.7v6.7
			c0,0.3-0.1,0.5-0.2,0.6s-0.3,0.2-0.5,0.2H302c-0.2,0-0.4,0-0.5-0.2c-0.1-0.1-0.2-0.3-0.2-0.7v-8.6c0-0.3,0-0.4,0.1-0.5
			s0.2-0.2,0.4-0.2h6.3l-7-11.5c-0.1-0.1-0.1-0.2-0.1-0.3c0-0.1-0.1-0.2-0.1-0.2c0-0.1,0.1-0.2,0.2-0.3s0.3-0.1,0.4-0.1h8.6
			c1,0,2,0.2,2.9,0.6s1.7,1,2.3,1.6s1.2,1.5,1.5,2.4s0.6,1.9,0.6,2.9c0,0.8-0.1,1.5-0.4,2.3s-0.6,1.5-1.1,2.1
			c-0.5,0.6-1,1.2-1.6,1.7s-1.3,0.8-2.1,1L316.4,41.7z M308.8,22.7c-0.3,0-0.6,0-0.9,0s-0.6,0-0.9,0h-2l6,9.9
			c0.5-0.1,1.1-0.4,1.5-0.7c0.4-0.3,0.9-0.8,1.2-1.2c0.3-0.5,0.6-1,0.8-1.5s0.3-1.1,0.3-1.7s-0.1-1.2-0.4-1.8s-0.6-1.1-1-1.5
			s-0.9-0.8-1.5-1s-1.1-0.4-1.8-0.4L308.8,22.7L308.8,22.7z"/>
        <path class="st0" d="M322,31.5c0-1.6,0.3-3.1,0.9-4.6c0.6-1.4,1.5-2.7,2.5-3.8s2.3-1.9,3.7-2.5c1.4-0.6,3-0.9,4.6-0.9
			s3.2,0.3,4.6,0.9s2.7,1.5,3.8,2.5s1.9,2.3,2.5,3.8s0.9,3,0.9,4.6c0,1.6-0.3,3.2-0.9,4.6s-1.5,2.7-2.5,3.7
			c-1.1,1.1-2.3,1.9-3.8,2.5s-3,0.9-4.6,0.9s-3.1-0.3-4.6-0.9c-1.4-0.6-2.7-1.5-3.7-2.5s-1.9-2.3-2.5-3.7
			C322.3,34.6,322,33.1,322,31.5z M324.5,31.5c0,1.3,0.3,2.5,0.7,3.6s1.1,2.1,2,2.9c0.8,0.8,1.8,1.5,2.9,2s2.3,0.7,3.6,0.7
			c1.3,0,2.5-0.3,3.6-0.7s2.1-1.2,3-2c0.8-0.8,1.5-1.8,2-2.9s0.7-2.3,0.7-3.6s-0.3-2.5-0.7-3.6c-0.5-1.1-1.2-2.1-2-3
			c-0.8-0.8-1.8-1.5-3-2s-2.3-0.7-3.5-0.7c-1.3,0-2.5,0.3-3.6,0.7s-2.1,1.2-2.9,2s-1.5,1.8-2,3C324.8,29,324.5,30.2,324.5,31.5z
			 M333.8,29.4c0.6,0,1.1,0.2,1.5,0.6s0.6,0.9,0.6,1.5c0,0.6-0.2,1.1-0.6,1.5s-0.9,0.6-1.5,0.6s-1-0.2-1.5-0.6
			c-0.4-0.4-0.6-0.9-0.6-1.5s0.2-1,0.6-1.5C332.8,29.6,333.2,29.4,333.8,29.4z"/>
	</g>
</g>
    <g id="Слой_3_1_">
	<g>

			<rect x="49.4" y="19.4" transform="matrix(0.7071 -0.7071 0.7071 0.7071 -3.6396 51.2132)" class="st1" width="21.2" height="21.2"/>
        <linearGradient id="SVGID_1_" gradientUnits="userSpaceOnUse" x1="-7.5" y1="22.5" x2="7.5" y2="37.5">
			<stop  offset="0.5531" style="stop-color:#005782"/>
            <stop  offset="0.6907" style="stop-color:#00557F"/>
            <stop  offset="0.7929" style="stop-color:#004F76"/>
            <stop  offset="0.8838" style="stop-color:#004665"/>
            <stop  offset="0.9675" style="stop-color:#00384F"/>
            <stop  offset="1" style="stop-color:#003144"/>
		</linearGradient>
        <polygon class="st2" points="0,15 0,45 15,30 		"/>
        <linearGradient id="SVGID_2_" gradientUnits="userSpaceOnUse" x1="20.6035" y1="66.6779" x2="38.2082" y2="51.9058">
			<stop  offset="0.5531" style="stop-color:#005782"/>
            <stop  offset="0.6907" style="stop-color:#00557F"/>
            <stop  offset="0.7929" style="stop-color:#004F76"/>
            <stop  offset="0.8838" style="stop-color:#004665"/>
            <stop  offset="0.9675" style="stop-color:#00384F"/>
            <stop  offset="1" style="stop-color:#003144"/>
		</linearGradient>
        <polygon class="st3" points="15,60 45,60 30,45 		"/>
        <linearGradient id="SVGID_3_" gradientUnits="userSpaceOnUse" x1="20.6035" y1="-6.6779" x2="38.2082" y2="8.0942">
			<stop  offset="0.5531" style="stop-color:#005782"/>
            <stop  offset="0.6907" style="stop-color:#00557F"/>
            <stop  offset="0.7929" style="stop-color:#004F76"/>
            <stop  offset="0.8838" style="stop-color:#004665"/>
            <stop  offset="0.9675" style="stop-color:#00384F"/>
            <stop  offset="1" style="stop-color:#003144"/>
		</linearGradient>
        <polygon class="st4" points="45,0 15,0 30,15 		"/>
        <rect x="19.4" y="19.4" transform="matrix(0.7071 -0.7071 0.7071 0.7071 -12.4264 30)" class="st5" width="21.2" height="21.2"/>

        <rect x="34.4" y="4.4" transform="matrix(0.7071 -0.7071 0.7071 0.7071 2.5736 36.2132)" class="st6" width="21.2" height="21.2"/>
        <rect x="34.4" y="34.4" transform="matrix(0.7071 -0.7071 0.7071 0.7071 -18.6396 45)" class="st6" width="21.2" height="21.2"/>

        <linearGradient id="SVGID_4_" gradientUnits="userSpaceOnUse" x1="-917.5562" y1="-2658.7161" x2="-906.6794" y2="-2667.4307" gradientTransform="matrix(1 0 0 -1 944.58 -2659.6099)">
			<stop  offset="0" style="stop-color:#FFFFFF;stop-opacity:0"/>
            <stop  offset="0.1779" style="stop-color:#FCFCFC;stop-opacity:0.1779"/>
            <stop  offset="0.3102" style="stop-color:#F3F3F3;stop-opacity:0.3102"/>
            <stop  offset="0.4276" style="stop-color:#E2E2E2;stop-opacity:0.4276"/>
            <stop  offset="0.5367" style="stop-color:#CCCCCC;stop-opacity:0.5367"/>
            <stop  offset="0.6398" style="stop-color:#AEAEAE;stop-opacity:0.6398"/>
            <stop  offset="0.7384" style="stop-color:#8A8A8A;stop-opacity:0.7384"/>
            <stop  offset="0.8336" style="stop-color:#5F5F5F;stop-opacity:0.8336"/>
            <stop  offset="0.9237" style="stop-color:#2F2F2F;stop-opacity:0.9237"/>
            <stop  offset="1" style="stop-color:#000000"/>
		</linearGradient>
        <polygon class="st7" points="15,0 45,0 30,15 		"/>
        <circle class="st0" cx="60" cy="30" r="3.6"/>
	</g>
</g>
</svg>
