<?xml version="1.0" encoding="utf-8"?>
<!-- Generator: Adobe Illustrator 23.0.2, SVG Export Plug-In . SVG Version: 6.00 Build 0)  -->
<svg version="1.1" id="Слой_1" xmlns="http://www.w3.org/2000/svg" xmlns:xlink="http://www.w3.org/1999/xlink" x="0px" y="0px"
	 viewBox="0 0 294.8 172.37" style="enable-background:new 0 0 294.8 172.37;" xml:space="preserve">
<style type="text/css">
	.st0{fill:#1D1D1B;}
	.st1{fill:#009AE6;}
	.st2{fill:url(#SVGID_1_);}
	.st3{fill:url(#SVGID_2_);}
	.st4{fill:url(#SVGID_3_);}
	.st5{fill:#006699;}
	.st6{fill:#0080BF;}
	.st7{display:none;fill:url(#SVGID_4_);}
	.st8{fill:#FFFFFF;}
</style>
<g id="Слой_3">
	<g>
		<path class="st0" d="M19.78,140.77c2.01,0.25,3.88,0.79,5.61,1.64s3.24,1.93,4.52,3.23s2.29,2.79,3.01,4.45
			c0.73,1.66,1.09,3.42,1.09,5.28c0,1.87-0.36,3.63-1.09,5.29c-0.73,1.66-1.73,3.13-3,4.42s-2.78,2.36-4.51,3.21
			s-3.61,1.39-5.63,1.62v1.45c0,0.34-0.09,0.59-0.28,0.76c-0.18,0.17-0.44,0.25-0.76,0.25h-3.63c-0.69,0-1.04-0.34-1.04-1.01v-1.49
			c-1.99-0.25-3.84-0.79-5.55-1.63c-1.71-0.84-3.2-1.91-4.46-3.2c-1.27-1.29-2.26-2.76-2.98-4.42C0.36,158.96,0,157.2,0,155.32
			c0-1.84,0.36-3.59,1.08-5.24c0.72-1.66,1.71-3.13,2.98-4.42c1.26-1.29,2.75-2.36,4.46-3.22s3.56-1.42,5.55-1.68v-1.54
			c0-0.31,0.09-0.55,0.27-0.74c0.18-0.18,0.43-0.28,0.77-0.28h3.63c0.31,0,0.55,0.09,0.75,0.28s0.29,0.43,0.29,0.74L19.78,140.77z
			 M6.07,155.23c0,1.12,0.2,2.16,0.59,3.12c0.39,0.96,0.94,1.82,1.64,2.58c0.71,0.76,1.55,1.41,2.53,1.94
			c0.98,0.54,2.06,0.93,3.24,1.17v-17.57c-1.18,0.23-2.26,0.61-3.23,1.13s-1.82,1.16-2.53,1.92s-1.26,1.62-1.66,2.59
			C6.27,153.07,6.07,154.11,6.07,155.23z M27.53,155.23c0-1.1-0.19-2.13-0.57-3.08s-0.92-1.8-1.61-2.55s-1.51-1.39-2.47-1.91
			s-2.01-0.91-3.16-1.17v17.43c1.15-0.26,2.2-0.66,3.16-1.18c0.96-0.53,1.78-1.17,2.47-1.92c0.69-0.75,1.23-1.6,1.61-2.54
			C27.34,157.36,27.53,156.34,27.53,155.23z"/>
		<path class="st0" d="M41.25,166.64c-0.66,0-0.99-0.3-0.99-0.9V145c0-0.29,0.1-0.52,0.3-0.68c0.2-0.16,0.43-0.24,0.69-0.24h4.09
			c0.49,0,0.8,0.26,0.92,0.78v12.72c1.58-2.19,3.15-4.37,4.7-6.52s3.12-4.33,4.7-6.52c0.21-0.31,0.51-0.46,0.88-0.46h5.17
			c0.26,0,0.48,0.09,0.66,0.28c0.18,0.18,0.26,0.41,0.26,0.69v20.7c0,0.6-0.31,0.9-0.92,0.9h-4.19c-0.63,0-0.94-0.3-0.94-0.9v-13.18
			l-9.18,12.72c-0.23,0.31-0.46,0.61-0.68,0.91s-0.47,0.45-0.75,0.45L41.25,166.64L41.25,166.64z"/>
		<path class="st0" d="M94.18,145c0-0.28,0.08-0.49,0.24-0.66c0.16-0.16,0.39-0.24,0.7-0.24h4.23c0.29,0,0.52,0.08,0.69,0.23
			c0.17,0.15,0.25,0.38,0.25,0.67v20.81c-0.02,0.26-0.12,0.46-0.3,0.61s-0.4,0.22-0.64,0.22H70.63c-0.61,0-0.92-0.31-0.92-0.92
			v-20.75c0-0.58,0.31-0.87,0.92-0.87h4.23c0.64,0,0.96,0.29,0.96,0.87v16.08h6.05c0.01,0,0.03,0.01,0.05,0.02v-16.1
			c0-0.58,0.31-0.87,0.92-0.87h4.23c0.63,0,0.94,0.29,0.94,0.87v16.08h6.16L94.18,145L94.18,145z"/>
		<path class="st0" d="M124.77,140.77c2.01,0.25,3.88,0.79,5.61,1.64s3.24,1.93,4.52,3.23s2.28,2.79,3.01,4.45s1.09,3.42,1.09,5.28
			c0,1.87-0.37,3.63-1.09,5.29c-0.73,1.66-1.73,3.13-3,4.42s-2.78,2.36-4.51,3.21s-3.61,1.39-5.64,1.62v1.45
			c0,0.34-0.09,0.59-0.28,0.76c-0.18,0.17-0.44,0.25-0.76,0.25h-3.63c-0.69,0-1.04-0.34-1.04-1.01v-1.49
			c-1.99-0.25-3.84-0.79-5.55-1.63c-1.71-0.84-3.2-1.91-4.46-3.2c-1.27-1.29-2.26-2.76-2.98-4.42s-1.08-3.42-1.08-5.29
			c0-1.84,0.36-3.59,1.08-5.24c0.72-1.66,1.71-3.13,2.98-4.42c1.26-1.29,2.75-2.36,4.46-3.22s3.56-1.42,5.55-1.68v-1.54
			c0-0.31,0.09-0.55,0.26-0.74s0.43-0.28,0.77-0.28h3.63c0.31,0,0.55,0.09,0.75,0.28c0.19,0.18,0.29,0.43,0.29,0.74v1.54H124.77z
			 M111.07,155.23c0,1.12,0.2,2.16,0.59,3.12c0.39,0.96,0.94,1.82,1.64,2.58c0.71,0.76,1.55,1.41,2.53,1.94
			c0.98,0.54,2.06,0.93,3.24,1.17v-17.57c-1.18,0.23-2.26,0.61-3.23,1.13s-1.82,1.16-2.53,1.92s-1.26,1.62-1.66,2.59
			C111.26,153.07,111.07,154.11,111.07,155.23z M132.52,155.23c0-1.1-0.19-2.13-0.57-3.08s-0.92-1.8-1.61-2.55s-1.51-1.39-2.47-1.91
			c-0.96-0.52-2.01-0.91-3.16-1.17v17.43c1.15-0.26,2.21-0.66,3.16-1.18c0.95-0.52,1.78-1.17,2.47-1.92s1.23-1.6,1.61-2.54
			C132.33,157.36,132.52,156.34,132.52,155.23z"/>
		<path class="st0" d="M146.24,166.64c-0.66,0-0.99-0.3-0.99-0.9V145c0-0.29,0.1-0.52,0.3-0.68c0.2-0.16,0.43-0.24,0.69-0.24h4.09
			c0.49,0,0.8,0.26,0.92,0.78v12.72c1.58-2.19,3.15-4.37,4.7-6.52c1.56-2.15,3.12-4.33,4.7-6.52c0.21-0.31,0.51-0.46,0.87-0.46h5.17
			c0.26,0,0.48,0.09,0.66,0.28s0.26,0.41,0.26,0.69v20.7c0,0.6-0.31,0.9-0.92,0.9h-4.19c-0.63,0-0.94-0.3-0.94-0.9v-13.18
			l-9.18,12.72c-0.23,0.31-0.46,0.61-0.68,0.91c-0.22,0.3-0.47,0.45-0.75,0.45L146.24,166.64L146.24,166.64z"/>
		<path class="st0" d="M199.17,145c0-0.28,0.08-0.49,0.24-0.66c0.16-0.16,0.39-0.24,0.7-0.24h4.23c0.29,0,0.52,0.08,0.69,0.23
			s0.25,0.38,0.25,0.67v20.81c-0.02,0.26-0.12,0.46-0.3,0.61c-0.18,0.15-0.4,0.22-0.64,0.22h-28.73c-0.61,0-0.92-0.31-0.92-0.92
			v-20.75c0-0.58,0.31-0.87,0.92-0.87h4.23c0.64,0,0.97,0.29,0.97,0.87v16.08h6.05c0.02,0,0.03,0.01,0.05,0.02v-16.1
			c0-0.58,0.31-0.87,0.92-0.87h4.23c0.63,0,0.94,0.29,0.94,0.87v16.08h6.16L199.17,145L199.17,145z"/>
		<path class="st0" d="M211.55,155.28c0-0.29,0.05-0.57,0.16-0.83s0.26-0.49,0.45-0.69s0.42-0.35,0.68-0.46s0.54-0.16,0.83-0.16
			c0.61,0,1.12,0.21,1.53,0.62s0.61,0.92,0.61,1.52c0,0.29-0.05,0.57-0.16,0.83s-0.26,0.49-0.45,0.68
			c-0.19,0.19-0.42,0.34-0.68,0.45s-0.54,0.16-0.85,0.16c-0.29,0-0.57-0.05-0.83-0.16s-0.49-0.26-0.68-0.45
			c-0.19-0.19-0.34-0.42-0.45-0.68C211.6,155.85,211.55,155.57,211.55,155.28z"/>
		<path class="st0" d="M241.41,144.1c0.21,0,0.39,0.06,0.54,0.18c0.14,0.12,0.22,0.3,0.22,0.53v21.09c0,0.48-0.25,0.71-0.74,0.71
			h-1.2c-0.49,0-0.74-0.24-0.74-0.71v-19.18h-13.57v19.25c0,0.48-0.25,0.71-0.74,0.71h-1.2c-0.48,0-0.71-0.24-0.71-0.71v-21.16
			c0-0.48,0.24-0.71,0.71-0.71L241.41,144.1L241.41,144.1z"/>
		<path class="st0" d="M249.8,157.16c0-0.29,0.06-0.47,0.18-0.53s0.31-0.09,0.55-0.09h6.37c-1.21-1.93-2.43-3.85-3.65-5.76
			c-1.22-1.91-2.43-3.83-3.64-5.76c-0.14-0.2-0.21-0.38-0.23-0.53c0-0.14,0.08-0.24,0.24-0.31c0.16-0.07,0.3-0.1,0.42-0.1h8.63
			c1.04,0,2.01,0.2,2.91,0.61s1.68,0.95,2.33,1.64s1.18,1.49,1.55,2.4c0.38,0.91,0.56,1.88,0.56,2.91c0,1-0.18,1.95-0.55,2.85
			c-0.37,0.9-0.88,1.7-1.53,2.39s-1.42,1.24-2.3,1.64s-1.84,0.61-2.86,0.61h-6.33v6.74c0,0.26-0.07,0.45-0.21,0.57
			c-0.14,0.12-0.31,0.18-0.51,0.18h-1.17c-0.21,0-0.4-0.05-0.55-0.15c-0.15-0.1-0.23-0.33-0.23-0.68v-8.63H249.8z M253.55,146.58
			l6.21,9.82c0.52-0.12,1.02-0.33,1.48-0.63c0.47-0.3,0.87-0.66,1.21-1.08s0.61-0.89,0.8-1.41s0.3-1.06,0.3-1.61
			c0-0.67-0.13-1.32-0.38-1.93c-0.25-0.61-0.59-1.15-1.02-1.62s-0.94-0.84-1.53-1.12s-1.22-0.41-1.87-0.41h-4.83L253.55,146.58
			L253.55,146.58z"/>
		<path class="st0" d="M271.26,155.42c0-1.63,0.31-3.15,0.92-4.59c0.61-1.43,1.45-2.68,2.51-3.75s2.3-1.91,3.73-2.53
			c1.43-0.62,2.95-0.93,4.58-0.93c1.63,0,3.15,0.31,4.59,0.93c1.43,0.62,2.68,1.46,3.75,2.53c1.06,1.07,1.91,2.32,2.53,3.75
			s0.93,2.96,0.93,4.59c0,1.63-0.31,3.15-0.93,4.58c-0.62,1.43-1.46,2.67-2.53,3.74s-2.32,1.91-3.75,2.52s-2.96,0.92-4.59,0.92
			s-3.15-0.31-4.58-0.92s-2.67-1.45-3.73-2.52s-1.89-2.31-2.51-3.74C271.57,158.57,271.26,157.04,271.26,155.42z M273.79,155.42
			c0,1.27,0.25,2.47,0.74,3.59s1.15,2.1,1.99,2.93c0.84,0.84,1.81,1.5,2.93,1.99s2.32,0.74,3.59,0.74c1.26,0,2.45-0.25,3.58-0.74
			s2.11-1.15,2.96-1.99c0.84-0.84,1.51-1.81,2-2.93s0.74-2.31,0.74-3.59c0-1.27-0.25-2.47-0.74-3.6s-1.16-2.11-2-2.96
			c-0.84-0.84-1.83-1.51-2.96-2s-2.32-0.74-3.58-0.74c-1.27,0-2.47,0.25-3.59,0.74s-2.1,1.16-2.93,2s-1.5,1.83-1.99,2.96
			C274.03,152.94,273.79,154.14,273.79,155.42z M283.08,153.32c0.58,0,1.07,0.2,1.47,0.6c0.4,0.4,0.6,0.88,0.6,1.45
			c0,0.58-0.2,1.07-0.6,1.46s-0.89,0.59-1.47,0.59c-0.57,0-1.05-0.2-1.45-0.6s-0.6-0.88-0.6-1.45c0-0.57,0.2-1.05,0.6-1.45
			C282.03,153.52,282.51,153.32,283.08,153.32z"/>
	</g>
	<g>
		
			<rect x="168.41" y="34.29" transform="matrix(0.7071 -0.7071 0.7071 0.7071 17.3163 147.8775)" class="st1" width="37.5" height="37.5"/>
		<linearGradient id="SVGID_1_" gradientUnits="userSpaceOnUse" x1="67.831" y1="39.777" x2="94.3491" y2="66.2951">
			<stop  offset="0.5531" style="stop-color:#005782"/>
			<stop  offset="0.6907" style="stop-color:#00557F"/>
			<stop  offset="0.7929" style="stop-color:#004F76"/>
			<stop  offset="0.8838" style="stop-color:#004665"/>
			<stop  offset="0.9675" style="stop-color:#00384F"/>
			<stop  offset="1" style="stop-color:#003144"/>
		</linearGradient>
		<polygon class="st2" points="81.09,26.52 81.09,79.55 107.61,53.04 		"/>
		<linearGradient id="SVGID_2_" gradientUnits="userSpaceOnUse" x1="117.5142" y1="117.8776" x2="148.637" y2="91.7625">
			<stop  offset="0.5531" style="stop-color:#005782"/>
			<stop  offset="0.6907" style="stop-color:#00557F"/>
			<stop  offset="0.7929" style="stop-color:#004F76"/>
			<stop  offset="0.8838" style="stop-color:#004665"/>
			<stop  offset="0.9675" style="stop-color:#00384F"/>
			<stop  offset="1" style="stop-color:#003144"/>
		</linearGradient>
		<polygon class="st3" points="107.61,106.07 160.64,106.07 134.13,79.55 		"/>
		<linearGradient id="SVGID_3_" gradientUnits="userSpaceOnUse" x1="117.5142" y1="-11.8056" x2="148.6369" y2="14.3095">
			<stop  offset="0.5531" style="stop-color:#005782"/>
			<stop  offset="0.6907" style="stop-color:#00557F"/>
			<stop  offset="0.7929" style="stop-color:#004F76"/>
			<stop  offset="0.8838" style="stop-color:#004665"/>
			<stop  offset="0.9675" style="stop-color:#00384F"/>
			<stop  offset="1" style="stop-color:#003144"/>
		</linearGradient>
		<polygon class="st4" points="160.64,0 107.61,0 134.13,26.52 		"/>
		
			<rect x="115.38" y="34.29" transform="matrix(0.7071 -0.7071 0.7071 0.7071 1.7825 110.3754)" class="st5" width="37.5" height="37.5"/>
		
			<rect x="141.89" y="7.77" transform="matrix(0.7071 -0.7071 0.7071 0.7071 28.3005 121.3594)" class="st6" width="37.5" height="37.5"/>
		
			<rect x="141.89" y="60.8" transform="matrix(0.7071 -0.7071 0.7071 0.7071 -9.2016 136.8933)" class="st6" width="37.5" height="37.5"/>
		
			<linearGradient id="SVGID_4_" gradientUnits="userSpaceOnUse" x1="-815.7156" y1="-2545.4414" x2="-796.4868" y2="-2560.8477" gradientTransform="matrix(1 0 0 -1 944.58 -2547.0212)">
			<stop  offset="0" style="stop-color:#FFFFFF;stop-opacity:0"/>
			<stop  offset="0.1779" style="stop-color:#FCFCFC;stop-opacity:0.1779"/>
			<stop  offset="0.3102" style="stop-color:#F3F3F3;stop-opacity:0.3102"/>
			<stop  offset="0.4276" style="stop-color:#E2E2E2;stop-opacity:0.4276"/>
			<stop  offset="0.5367" style="stop-color:#CCCCCC;stop-opacity:0.5367"/>
			<stop  offset="0.6398" style="stop-color:#AEAEAE;stop-opacity:0.6398"/>
			<stop  offset="0.7384" style="stop-color:#8A8A8A;stop-opacity:0.7384"/>
			<stop  offset="0.8336" style="stop-color:#5F5F5F;stop-opacity:0.8336"/>
			<stop  offset="0.9237" style="stop-color:#2F2F2F;stop-opacity:0.9237"/>
			<stop  offset="1" style="stop-color:#000000"/>
		</linearGradient>
		<polygon class="st7" points="107.61,0 160.64,0 134.13,26.52 		"/>
		<circle class="st8" cx="187.16" cy="53.04" r="6.32"/>
	</g>
</g>
</svg>
