<?xml version="1.0" encoding="utf-8"?>
<!-- Generator: Adobe Illustrator 23.0.2, SVG Export Plug-In . SVG Version: 6.00 Build 0)  -->
<svg version="1.1" xmlns="http://www.w3.org/2000/svg" xmlns:xlink="http://www.w3.org/1999/xlink" x="0px" y="0px"
	 viewBox="0 0 389.19 59.71" style="enable-background:new 0 0 389.19 59.71;" xml:space="preserve">
<style type="text/css">
	.st0{fill:#009AE6;}
	.st1{fill:url(#SVGID_1_);}
	.st2{fill:url(#SVGID_2_);}
	.st3{fill:url(#SVGID_3_);}
	.st4{fill:#006699;}
	.st5{fill:#0080BF;}
	.st6{display:none;fill:url(#SVGID_4_);}
	.st7{fill:#FFFFFF;}
	.st8{fill:#FFFFFF;}
	.st9{display:none;fill:none;stroke:#005783;stroke-miterlimit:10;}
</style>
<g id="Слой_1">
</g>
<g id="Слой_2">
</g>
<g id="Слой_5">
</g>
<g id="Слой_3">
	<g>
		
			<rect x="49.15" y="19.3" transform="matrix(0.7071 -0.7071 0.7071 0.7071 -3.6219 50.9631)" class="st0" width="21.11" height="21.11"/>
		<linearGradient id="SVGID_1_" gradientUnits="userSpaceOnUse" x1="-7.4634" y1="22.3901" x2="7.4634" y2="37.3169">
			<stop  offset="0.5531" style="stop-color:#005782"/>
			<stop  offset="0.6907" style="stop-color:#00557F"/>
			<stop  offset="0.7929" style="stop-color:#004F76"/>
			<stop  offset="0.8838" style="stop-color:#004665"/>
			<stop  offset="0.9675" style="stop-color:#00384F"/>
			<stop  offset="1" style="stop-color:#003144"/>
		</linearGradient>
		<polygon class="st1" points="0,14.93 0,44.78 14.93,29.85 		"/>
		<linearGradient id="SVGID_2_" gradientUnits="userSpaceOnUse" x1="20.5029" y1="66.3523" x2="38.0216" y2="51.6523">
			<stop  offset="0.5531" style="stop-color:#005782"/>
			<stop  offset="0.6907" style="stop-color:#00557F"/>
			<stop  offset="0.7929" style="stop-color:#004F76"/>
			<stop  offset="0.8838" style="stop-color:#004665"/>
			<stop  offset="0.9675" style="stop-color:#00384F"/>
			<stop  offset="1" style="stop-color:#003144"/>
		</linearGradient>
		<polygon class="st2" points="14.93,59.71 44.78,59.71 29.85,44.78 		"/>
		<linearGradient id="SVGID_3_" gradientUnits="userSpaceOnUse" x1="20.5028" y1="-6.6453" x2="38.0216" y2="8.0547">
			<stop  offset="0.5531" style="stop-color:#005782"/>
			<stop  offset="0.6907" style="stop-color:#00557F"/>
			<stop  offset="0.7929" style="stop-color:#004F76"/>
			<stop  offset="0.8838" style="stop-color:#004665"/>
			<stop  offset="0.9675" style="stop-color:#00384F"/>
			<stop  offset="1" style="stop-color:#003144"/>
		</linearGradient>
		<polygon class="st3" points="44.78,0 14.93,0 29.85,14.93 		"/>
		
			<rect x="19.3" y="19.3" transform="matrix(0.7071 -0.7071 0.7071 0.7071 -12.3657 29.8535)" class="st4" width="21.11" height="21.11"/>
		
			<rect x="34.23" y="4.37" transform="matrix(0.7071 -0.7071 0.7071 0.7071 2.561 36.0364)" class="st5" width="21.11" height="21.11"/>
		
			<rect x="34.23" y="34.23" transform="matrix(0.7071 -0.7071 0.7071 0.7071 -18.5486 44.7802)" class="st5" width="21.11" height="21.11"/>
		
			<linearGradient id="SVGID_4_" gradientUnits="userSpaceOnUse" x1="-917.6882" y1="-985.8748" x2="-906.8644" y2="-994.5469" gradientTransform="matrix(1 0 0 -1 944.58 -986.7641)">
			<stop  offset="0" style="stop-color:#FFFFFF;stop-opacity:0"/>
			<stop  offset="0.1779" style="stop-color:#FCFCFC;stop-opacity:0.1779"/>
			<stop  offset="0.3102" style="stop-color:#F3F3F3;stop-opacity:0.3102"/>
			<stop  offset="0.4276" style="stop-color:#E2E2E2;stop-opacity:0.4276"/>
			<stop  offset="0.5367" style="stop-color:#CCCCCC;stop-opacity:0.5367"/>
			<stop  offset="0.6398" style="stop-color:#AEAEAE;stop-opacity:0.6398"/>
			<stop  offset="0.7384" style="stop-color:#8A8A8A;stop-opacity:0.7384"/>
			<stop  offset="0.8336" style="stop-color:#5F5F5F;stop-opacity:0.8336"/>
			<stop  offset="0.9237" style="stop-color:#2F2F2F;stop-opacity:0.9237"/>
			<stop  offset="1" style="stop-color:#000000"/>
		</linearGradient>
		<polygon class="st6" points="14.93,0 44.78,0 29.85,14.93 		"/>
		<circle class="st7" cx="59.71" cy="29.85" r="3.56"/>
	</g>
	<g>
		<path class="st8" d="M114.18,15.21c2.01,0.25,3.88,0.79,5.61,1.64s3.24,1.93,4.52,3.23c1.28,1.3,2.29,2.79,3.01,4.45
			c0.73,1.66,1.09,3.42,1.09,5.28c0,1.87-0.36,3.63-1.09,5.29c-0.73,1.66-1.73,3.13-3,4.42c-1.27,1.29-2.78,2.36-4.51,3.21
			s-3.61,1.39-5.63,1.62v1.45c0,0.34-0.09,0.59-0.28,0.76c-0.18,0.17-0.44,0.25-0.76,0.25h-3.63c-0.69,0-1.04-0.34-1.04-1.01v-1.49
			c-1.99-0.25-3.84-0.79-5.55-1.63c-1.71-0.84-3.2-1.91-4.46-3.2c-1.27-1.29-2.26-2.76-2.98-4.42c-0.72-1.66-1.08-3.42-1.08-5.29
			c0-1.84,0.36-3.59,1.08-5.24c0.72-1.66,1.71-3.13,2.98-4.42c1.26-1.29,2.75-2.36,4.46-3.22s3.56-1.42,5.55-1.68v-1.54
			c0-0.31,0.09-0.55,0.27-0.74c0.18-0.18,0.43-0.28,0.77-0.28h3.63c0.31,0,0.55,0.09,0.75,0.28s0.29,0.43,0.29,0.74V15.21z
			 M100.47,29.68c0,1.12,0.2,2.16,0.59,3.12c0.39,0.96,0.94,1.82,1.64,2.58c0.71,0.76,1.55,1.41,2.53,1.94
			c0.98,0.54,2.06,0.93,3.24,1.17V20.92c-1.18,0.23-2.26,0.61-3.23,1.13c-0.97,0.52-1.82,1.16-2.53,1.92
			c-0.71,0.76-1.26,1.62-1.66,2.59C100.67,27.52,100.47,28.56,100.47,29.68z M121.93,29.68c0-1.1-0.19-2.13-0.57-3.08
			c-0.38-0.95-0.92-1.8-1.61-2.55c-0.69-0.75-1.51-1.39-2.47-1.91c-0.96-0.52-2.01-0.91-3.16-1.17V38.4
			c1.15-0.26,2.2-0.66,3.16-1.18c0.96-0.53,1.78-1.17,2.47-1.92c0.69-0.75,1.23-1.6,1.61-2.54
			C121.74,31.81,121.93,30.78,121.93,29.68z"/>
		<path class="st8" d="M135.65,41.09c-0.66,0-0.99-0.3-0.99-0.9V19.45c0-0.29,0.1-0.52,0.3-0.68c0.2-0.16,0.43-0.24,0.69-0.24h4.09
			c0.49,0,0.8,0.26,0.92,0.78v12.72c1.58-2.19,3.15-4.37,4.7-6.52s3.12-4.33,4.7-6.52c0.21-0.31,0.51-0.46,0.88-0.46h5.17
			c0.26,0,0.48,0.09,0.66,0.28c0.18,0.18,0.26,0.41,0.26,0.69v20.7c0,0.6-0.31,0.9-0.92,0.9h-4.19c-0.63,0-0.94-0.3-0.94-0.9V27.01
			l-9.18,12.72c-0.23,0.31-0.46,0.61-0.68,0.91c-0.22,0.3-0.47,0.45-0.75,0.45H135.65z"/>
		<path class="st8" d="M188.58,19.45c0-0.28,0.08-0.49,0.24-0.66c0.16-0.16,0.39-0.24,0.7-0.24h4.23c0.29,0,0.52,0.08,0.69,0.23
			c0.17,0.15,0.25,0.38,0.25,0.67v20.81c-0.02,0.26-0.12,0.46-0.3,0.61c-0.18,0.15-0.4,0.22-0.64,0.22h-28.73
			c-0.61,0-0.92-0.31-0.92-0.92V19.42c0-0.58,0.31-0.87,0.92-0.87h4.23c0.64,0,0.96,0.29,0.96,0.87V35.5h6.05
			c0.01,0,0.03,0.01,0.05,0.02v-16.1c0-0.58,0.31-0.87,0.92-0.87h4.23c0.63,0,0.94,0.29,0.94,0.87V35.5h6.16V19.45z"/>
		<path class="st8" d="M219.17,15.21c2.01,0.25,3.88,0.79,5.61,1.64s3.24,1.93,4.52,3.23c1.28,1.3,2.28,2.79,3.01,4.45
			c0.73,1.66,1.09,3.42,1.09,5.28c0,1.87-0.37,3.63-1.09,5.29c-0.73,1.66-1.73,3.13-3,4.42c-1.27,1.29-2.78,2.36-4.51,3.21
			c-1.73,0.85-3.61,1.39-5.64,1.62v1.45c0,0.34-0.09,0.59-0.28,0.76c-0.18,0.17-0.44,0.25-0.76,0.25h-3.63
			c-0.69,0-1.04-0.34-1.04-1.01v-1.49c-1.99-0.25-3.84-0.79-5.55-1.63c-1.71-0.84-3.2-1.91-4.46-3.2c-1.27-1.29-2.26-2.76-2.98-4.42
			c-0.72-1.66-1.08-3.42-1.08-5.29c0-1.84,0.36-3.59,1.08-5.24c0.72-1.66,1.71-3.13,2.98-4.42c1.26-1.29,2.75-2.36,4.46-3.22
			c1.71-0.86,3.56-1.42,5.55-1.68v-1.54c0-0.31,0.09-0.55,0.26-0.74s0.43-0.28,0.77-0.28h3.63c0.31,0,0.55,0.09,0.75,0.28
			c0.19,0.18,0.29,0.43,0.29,0.74V15.21z M205.46,29.68c0,1.12,0.2,2.16,0.59,3.12c0.39,0.96,0.94,1.82,1.64,2.58
			c0.71,0.76,1.55,1.41,2.53,1.94c0.98,0.54,2.06,0.93,3.24,1.17V20.92c-1.18,0.23-2.26,0.61-3.23,1.13
			c-0.97,0.52-1.82,1.16-2.53,1.92c-0.71,0.76-1.26,1.62-1.66,2.59C205.66,27.52,205.46,28.56,205.46,29.68z M226.92,29.68
			c0-1.1-0.19-2.13-0.57-3.08c-0.38-0.95-0.92-1.8-1.61-2.55c-0.69-0.75-1.51-1.39-2.47-1.91c-0.96-0.52-2.01-0.91-3.16-1.17V38.4
			c1.15-0.26,2.21-0.66,3.16-1.18s1.78-1.17,2.47-1.92c0.69-0.75,1.23-1.6,1.61-2.54C226.73,31.81,226.92,30.78,226.92,29.68z"/>
		<path class="st8" d="M240.64,41.09c-0.66,0-0.99-0.3-0.99-0.9V19.45c0-0.29,0.1-0.52,0.3-0.68c0.2-0.16,0.43-0.24,0.69-0.24h4.09
			c0.49,0,0.8,0.26,0.92,0.78v12.72c1.58-2.19,3.15-4.37,4.7-6.52c1.56-2.15,3.12-4.33,4.7-6.52c0.21-0.31,0.51-0.46,0.87-0.46h5.17
			c0.26,0,0.48,0.09,0.66,0.28s0.26,0.41,0.26,0.69v20.7c0,0.6-0.31,0.9-0.92,0.9h-4.19c-0.63,0-0.94-0.3-0.94-0.9V27.01
			l-9.18,12.72c-0.23,0.31-0.46,0.61-0.68,0.91c-0.22,0.3-0.47,0.45-0.75,0.45H240.64z"/>
		<path class="st8" d="M293.57,19.45c0-0.28,0.08-0.49,0.24-0.66c0.16-0.16,0.39-0.24,0.7-0.24h4.23c0.29,0,0.52,0.08,0.69,0.23
			c0.17,0.15,0.25,0.38,0.25,0.67v20.81c-0.02,0.26-0.12,0.46-0.3,0.61c-0.18,0.15-0.4,0.22-0.64,0.22h-28.73
			c-0.61,0-0.92-0.31-0.92-0.92V19.42c0-0.58,0.31-0.87,0.92-0.87h4.23c0.64,0,0.97,0.29,0.97,0.87V35.5h6.05
			c0.02,0,0.03,0.01,0.05,0.02v-16.1c0-0.58,0.31-0.87,0.92-0.87h4.23c0.63,0,0.94,0.29,0.94,0.87V35.5h6.16V19.45z"/>
		<path class="st8" d="M305.94,29.73c0-0.29,0.05-0.57,0.16-0.83s0.26-0.49,0.45-0.69s0.42-0.35,0.68-0.46s0.54-0.16,0.83-0.16
			c0.61,0,1.12,0.21,1.53,0.62s0.61,0.92,0.61,1.52c0,0.29-0.05,0.57-0.16,0.83c-0.11,0.26-0.26,0.49-0.45,0.68
			c-0.19,0.19-0.42,0.34-0.68,0.45c-0.26,0.11-0.54,0.16-0.85,0.16c-0.29,0-0.57-0.05-0.83-0.16c-0.26-0.11-0.49-0.26-0.68-0.45
			c-0.19-0.19-0.34-0.42-0.45-0.68C306,30.29,305.94,30.02,305.94,29.73z"/>
		<path class="st8" d="M335.8,18.55c0.21,0,0.39,0.06,0.54,0.18c0.14,0.12,0.22,0.3,0.22,0.53v21.09c0,0.48-0.25,0.71-0.74,0.71
			h-1.2c-0.49,0-0.74-0.24-0.74-0.71V21.17h-13.57v19.25c0,0.48-0.25,0.71-0.74,0.71h-1.2c-0.48,0-0.71-0.24-0.71-0.71V19.26
			c0-0.48,0.24-0.71,0.71-0.71H335.8z"/>
		<path class="st8" d="M344.2,31.61c0-0.29,0.06-0.47,0.18-0.53c0.12-0.06,0.31-0.09,0.55-0.09h6.37c-1.21-1.93-2.43-3.85-3.65-5.76
			c-1.22-1.91-2.43-3.83-3.64-5.76c-0.14-0.2-0.21-0.38-0.23-0.53c0-0.14,0.08-0.24,0.24-0.31c0.16-0.07,0.3-0.1,0.42-0.1h8.63
			c1.04,0,2.01,0.2,2.91,0.61c0.9,0.41,1.68,0.95,2.33,1.64s1.18,1.49,1.55,2.4c0.38,0.91,0.56,1.88,0.56,2.91
			c0,1-0.18,1.95-0.55,2.85c-0.37,0.9-0.88,1.7-1.53,2.39s-1.42,1.24-2.3,1.64s-1.84,0.61-2.86,0.61h-6.33v6.74
			c0,0.26-0.07,0.45-0.21,0.57c-0.14,0.12-0.31,0.18-0.51,0.18h-1.17c-0.21,0-0.4-0.05-0.55-0.15c-0.15-0.1-0.23-0.33-0.23-0.68
			V31.61z M347.95,21.03l6.21,9.82c0.52-0.12,1.02-0.33,1.48-0.63c0.47-0.3,0.87-0.66,1.21-1.08c0.34-0.42,0.61-0.89,0.8-1.41
			s0.3-1.06,0.3-1.61c0-0.67-0.13-1.32-0.38-1.93c-0.25-0.61-0.59-1.15-1.02-1.62c-0.43-0.47-0.94-0.84-1.53-1.12
			s-1.22-0.41-1.87-0.41h-4.83H347.95z"/>
		<path class="st8" d="M365.66,29.86c0-1.63,0.31-3.15,0.92-4.59c0.61-1.43,1.45-2.68,2.51-3.75c1.06-1.07,2.3-1.91,3.73-2.53
			c1.43-0.62,2.95-0.93,4.58-0.93c1.63,0,3.15,0.31,4.59,0.93c1.43,0.62,2.68,1.46,3.75,2.53c1.06,1.07,1.91,2.32,2.53,3.75
			c0.62,1.43,0.93,2.96,0.93,4.59c0,1.63-0.31,3.15-0.93,4.58c-0.62,1.43-1.46,2.67-2.53,3.74c-1.07,1.07-2.32,1.91-3.75,2.52
			c-1.43,0.61-2.96,0.92-4.59,0.92c-1.63,0-3.15-0.31-4.58-0.92c-1.43-0.61-2.67-1.45-3.73-2.52c-1.06-1.07-1.89-2.31-2.51-3.74
			C365.96,33.02,365.66,31.49,365.66,29.86z M368.19,29.86c0,1.27,0.25,2.47,0.74,3.59c0.49,1.12,1.15,2.1,1.99,2.93
			c0.84,0.84,1.81,1.5,2.93,1.99s2.32,0.74,3.59,0.74c1.26,0,2.45-0.25,3.58-0.74s2.11-1.15,2.96-1.99c0.84-0.84,1.51-1.81,2-2.93
			c0.49-1.12,0.74-2.31,0.74-3.59c0-1.27-0.25-2.47-0.74-3.6c-0.49-1.13-1.16-2.11-2-2.96c-0.84-0.84-1.83-1.51-2.96-2
			s-2.32-0.74-3.58-0.74c-1.27,0-2.47,0.25-3.59,0.74s-2.1,1.16-2.93,2s-1.5,1.83-1.99,2.96C368.43,27.39,368.19,28.59,368.19,29.86
			z M377.48,27.77c0.58,0,1.07,0.2,1.47,0.6c0.4,0.4,0.6,0.88,0.6,1.45c0,0.58-0.2,1.07-0.6,1.46c-0.4,0.39-0.89,0.59-1.47,0.59
			c-0.57,0-1.05-0.2-1.45-0.6s-0.6-0.88-0.6-1.45c0-0.57,0.2-1.05,0.6-1.45C376.43,27.97,376.91,27.77,377.48,27.77z"/>
	</g>
</g>
<g id="Слой_4">
	<circle class="st9" cx="2525.57" cy="447.38" r="68.04"/>
</g>
</svg>
