<?xml version="1.0" standalone="no"?>
<!DOCTYPE svg PUBLIC "-//W3C//DTD SVG 20010904//EN"
 "http://www.w3.org/TR/2001/REC-SVG-20010904/DTD/svg10.dtd">
<svg version="1.0" xmlns="http://www.w3.org/2000/svg"
 width="553.000000pt" height="553.000000pt" viewBox="0 0 553.000000 553.000000"
 preserveAspectRatio="xMidYMid meet">
<metadata>
Created by potrace 1.11, written by Peter Selinger 2001-2013
</metadata>
<g transform="translate(0.000000,553.000000) scale(0.100000,-0.100000)"
fill="#000000" stroke="none">
<path d="M1673 4432 c290 -290 527 -530 527 -534 0 -7 -1090 -1098 -1097
-1098 -3 0 -250 245 -550 545 -300 300 -547 545 -549 545 -2 0 -4 -496 -4
-1102 l0 -1103 553 553 552 552 548 -548 c301 -301 547 -550 547 -554 0 -3
-248 -254 -551 -557 l-551 -551 1108 0 1109 0 1103 1103 c606 606 1102 1105
1102 1108 0 4 -487 493 -1081 1088 l-1081 1081 -1107 0 -1106 0 528 -528z"/>
</g>
</svg>
