<svg width="74" height="94" viewBox="0 0 74 94" fill="none" xmlns="http://www.w3.org/2000/svg">
<g id="Icon">
<path id="Vector" d="M8.11261 94.0004C7.18636 93.7113 6.21422 93.5139 5.33959 93.1132C1.91273 91.5505 0 88.9603 0 85.085C0.00860298 64.0027 0 42.9205 0.00573532 21.8383C0.00573532 16.5691 4.10936 12.399 9.40593 12.3017C12.1904 12.2502 14.9778 12.2931 17.9229 12.2931C17.9229 11.2199 17.9229 10.1981 17.9229 9.17345C17.9258 7.45047 18.5366 6.77787 20.283 6.73494C22.2445 6.68629 24.2059 6.70632 26.1674 6.72063C26.6406 6.72349 26.9216 6.62618 27.1539 6.13676C29.0838 2.05541 32.3386 -0.0339286 36.8581 0.000416656C41.3517 0.0347619 44.7613 1.89227 46.6655 6.13104C46.7859 6.40008 47.2275 6.6777 47.5286 6.68629C49.3668 6.7378 51.2078 6.7006 53.046 6.72063C53.5622 6.72636 54.0956 6.75211 54.5917 6.88377C55.6412 7.16139 56.0542 7.72809 56.0714 8.8071C56.0886 9.93191 56.0742 11.0596 56.0742 12.2903C57.1582 12.2903 58.1619 12.276 59.1656 12.2931C61.4626 12.3361 63.7797 12.2044 66.048 12.4878C70.5244 13.043 73.9828 17.0585 73.9857 21.5635C74.0057 42.8604 74.0057 64.1573 73.9857 85.4542C73.9828 89.5727 70.8943 92.9872 66.5756 93.8087C66.3405 93.8545 66.1168 93.9346 65.8845 94.0004H8.11261ZM17.9229 16.7695C15.19 16.7695 12.6206 16.7637 10.0483 16.7695C6.48952 16.7781 4.46208 18.8044 4.46208 22.3506C4.46208 43.1266 4.46208 63.8997 4.46208 84.6757C4.46208 84.9218 4.45921 85.1651 4.46208 85.4113C4.49936 86.765 5.0987 87.8068 6.21709 88.5653C7.2982 89.298 8.51409 89.5327 9.79593 89.5327C27.9138 89.5327 46.0317 89.5327 64.1496 89.5269C64.6686 89.5269 65.1934 89.4869 65.7039 89.4039C68.1471 88.9946 69.5293 87.3632 69.5293 84.9075C69.5293 63.9798 69.5293 43.0521 69.5293 22.1216C69.5293 18.9332 67.4589 16.821 64.2643 16.7781C62.3946 16.7523 60.5249 16.7723 58.6551 16.7723C57.8321 16.7723 57.012 16.7723 56.0714 16.7723C56.0714 18.4495 56.0714 20.0323 56.0714 21.6121C56.0714 23.7072 55.1996 24.6002 53.1378 24.6002C42.3468 24.603 31.5557 24.6002 20.7647 24.6002C18.7717 24.6002 17.9258 23.7444 17.92 21.7467C17.9171 20.1296 17.92 18.5125 17.92 16.7723L17.9229 16.7695ZM51.5261 11.1798C49.6105 11.1798 47.7752 11.1798 45.9428 11.1798C44.0415 11.1798 43.3791 10.6789 42.8658 8.84717C42.037 5.90779 39.3443 3.95584 36.4107 4.17336C33.7495 4.37085 31.5242 6.29132 30.7442 9.06469C30.314 10.5931 29.5513 11.1741 27.9597 11.1798C27.3776 11.1798 26.7954 11.1798 26.2133 11.1798C24.9687 11.1798 23.7242 11.1798 22.5054 11.1798V20.0781H51.5261V11.1798Z" fill="#145388"/>
<path id="Vector_2" d="M47.6405 36.9129C51.8359 36.9129 56.0341 36.91 60.2295 36.9129C61.52 36.9129 62.4089 37.5196 62.7043 38.5528C63.057 39.795 62.2684 41.0858 60.9866 41.3205C60.5994 41.392 60.1951 41.3949 59.7965 41.3949C51.7097 41.3978 43.6229 41.3978 35.539 41.3949C35.2034 41.3949 34.8622 41.3949 34.5295 41.3548C33.3165 41.2003 32.5279 40.3044 32.5422 39.1195C32.5566 37.9575 33.3911 37.0302 34.5926 36.9329C35.3841 36.8699 36.1842 36.91 36.9814 36.91C40.5344 36.91 44.0875 36.91 47.6405 36.91V36.9129Z" fill="#145388"/>
<path id="Vector_3" d="M47.7207 72.7206C51.7957 72.7206 55.8678 72.7149 59.9427 72.7263C60.3958 72.7263 60.869 72.7578 61.2991 72.8923C62.2426 73.1843 62.8132 74.0887 62.7674 75.0847C62.7244 76.075 62.0591 76.8993 61.084 77.1168C60.7285 77.1969 60.3557 77.2227 59.9915 77.2227C51.7527 77.2284 43.511 77.2313 35.2722 77.217C34.7933 77.217 34.2829 77.1511 33.8384 76.9794C32.8634 76.5988 32.373 75.5541 32.5795 74.4923C32.7716 73.5048 33.6319 72.7721 34.7618 72.7349C36.078 72.692 37.3943 72.7206 38.7134 72.7206C41.7159 72.7206 44.7183 72.7206 47.7179 72.7206H47.7207Z" fill="#145388"/>
<path id="Vector_4" d="M47.6835 54.8411C51.8788 54.8411 56.0771 54.8353 60.2725 54.8468C61.6604 54.8496 62.5666 55.548 62.7502 56.6843C62.9624 58.0123 62.0361 59.1857 60.674 59.2859C60.1865 59.3202 59.6932 59.3002 59.2057 59.3002C51.182 59.3002 43.1554 59.3002 35.1317 59.3002C33.566 59.3002 32.5996 58.496 32.5479 57.1765C32.4935 55.8056 33.4168 54.864 34.9138 54.8496C37.9162 54.8267 40.9158 54.8411 43.9182 54.8411C45.1743 54.8411 46.4303 54.8411 47.6863 54.8411H47.6835Z" fill="#145388"/>
<path id="Vector_5" d="M18.2412 56.5497C20.3633 54.5291 22.5857 52.3883 24.8425 50.2846C25.2526 49.9039 25.7688 49.5519 26.2993 49.4031C27.2772 49.1283 28.2809 49.6635 28.7712 50.5536C29.2731 51.4638 29.1354 52.394 28.2837 53.2097C25.7659 55.6224 23.2281 58.0123 20.6959 60.4079C20.2973 60.7857 19.9102 61.1835 19.4858 61.5327C18.5222 62.3226 17.3838 62.3083 16.5034 61.4382C14.9405 59.8898 13.3948 58.3185 11.8864 56.7158C10.9803 55.7512 11.0262 54.3259 11.8979 53.4902C12.7926 52.6315 14.0802 52.7203 15.1068 53.6819C16.1105 54.6207 17.1343 55.5394 18.2412 56.5497Z" fill="#145388"/>
<path id="Vector_6" d="M18.1323 38.7389C20.4235 36.5608 22.7033 34.3885 24.9917 32.2247C25.9294 31.3375 26.8729 31.1772 27.8221 31.7067C29.1785 32.4623 29.4997 34.1051 28.387 35.1842C25.4448 38.0348 22.4624 40.8454 19.4571 43.6331C18.5423 44.4831 17.3838 44.403 16.492 43.5157C14.975 42.0074 13.4752 40.479 11.9983 38.9278C10.9975 37.8774 10.986 36.4435 11.9094 35.5677C12.7927 34.7291 14.1691 34.8464 15.1814 35.8596C16.1106 36.7898 17.0225 37.7371 17.943 38.6731C17.9602 38.6931 17.9975 38.6931 18.1294 38.736L18.1323 38.7389Z" fill="#145388"/>
<path id="Vector_7" d="M18.2097 74.4808C20.4292 72.3714 22.7291 70.1762 25.0376 67.9953C26.0269 67.0594 27.1338 66.9707 28.106 67.7091C29.233 68.5648 29.4251 69.9959 28.4099 70.9776C25.4677 73.8282 22.4854 76.6417 19.4858 79.4294C18.5394 80.308 17.378 80.2165 16.4518 79.2891C14.9606 77.798 13.4809 76.2925 12.0213 74.767C11.0147 73.7138 10.9803 72.2913 11.8893 71.4012C12.7812 70.5282 14.1577 70.6713 15.233 71.7103C16.1794 72.6204 17.1572 73.4991 18.2097 74.4751V74.4808Z" fill="#145388"/>
</g>
</svg>
