<svg width="80" height="81" viewBox="0 0 80 81" fill="none" xmlns="http://www.w3.org/2000/svg">
<path d="M0 64.2195C0 45.053 0 25.8866 0 6.71823C0.0489239 6.60277 0.117417 6.49318 0.142858 6.3738C0.579259 4.36401 1.53817 2.63993 3.27594 1.52838C4.32096 0.859103 5.56362 0.499024 6.71823 0C28.9062 0 51.0942 0 73.2821 0C74.0355 0.262232 74.8301 0.444229 75.5365 0.802352C78.5385 2.32682 79.9964 4.82977 79.9984 8.1742C80.0062 26.4013 80.0023 44.6303 80.0023 62.8574C80.0023 63.014 80.0062 63.1705 80.0023 63.3271C79.9123 66.3428 77.8673 68.5228 74.8633 68.7811C74.1999 68.8379 73.5346 68.8437 72.8555 68.8751V76.877C74.5267 76.877 76.1608 76.877 77.7929 76.877C79.2156 76.877 79.9749 77.4113 79.9906 78.4191C80.0082 79.4504 79.2293 80.0023 77.7577 80.0023C52.5775 80.0023 27.3974 79.9984 2.21723 80.016C1.24658 80.016 0.491196 79.7812 0.00391391 78.9084V77.971C0.491196 77.0982 1.24462 76.832 2.21723 76.8633C3.84933 76.9142 5.48339 76.877 7.13897 76.877V68.83C6.64778 68.83 6.20551 68.83 5.76519 68.83C4.04503 68.8261 2.48142 68.3408 1.41684 66.9455C0.804309 66.1431 0.461841 65.1353 0 64.2195ZM3.12526 14.411V15.2388C3.12526 31.098 3.12526 46.9571 3.12526 62.8163C3.12526 63.0766 3.11547 63.3388 3.14287 63.5971C3.25637 64.6304 4.01176 65.5013 5.00981 65.6226C5.6967 65.7048 6.4012 65.6382 7.18594 65.6382C7.18594 64.3584 7.18594 63.0883 7.18594 61.8183C7.1879 60.1901 7.69866 59.6871 9.35033 59.6852C12.319 59.6852 15.2877 59.6832 18.2564 59.6852C19.7789 59.6852 20.3093 60.2273 20.3093 61.7733C20.3112 66.513 20.3093 71.2528 20.3093 75.9925V76.8125H24.685V75.8203C24.685 65.4034 24.685 54.9865 24.685 44.5697C24.685 42.9356 25.2036 42.4053 26.8201 42.4014C29.7359 42.3955 32.6538 42.3974 35.5696 42.4014C37.3172 42.4014 37.8084 42.8926 37.8084 44.6225C37.8084 55.0648 37.8084 65.5071 37.8084 75.9514V76.8281H42.1841V75.9416C42.1841 69.8477 42.1841 63.7537 42.1841 57.6597C42.1841 56.1705 42.7282 55.6265 44.2096 55.6245C47.1783 55.6206 50.147 55.6245 53.1157 55.6245C54.8143 55.6245 55.3075 56.1157 55.3075 57.8085C55.3075 63.8496 55.3075 69.8927 55.3075 75.9338V76.8359H59.6832V75.9612C59.6832 70.8829 59.6832 65.8046 59.6832 60.7263C59.6832 60.466 59.6715 60.2038 59.7028 59.9455C59.8085 59.0864 60.4699 58.4758 61.2625 58.4875C62.0629 58.4993 62.6969 59.1079 62.7928 59.9787C62.8202 60.237 62.8085 60.4993 62.8085 60.7596C62.8085 65.8379 62.8085 70.9162 62.8085 75.9945V76.8164H69.6363V43.2409H62.8085V44.0374C62.8085 45.6519 62.8085 47.2663 62.8085 48.8808C62.8085 49.0628 62.8163 49.2468 62.8046 49.4268C62.7478 50.3936 62.1216 51.0648 61.2684 51.0805C60.3897 51.0961 59.7008 50.4014 59.6911 49.3955C59.6676 47.0002 59.6813 44.6049 59.6832 42.2076C59.6832 40.6127 60.1979 40.0824 61.7713 40.0784C64.74 40.0706 67.7087 40.0726 70.6774 40.0784C72.2997 40.0824 72.8066 40.6029 72.8066 42.2448C72.8066 49.7439 72.8066 57.2449 72.8066 64.7439V65.7009C73.1764 65.7009 73.4348 65.7009 73.6931 65.7009C76.1197 65.7087 76.8692 64.967 76.8692 62.5482C76.8692 46.8182 76.8692 31.0902 76.8692 15.3601V14.4091H3.12526V14.411ZM3.14874 11.1977H76.8751C76.8751 10.2642 76.8751 9.3836 76.8751 8.50297C76.8751 4.97458 75.0179 3.12526 71.4758 3.12526C50.4934 3.12526 29.5109 3.12526 8.52841 3.12526C8.18986 3.12526 7.85131 3.11939 7.51471 3.14678C5.13309 3.34444 3.33074 5.10178 3.16244 7.4834C3.07829 8.69671 3.14678 9.92176 3.14678 11.1957L3.14874 11.1977ZM27.8396 76.8125H34.6479V45.5853H27.8396V76.8125ZM52.1587 58.7889H45.3583V76.8222H52.1587V58.7889ZM10.368 62.8124V76.8125H17.1488V62.8418C16.9883 62.83 16.8631 62.8144 16.7398 62.8144C14.6341 62.8144 12.5304 62.8144 10.368 62.8144V62.8124Z" fill="#145388"/>
<path d="M35.3133 29.6087C36.6538 30.9472 37.9982 32.2878 39.3407 33.6283C41.4405 35.7261 43.5481 37.8162 45.6284 39.9316C45.9904 40.2995 46.28 40.3837 46.7752 40.1978C48.1176 39.6948 49.466 39.7516 50.8104 40.28C51.0491 40.3739 51.4934 40.3269 51.6617 40.1625C54.9415 36.9257 58.1959 33.6635 61.4543 30.4052C61.5247 30.3347 61.5776 30.2447 61.6578 30.1351C60.648 28.5558 60.3466 26.8807 60.9416 25.0725C61.785 22.5049 64.4504 20.8885 67.1471 21.3308C69.8379 21.773 71.8516 24.1194 71.8692 26.8396C71.8868 29.5461 69.8535 32.006 67.194 32.3602C66.3917 32.4678 65.5521 32.2662 64.7283 32.2623C64.4112 32.2623 63.9924 32.321 63.7889 32.5226C60.4914 35.779 57.2253 39.0667 53.9396 42.3328C53.6323 42.6381 53.5932 42.869 53.7595 43.2722C54.7869 45.7575 54.0315 48.417 51.8828 50.0178C49.9258 51.4777 47.0413 51.4072 45.1274 49.8553C43.0452 48.1665 42.4053 45.4679 43.5638 43.0432C43.781 42.5892 43.6792 42.3602 43.3661 42.0491C40.0804 38.7809 36.8005 35.507 33.5363 32.2193C33.2056 31.8846 32.9532 31.8396 32.5246 32.0314C31.2076 32.6263 29.8455 32.6204 28.5011 32.1234C28.0745 31.9668 27.8005 32.0099 27.4737 32.3406C24.6498 35.188 21.8142 38.0216 18.9649 40.8416C18.6517 41.1528 18.6322 41.3778 18.7985 41.779C20.0647 44.824 18.5206 48.2585 15.4678 49.2604C12.2701 50.3074 8.9609 48.5266 8.19573 45.2624C7.71627 43.2174 8.24857 41.37 9.79065 39.9199C11.4247 38.3837 13.368 38.004 15.5069 38.6772C15.7789 38.7633 16.0372 38.8886 16.3347 39.0079C16.458 38.9023 16.6048 38.7946 16.73 38.6694C19.5304 35.8729 22.3249 33.0705 25.1332 30.2819C25.4482 29.9688 25.5402 29.7398 25.3269 29.2897C24.1723 26.867 24.8181 24.1507 26.8925 22.4775C28.8318 20.912 31.6851 20.8415 33.644 22.3092C35.8162 23.9355 36.552 26.64 35.4992 29.1292C35.4385 29.2721 35.3857 29.4169 35.3113 29.6067L35.3133 29.6087ZM66.3134 24.3758C64.9494 24.3464 63.8007 25.4267 63.7576 26.7828C63.7126 28.1664 64.8437 29.3484 66.2273 29.3621C67.5776 29.3758 68.7224 28.2603 68.7459 26.9081C68.7694 25.55 67.6696 24.4051 66.3134 24.3758ZM51.0941 45.5324C51.1235 44.1665 50.0452 43.0217 48.6891 42.9767C47.3055 42.9297 46.1235 44.0608 46.1078 45.4463C46.0922 46.7947 47.2116 47.9434 48.5638 47.9649C49.9219 47.9865 51.0648 46.8886 51.0961 45.5324H51.0941ZM32.8475 26.8416C32.8358 25.4658 31.7359 24.3719 30.3661 24.3758C29.006 24.3777 27.8886 25.4913 27.8768 26.8513C27.8651 28.229 29.0373 29.3895 30.415 29.3641C31.7731 29.3386 32.8592 28.2134 32.8475 26.8416ZM13.6732 46.4542C15.0549 46.4424 16.1292 45.3543 16.1253 43.9688C16.1214 42.5911 15.0314 41.4933 13.6595 41.4855C12.274 41.4776 11.1175 42.6479 11.1507 44.0217C11.182 45.3876 12.3014 46.4659 13.6732 46.4561V46.4542Z" fill="#145388"/>
<path d="M12.4462 22.8141C11.3269 22.8141 10.2075 22.82 9.0881 22.8141C7.94328 22.8063 7.21921 22.2075 7.2016 21.2779C7.18398 20.3464 7.91393 19.7006 9.04113 19.6947C11.3582 19.683 13.6752 19.681 15.9922 19.6947C17.0764 19.7006 17.7848 20.3249 17.8005 21.2309C17.8181 22.1625 17.0862 22.8024 15.9609 22.8122C14.7887 22.8239 13.6185 22.8141 12.4462 22.8141Z" fill="#145388"/>
<path d="M12.501 30.3152C11.3288 30.3152 10.1586 30.327 8.98634 30.3113C7.91393 30.2976 7.20159 29.6596 7.20159 28.7536C7.20159 27.8475 7.91001 27.2017 8.98634 27.1939C11.3288 27.1782 13.6732 27.1782 16.0157 27.1939C17.092 27.2017 17.8005 27.8455 17.8005 28.7516C17.8005 29.6577 17.0881 30.2956 16.0157 30.3093C14.8435 30.325 13.6732 30.3133 12.501 30.3133V30.3152Z" fill="#145388"/>
<path d="M22.0686 22.8044C21.2525 22.8025 20.5187 22.0647 20.5187 21.2506C20.5187 20.4345 21.2565 19.7007 22.0725 19.7026C22.9081 19.7026 23.6028 20.4091 23.6028 21.2565C23.6028 22.0999 22.9003 22.8064 22.0686 22.8044Z" fill="#145388"/>
<path d="M61.2703 56.6382C60.4366 56.6499 59.7126 55.9493 59.7008 55.1196C59.6871 54.2938 60.3916 53.5795 61.2312 53.5697C62.0727 53.5599 62.7909 54.2487 62.8026 55.0805C62.8144 55.9024 62.102 56.6265 61.2703 56.6382Z" fill="#145388"/>
<path d="M52.3407 5.62427C57.9905 5.62427 63.6382 5.62427 69.288 5.62427C69.5737 5.62427 69.8633 5.61057 70.1451 5.64971C70.9631 5.76517 71.5443 6.41097 71.5502 7.17614C71.5561 7.93935 70.9749 8.59493 70.1627 8.71822C69.9083 8.75736 69.6441 8.74757 69.3839 8.74757C58.0335 8.74757 46.6832 8.74757 35.3328 8.74757C33.9219 8.74757 33.1528 8.19962 33.145 7.19375C33.1371 6.18592 33.9121 5.62427 35.3152 5.62231C40.9904 5.62231 46.6656 5.62231 52.3407 5.62231V5.62427Z" fill="#145388"/>
<path d="M11.5499 7.18006C11.5558 7.98828 10.818 8.73192 10.0079 8.73779C9.19964 8.74366 8.456 8.00589 8.45013 7.19571C8.44426 6.38749 9.18203 5.64385 9.99221 5.63797C10.8004 5.6321 11.5441 6.36988 11.5499 7.18006Z" fill="#145388"/>
<path d="M16.2427 8.7379C15.4326 8.73202 14.6967 7.98838 14.7007 7.18016C14.7065 6.36998 15.4502 5.63416 16.2584 5.63808C17.0686 5.64395 17.8044 6.38759 17.8005 7.19581C17.7946 8.00599 17.051 8.74181 16.2427 8.7379Z" fill="#145388"/>
<path d="M22.4737 8.73783C21.6576 8.72022 20.9335 7.9707 20.9512 7.16052C20.9688 6.34447 21.7183 5.6204 22.5285 5.63801C23.3445 5.65562 24.0686 6.40514 24.051 7.21532C24.0334 8.03137 23.2839 8.75544 22.4737 8.73783Z" fill="#145388"/>
</svg>
