<svg width="81" height="86" viewBox="0 0 81 86" fill="none" xmlns="http://www.w3.org/2000/svg">
<path d="M53.9293 86H23.0163C22.0908 85.4743 21.7095 84.6915 21.8506 83.6283C22.0606 82.0477 22.5611 80.5914 23.5337 79.3081C25.1563 77.1665 27.36 76.1268 30.0257 75.89V71.8889H28.996C22.3058 71.8889 15.6156 71.8889 8.92544 71.8889C3.62267 71.8889 0.00293945 68.2877 0.00125977 63.0084C-0.000419922 49.2115 -0.000419922 35.4145 0.00125977 21.6176C0.00125977 16.3887 3.62771 12.769 8.87169 12.7656C14.5826 12.7606 20.2919 12.7555 26.0028 12.7791C26.6058 12.7807 26.93 12.6296 27.2223 12.0635C30.2474 6.19805 34.9623 2.39691 41.34 0.692031C42.4923 0.384648 43.6832 0.226758 44.8573 0C46.0885 0 47.3214 0 48.5526 0C48.7357 0.0520703 48.9171 0.127656 49.1036 0.151172C56.6286 1.10859 62.237 4.94164 65.9055 11.5378C66.4665 12.5456 67.0275 12.7925 68.0773 12.7841C73.3196 12.7438 76.9427 16.3803 76.9461 21.6142C76.9511 28.2456 77.0116 34.8787 76.9041 41.5084C76.8755 43.2973 77.1947 44.7166 78.6896 45.7698C78.9348 45.9428 79.1112 46.2149 79.3077 46.4518C81.6374 49.2686 80.8026 53.4057 77.5407 55.0887C77.0636 55.3356 76.9309 55.6212 76.936 56.1284C76.9612 58.4229 76.9494 60.7173 76.9461 63.0118C76.9393 68.2558 73.3263 71.8839 68.1008 71.8873C61.3552 71.8906 54.6113 71.8873 47.8656 71.8873C47.5448 71.8873 47.2223 71.8873 46.9099 71.8873V75.8883C47.0795 75.9101 47.2122 75.9286 47.3466 75.9437C51.4115 76.3989 54.3358 79.1788 55.0278 83.2033C55.2311 84.3808 55.0564 85.3651 53.9276 85.9966L53.9293 86ZM25.7677 27.9853C24.6087 23.9574 24.6137 20.0723 25.6131 16.1233H24.6305C19.3949 16.1233 14.1593 16.1216 8.92376 16.1233C5.41993 16.125 3.36231 18.1977 3.36063 21.7268C3.35896 33.2024 3.36063 44.6797 3.36063 56.1553C3.36063 56.4526 3.36063 56.7499 3.36063 57.0523H73.5363V55.6094C73.4691 55.6749 73.4002 55.7388 73.3331 55.8043C72.3084 55.0131 71.1915 54.3177 70.2743 53.4174C66.2381 49.4567 62.2606 45.4372 58.2612 41.4396C58.0462 41.2246 57.8211 41.0196 57.5826 40.7912C57.3088 40.9289 57.0619 41.0499 56.8184 41.1792C54.0586 42.6473 51.1074 43.5308 47.9983 43.6198C38.8608 43.8818 31.9976 39.9866 27.449 32.0602C27.14 31.521 26.8275 31.3279 26.2178 31.3312C21.1502 31.3547 16.0826 31.3446 11.0166 31.3446C9.42766 31.3446 8.5895 30.7484 8.59958 29.6414C8.61134 28.5312 9.41423 27.9853 11.0435 27.9853C15.6072 27.9853 20.1709 27.9853 24.733 27.9853H25.766H25.7677ZM3.36063 60.4956C3.36063 61.3036 3.36063 62.0275 3.36063 62.7514C3.36063 66.5425 5.35946 68.5312 9.16899 68.5312C28.7054 68.5312 48.2419 68.5312 67.78 68.5312C68.1714 68.5312 68.5661 68.5363 68.9541 68.4993C71.1293 68.2894 72.9568 66.8499 73.3734 64.7469C73.6455 63.3763 73.5749 61.9385 73.6589 60.4973H3.36063V60.4956ZM65.1849 21.8208C65.1698 11.6453 56.8301 3.32914 46.6747 3.36273C36.5261 3.39633 28.257 11.6705 28.2318 21.8124C28.2083 31.9645 36.5412 40.3075 46.7066 40.3108C56.8738 40.3142 65.1983 31.9846 65.1849 21.8208ZM67.9043 16.1939C67.8925 16.2459 67.864 16.298 67.8707 16.3484C67.8858 16.4861 67.9077 16.6255 67.9396 16.7599C69.1893 22.1232 68.5292 27.2445 65.9576 32.1089C65.6905 32.6128 65.7829 32.8681 66.1541 33.2326C68.425 35.47 70.6691 37.7325 72.9249 39.9833C73.0929 40.1512 73.2793 40.3007 73.5884 40.5762V39.5298C73.5884 35.2516 73.5884 30.9751 73.5884 26.697C73.5884 24.851 73.622 23.005 73.5783 21.1624C73.5044 18.0466 70.9193 15.8025 67.9043 16.1922V16.1939ZM60.5019 39.1098C60.7421 39.3064 61.157 39.5902 61.5081 39.9413C65.3512 43.7693 69.1876 47.604 73.0139 51.4472C73.7076 52.1442 74.4752 52.5826 75.4831 52.3357C77.3593 51.8771 77.8649 49.7036 76.4186 48.249C72.295 44.1086 68.1579 39.9833 64.0242 35.8529C63.9318 35.7605 63.8227 35.685 63.8831 35.7337C62.7695 36.8456 61.7079 37.9055 60.5036 39.1098H60.5019ZM51.4282 82.6104C50.7765 80.9576 49.6427 79.9397 48.0185 79.4761C47.5683 79.3468 47.0812 79.293 46.6109 79.293C41.1822 79.2812 35.7551 79.2729 30.3263 79.2913C28.0487 79.298 26.0935 80.6922 25.6031 82.6121H51.4282V82.6104ZM43.4447 75.8933V71.936H33.4825V75.8933H43.4447Z" fill="#145388"/>
<path d="M17.2332 44.1103C19.3294 44.1103 21.424 44.1069 23.5202 44.1136C23.8545 44.1136 24.1938 44.1237 24.5197 44.1875C25.2402 44.3286 25.7794 45.0089 25.7979 45.748C25.8147 46.4786 25.3007 47.1959 24.5852 47.3588C24.2089 47.4445 23.8108 47.4663 23.4228 47.468C19.2874 47.4747 15.152 47.473 11.0166 47.473C10.9327 47.473 10.8487 47.473 10.7647 47.473C9.39911 47.4512 8.59454 46.8213 8.59957 45.7782C8.60461 44.7318 9.39071 44.1204 10.7781 44.1153C12.9298 44.1069 15.0815 44.1136 17.2332 44.1136V44.1103Z" fill="#145388"/>
<path d="M16.7091 36.0511C18.7499 36.0511 20.7908 36.0259 22.8316 36.0595C24.0913 36.0797 24.8791 36.9733 24.6389 38.0281C24.4844 38.7117 24.0762 39.1787 23.3657 39.3114C23.0382 39.3719 22.7006 39.4021 22.368 39.4021C18.5652 39.4088 14.764 39.4071 10.9612 39.4055C9.42767 39.4055 8.61974 38.8276 8.60294 37.7359C8.58615 36.6457 9.39911 36.0494 10.9226 36.0461C12.8509 36.0427 14.7808 36.0461 16.7091 36.0461V36.0494V36.0511Z" fill="#145388"/>
<path d="M32.7384 45.7883C32.7333 46.6802 31.964 47.4327 31.0604 47.4293C30.155 47.426 29.3975 46.6684 29.4025 45.7715C29.4076 44.8644 30.155 44.1338 31.0772 44.1388C31.9926 44.1439 32.7434 44.888 32.7401 45.7866L32.7384 45.7883Z" fill="#145388"/>
<path d="M61.4879 21.8947C61.4526 30.0378 54.7591 36.6709 46.6327 36.6155C38.5182 36.5601 31.912 29.9169 31.9254 21.8225C31.9388 13.6895 38.6223 7.02949 46.7453 7.05804C54.8901 7.0866 61.5215 13.76 61.4862 21.8947H61.4879ZM46.6966 10.4174C40.4112 10.4258 35.2663 15.5925 35.2865 21.8729C35.3083 28.1264 40.428 33.241 46.6831 33.2561C52.9752 33.2712 58.1252 28.1364 58.1285 21.8427C58.1319 15.5505 52.987 10.4073 46.6966 10.4157V10.4174Z" fill="#145388"/>
<path d="M46.9536 14.2925C50.9059 14.4487 54.062 17.5847 54.2501 21.542C54.3005 22.6069 53.6723 23.4064 52.7166 23.4938C51.8179 23.5744 51.0654 22.9009 50.9159 21.8813C50.5078 19.0729 49.4983 18.0718 46.6294 17.6233C45.6115 17.4637 44.948 16.6961 45.0538 15.7975C45.163 14.8686 45.939 14.2538 46.9519 14.2925H46.9536Z" fill="#145388"/>
</svg>
