<svg width="80" height="77" viewBox="0 0 80 77" fill="none" xmlns="http://www.w3.org/2000/svg">
<path d="M61.1719 65.4248C61.1719 67.6958 61.1766 69.8745 61.1695 72.0532C61.1695 72.5836 61.2003 73.1307 61.089 73.6398C60.6698 75.5556 59.3295 76.4815 57.5037 76.8486C54.283 77.4927 50.9653 75.0015 50.6693 71.7335C50.5959 70.9307 50.7995 70.2558 51.4981 69.8153C52.6135 69.112 52.8835 68.1245 52.5756 66.9049C52.4596 66.4479 52.3838 65.9813 52.2796 65.4746H35.3287C35.6271 66.7533 35.9586 68.0203 36.2143 69.3014C36.4985 70.7318 35.6152 71.5061 34.2086 71.1107C30.8529 70.1682 28.679 68.9391 24.7006 65.7635C22.7966 67.0115 20.9874 68.3329 19.0503 69.4246C17.7549 70.154 16.2938 70.6157 14.8729 71.0965C13.4947 71.563 12.564 70.7128 12.8553 69.3038C13.1158 68.0392 13.4473 66.7865 13.7623 65.4675C13.4994 65.4556 13.22 65.4296 12.9405 65.4296C10.1343 65.4272 7.32812 65.4343 4.51954 65.4248C1.80095 65.4154 0.00355217 63.6393 0.00355217 60.9373C-0.00118406 45.9566 -0.00118406 30.9759 0.00355217 15.9952C0.00355217 13.3382 1.80332 11.5361 4.4485 11.529C8.64479 11.5171 12.8387 11.5171 17.035 11.5361C17.6128 11.5384 17.9823 11.349 18.4014 10.9417C20.0496 9.33847 21.7333 7.77078 23.4621 6.25519C24.388 5.44293 24.8995 5.43346 25.8112 6.22677C27.566 7.75657 29.2663 9.35031 30.9429 10.9677C31.336 11.349 31.6794 11.5384 32.2288 11.5361C37.3984 11.5171 42.5704 11.5053 47.7399 11.5456C48.4906 11.5527 48.7251 11.3016 48.9098 10.6244C50.0323 6.49437 52.3388 3.14349 55.7323 0.545674C57.0182 -0.437092 58.0744 -0.0771392 58.3609 1.50239C58.9151 4.55015 59.4029 7.60975 59.9191 10.6646C59.9618 10.9227 59.9997 11.1809 60.0541 11.5242C60.4093 11.5242 60.7243 11.5242 61.0416 11.5242C65.6216 11.5242 70.1991 11.5219 74.779 11.5242C77.6705 11.5266 79.4229 13.2695 79.4229 16.1515C79.4253 31.0446 79.4253 45.9353 79.4229 60.8283C79.4229 63.6558 77.6563 65.4201 74.8335 65.4248C70.6088 65.4319 66.3841 65.4248 62.1594 65.4248C61.842 65.4248 61.5247 65.4248 61.1719 65.4248ZM8.41035 41.0593C9.76017 40.517 11.1289 40.0174 12.4575 39.4253C13.9399 38.7646 14.6361 39.0559 15.0671 40.6283C16.5685 46.1271 19.0195 51.1617 22.4035 55.744C23.3508 57.0251 23.2845 57.5153 22.0436 58.5597C19.4339 60.7596 17.5489 63.4617 16.4288 66.6894C16.334 66.9641 16.2559 67.2459 16.1233 67.6816C18.8727 66.5473 21.1011 65.0388 23.0263 63.0757C24.2601 61.8182 24.8214 61.8111 26.0244 63.0496C27.7531 64.8257 29.747 66.2253 31.9896 67.2696C32.262 67.3951 32.5485 67.4874 32.9558 67.6437C31.8381 63.9163 29.8725 60.9657 27.0569 58.5715C25.9794 57.6551 25.951 57.1246 26.7537 55.9311C27.8739 54.2687 29.1029 52.6512 29.9933 50.868C31.3597 48.1329 32.5035 45.2864 33.6947 42.466C34.2015 41.2654 34.8479 40.9362 36.0391 41.4548C36.418 41.6206 36.7851 41.8124 37.1734 41.9497C38.0591 42.2647 38.9566 42.5512 40.0412 42.9136C39.0821 40.3986 37.8483 38.3668 36.1859 36.6191C35.4968 35.8945 35.2647 35.1651 35.3595 34.1539C35.6484 31.1204 35.4921 28.0987 34.8243 25.0296C28.1201 29.2425 21.3331 29.4887 14.2856 25.6074C14.1317 27.1064 13.8049 28.5178 13.8878 29.9055C14.0109 31.9658 13.4497 33.5193 11.8891 34.9638C10.1817 36.541 9.07342 38.6273 8.41035 41.057V41.0593ZM29.6807 56.7528C31.0353 58.5597 32.3377 60.2292 33.5502 61.965C33.8889 62.4481 34.1967 62.602 34.7509 62.5997C40.1573 62.5807 45.5637 62.5878 50.9724 62.5878H51.9126C51.446 58.1097 52.0025 53.8069 53.1132 49.4614C51.4674 49.4614 49.9944 49.4614 48.5214 49.4614C47.0579 49.459 46.608 49.0186 46.6151 47.5693C46.6553 37.7582 46.7382 27.9495 47.5126 18.1621C47.6121 16.9117 47.7778 15.6684 47.9128 14.4204H33.6473C33.7302 14.598 33.7681 14.7022 33.8249 14.797C37.3013 20.5728 38.6511 26.8601 38.2651 33.5429C38.2201 34.3197 38.4191 34.8596 38.914 35.4398C41.0595 37.9453 42.5135 40.8273 43.3755 44.0076C43.7639 45.4451 43.0132 46.2905 41.5544 46.0631C40.8274 45.9495 40.098 45.8145 39.3876 45.6227C38.2628 45.3219 37.1497 44.9667 35.9917 44.6233C34.4027 49.0612 32.2501 53.1438 29.6807 56.7552V56.7528ZM12.6966 42.6981C10.6719 43.2001 8.75136 43.7613 6.79766 44.1355C5.09499 44.4623 4.44613 43.6216 4.91265 41.9213C5.9262 38.2271 7.80174 35.0325 10.428 32.2523C10.7311 31.9326 10.9584 31.3974 10.9655 30.9593C11.0484 25.2261 12.4575 19.8718 15.4105 14.9414C15.5052 14.7828 15.5573 14.6004 15.6568 14.3612C12.0194 14.3612 8.47429 14.3612 4.92922 14.3612C3.23129 14.3612 2.83818 14.752 2.83818 16.4357C2.83818 31.1227 2.83818 45.8074 2.83818 60.4944C2.83818 60.672 2.83345 60.8496 2.83818 61.0272C2.87844 62.0266 3.38758 62.5784 4.37745 62.5831C7.80411 62.5997 11.2331 62.5949 14.6598 62.576C14.8777 62.576 15.1713 62.4363 15.3016 62.2634C16.7011 60.4139 18.0746 58.5431 19.5263 56.587C16.5567 52.4357 14.2264 47.6924 12.699 42.6981H12.6966ZM60.639 14.3589C60.8427 30.4928 61.044 46.5155 61.2477 62.5831C65.8939 62.5831 70.5283 62.5973 75.1627 62.5713C76.1194 62.5665 76.5859 61.939 76.5859 60.8165C76.5883 45.9282 76.5883 31.0375 76.5859 16.1492C76.5859 14.842 76.0862 14.3636 74.7435 14.3612C72.4109 14.3565 70.076 14.3612 67.7434 14.3612C65.3255 14.3612 62.9077 14.3612 60.6414 14.3612L60.639 14.3589ZM58.1738 46.6031C58.1738 46.2265 58.1738 45.9353 58.1738 45.644C58.1644 41.6869 58.1952 37.7298 58.1383 33.7726C58.0199 25.6263 58.0768 17.4682 56.8974 9.37636C56.6417 7.61686 56.3243 5.86682 56.0118 3.96049C54.1031 5.74605 52.9427 7.77315 52.1233 10.0086C50.4751 14.501 50.011 19.2111 49.8523 23.9308C49.6084 31.189 49.5729 38.4544 49.4521 45.7174C49.4474 45.9992 49.4781 46.2834 49.4947 46.6007H58.1715L58.1738 46.6031ZM15.0837 22.5786C15.1689 22.6852 15.1974 22.742 15.2424 22.7751C20.509 26.5546 28.428 26.3747 33.5621 22.3939C33.9954 22.0576 33.9694 21.7805 33.8154 21.3519C32.1033 16.5612 29.2095 12.6207 25.3045 9.38347C24.7716 8.94063 24.459 9.00457 23.9712 9.40241C19.6778 12.8883 16.7177 17.2645 15.0837 22.5786ZM55.9194 49.5206C55.8105 50.1766 55.7584 50.7378 55.6187 51.2777C54.2925 56.4023 54.2451 61.534 55.4174 66.6941C55.7986 68.3731 55.4458 69.9787 54.1954 71.1936C53.511 71.859 53.6436 72.3539 54.1386 72.901C54.4867 73.287 54.9011 73.6659 55.3629 73.8814C57.0561 74.6723 58.3467 73.8222 58.3349 71.9774C58.2851 64.8068 58.2354 57.6337 58.1833 50.4631C58.1833 50.1529 58.1525 49.8403 58.136 49.5182H55.917L55.9194 49.5206Z" fill="#145388"/>
<path d="M64.724 38.4757C64.724 34.753 64.7122 31.0304 64.7264 27.3077C64.7406 23.8739 67.3668 21.7758 70.6988 22.5146C72.8632 22.9954 74.2462 24.717 74.2604 27.0804C74.2888 31.5111 74.2699 35.9442 74.2699 40.3749C74.2699 43.4772 74.2841 46.5794 74.2651 49.6816C74.2438 53.068 71.6389 55.1448 68.3354 54.4368C66.1307 53.9655 64.743 52.2273 64.7287 49.819C64.7051 46.0371 64.7216 42.2552 64.7216 38.4733L64.724 38.4757ZM67.561 38.4189C67.561 42.1108 67.5657 45.805 67.5563 49.4969C67.5539 50.3944 67.8168 51.1333 68.6551 51.5548C70.0096 52.2344 71.4234 51.2304 71.4305 49.5608C71.4447 45.1585 71.4352 40.7562 71.4352 36.3562C71.4352 33.3724 71.4329 30.3886 71.4352 27.4048C71.4352 26.5831 71.2008 25.8868 70.4525 25.4558C69.0908 24.6696 67.5729 25.6405 67.5657 27.3408C67.5468 31.0327 67.561 34.727 67.5586 38.4189H67.561Z" fill="#145388"/>
<path d="M21.2645 15.4435C22.2046 15.4387 23.0216 16.2463 23.0263 17.1864C23.0311 18.1265 22.2235 18.9435 21.2834 18.9483C20.348 18.9554 19.5286 18.1431 19.5215 17.203C19.5144 16.2676 20.3267 15.4482 21.2668 15.4411L21.2645 15.4435Z" fill="#145388"/>
</svg>
