<svg width="25" height="26" viewBox="0 0 25 26" fill="none" xmlns="http://www.w3.org/2000/svg">
<g id="Icon">
<path id="Vector" d="M17.6646 17.0673C16.1644 18.7713 14.3131 19.6104 12.0725 19.4835C10.3485 19.3864 8.87263 18.6894 7.67622 17.4425C5.21112 14.8715 5.21737 10.8525 7.68248 8.26011C10.2393 5.5706 14.765 5.42843 17.4998 8.43974C17.4998 7.99102 17.4963 7.58115 17.5019 7.17196C17.5033 7.04366 17.5088 6.9105 17.545 6.78844C17.659 6.40284 18.0295 6.16565 18.423 6.20865C18.8102 6.25095 19.1272 6.57275 19.1613 6.9639C19.1696 7.05822 19.1654 7.15393 19.1654 7.24894C19.1654 10.1736 19.1627 13.0982 19.1675 16.0228C19.1689 17.0811 20.0136 17.8953 21.0563 17.8274C21.8308 17.7767 22.3716 17.3627 22.6427 16.6387C23.3337 14.7911 23.552 12.8825 23.1579 10.9503C22.3035 6.76209 19.8453 3.89295 15.7709 2.56276C9.68181 0.575101 3.2236 4.36871 1.8972 10.6195C0.624326 16.6158 4.66262 22.5163 10.7162 23.5004C13.2662 23.9152 15.6645 23.4748 17.9134 22.2077C18.0907 22.1078 18.2874 22.0114 18.4849 21.9844C18.8797 21.9296 19.2176 22.1765 19.3385 22.5538C19.456 22.9213 19.3156 23.2993 18.9625 23.5143C18.0935 24.0428 17.1724 24.4589 16.1977 24.7557C9.38289 26.8356 2.21768 22.8478 0.412991 15.968C-1.22137 9.73802 2.12522 3.30068 8.15172 1.08485C15.4101 -1.58455 23.3351 2.88525 24.7728 10.4669C25.2024 12.7341 25.0223 14.9603 24.2368 17.1338C23.7217 18.559 22.4738 19.4787 21.0417 19.4946C19.5297 19.5113 18.2756 18.6471 17.7181 17.2046C17.7063 17.1734 17.6938 17.1422 17.6646 17.0673ZM7.5066 12.8589C7.49895 15.5942 9.74855 17.8308 12.5105 17.835C15.2321 17.8392 17.4866 15.606 17.4991 12.8943C17.5123 10.1465 15.2912 7.88075 12.5724 7.86688C9.75967 7.85301 7.51425 10.0654 7.5066 12.8589Z" fill="white"/>
</g>
</svg>
