<svg width="53" height="74" viewBox="0 0 53 74" fill="none" xmlns="http://www.w3.org/2000/svg">
<path d="M24.9 73.1C21.5 73.1 18.1 72.7667 14.7 72.1C11.3 71.4333 8.36667 70.5 5.9 69.3C3.76667 68.3 2.26667 67.0667 1.4 65.6C0.6 64.1333 0.266667 62.6333 0.4 61.1C0.533334 59.5667 1.06667 58.2 2 57C3 55.8 4.26667 55 5.8 54.6C7.4 54.1333 9.2 54.3333 11.2 55.2C13.6667 56.2667 15.9333 57 18 57.4C20.0667 57.8 22.1333 58 24.2 58C26.6 58 28.6 57.7333 30.2 57.2C31.8 56.6667 33 55.8667 33.8 54.8C34.6 53.6667 35 52.2667 35 50.6C35 48.2667 34.1667 46.5667 32.5 45.5C30.9 44.3667 28.5333 43.8 25.4 43.8H20C17.4667 43.8 15.5333 43.1667 14.2 41.9C12.8667 40.6333 12.2 38.8333 12.2 36.5C12.2 34.1667 12.8667 32.3667 14.2 31.1C15.5333 29.8333 17.4667 29.2 20 29.2H23.6C25.5333 29.2 27.1667 28.9333 28.5 28.4C29.9 27.8667 30.9667 27.1 31.7 26.1C32.4333 25.0333 32.8 23.7333 32.8 22.2C32.8 20 32 18.3333 30.4 17.2C28.8667 16.0667 26.5667 15.5 23.5 15.5C21.6333 15.5 19.7333 15.7 17.8 16.1C15.8667 16.5 13.8 17.2 11.6 18.2C9.86667 18.9333 8.26667 19.1 6.8 18.7C5.4 18.3 4.23333 17.5333 3.3 16.4C2.43333 15.2 1.9 13.9 1.7 12.5C1.5 11.0333 1.73333 9.6 2.4 8.2C3.06667 6.8 4.33333 5.63333 6.2 4.7C9 3.3 12.0333 2.23333 15.3 1.5C18.6333 0.766664 21.9667 0.399998 25.3 0.399998C30.5667 0.399998 35.0667 1.16666 38.8 2.7C42.5333 4.23333 45.3667 6.46666 47.3 9.4C49.3 12.2667 50.3 15.7333 50.3 19.8C50.3 22.4667 49.8 24.9333 48.8 27.2C47.8 29.4667 46.3333 31.3667 44.4 32.9C42.4667 34.3667 40.2 35.4333 37.6 36.1V34.7C42.2667 35.4333 45.9 37.4 48.5 40.6C51.1667 43.7333 52.5 47.6667 52.5 52.4C52.5 56.6667 51.4 60.3667 49.2 63.5C47 66.6333 43.8333 69.0333 39.7 70.7C35.5667 72.3 30.6333 73.1 24.9 73.1Z" fill="white" fill-opacity="0.3"/>
</svg>
