<svg width="87" height="79" viewBox="0 0 87 79" fill="none" xmlns="http://www.w3.org/2000/svg">
<g id="Icon">
<path id="Vector" d="M11.3799 21.3459C14.1289 18.5126 17.4432 16.4087 21.0971 14.8085C25.9066 12.7001 30.9487 11.5376 36.1663 11.0908C40.0368 10.7603 43.9027 10.7648 47.7093 11.6287C48.9995 11.9205 50.2714 12.3901 51.4681 12.9531C52.1519 13.2768 52.7787 13.874 53.2346 14.4917C53.8956 15.3898 53.5902 16.0782 52.6101 16.6298C50.3853 17.8812 48.1834 19.1714 45.9815 20.4615C45.6761 20.6416 45.423 20.9128 45.0059 21.2547C47.6705 21.681 50.0389 21.6673 52.0106 19.7731C52.1542 19.6364 52.2887 19.4335 52.4596 19.3902C52.9246 19.2694 53.5264 19.0095 53.8501 19.1941C54.217 19.4061 54.543 20.0444 54.5339 20.4911C54.4997 22.2098 53.9504 23.8259 52.8426 25.1343C49.7403 28.7973 45.9633 31.4734 41.254 32.6906C39.9228 33.0348 38.5802 33.3334 37.2787 33.6434C37.616 35.2367 38.0081 36.6089 38.1676 38.0062C38.2976 39.1482 38.293 40.3472 38.097 41.4755C37.6707 43.9327 35.8654 45.0861 33.4196 44.6348C31.2656 44.2359 29.4557 43.1258 27.7074 41.8881C27.4566 41.7103 27.2082 41.5302 26.921 41.325C24.9424 43.6523 23.7435 46.3056 23.2876 49.2415C23.0733 50.6205 23.2352 52.0588 23.258 53.4698C23.2648 53.9416 23.5383 54.1149 24.0444 54.108C24.8353 54.0989 25.6377 54.1514 26.4195 54.2722C29.2506 54.7166 30.9145 56.3191 31.3864 59.1205C31.4867 59.7154 31.7306 59.9274 32.2503 60.0596C33.374 60.3445 34.4841 60.6728 35.6261 60.9896C36.1937 59.5992 36.6974 58.2452 37.2878 56.93C39.4122 52.1933 42.4598 48.2545 47.1098 45.7266C49.1522 44.6165 49.7608 44.8331 50.5449 47.0464C51.7211 50.3584 51.3541 53.5929 49.9659 56.7522C49.6582 57.452 49.3026 58.1381 48.906 58.7923C47.4563 61.1788 47.3583 63.6474 48.5755 66.1138C49.3892 67.7663 50.3717 69.3369 51.3199 70.9188C52.2659 72.4984 53.0545 74.1282 53.0067 76.0224C52.9907 76.6948 52.9474 77.406 52.7149 78.0237C52.2864 79.1703 51.1535 79.3298 50.3785 78.3793C49.4758 77.2715 48.2358 76.8248 46.932 76.4874C46.1069 76.2731 45.268 76.1181 44.4338 75.9449C41.6073 75.3636 38.9609 74.4975 37.616 71.6049C36.7544 71.8602 35.952 72.0471 35.1953 72.3503C34.9765 72.4369 34.8101 72.8426 34.7622 73.1275C34.3473 75.5825 33.023 77.3399 30.6706 78.14C28.2476 78.9651 25.8793 78.7645 23.8346 77.0641C22.1638 75.6737 21.4048 73.7247 20.917 71.6869C20.7073 70.8071 20.3449 70.3694 19.4604 70.0047C17.6369 69.2525 15.9251 68.2382 14.0628 67.2763C13.9648 67.4107 13.7368 67.723 13.5066 68.0307C12.2939 69.6491 10.8192 70.9621 8.98878 71.8442C8.06789 72.2887 7.40914 72.1337 6.97377 71.263C5.6973 68.7146 5.03171 66.0226 5.64031 63.1847C5.85913 62.1681 6.4723 61.2358 6.8598 60.3651C5.95259 58.4709 4.85619 56.5721 4.11538 54.5411C2.60412 50.3994 2.24397 46.0754 2.51295 41.6875C2.53802 41.2795 2.44912 40.8464 2.32375 40.452C0.805659 35.6675 -0.224639 30.7941 0.0420534 25.7224C0.0739652 25.1298 0.17198 24.5371 0.267716 23.949C1.01765 19.2443 5.65171 18.467 8.56025 19.723C9.51305 20.1333 10.3724 20.7578 11.3799 21.3459ZM50.8458 23.557C48.6279 24.1564 46.5924 24.0926 44.5569 23.7826C42.6877 23.4977 42.6923 23.4749 41.9834 25.2734C41.9104 25.458 41.8512 25.6472 41.7805 25.8341C41.4386 26.7208 40.846 27.049 40.0687 26.7801C39.3598 26.5362 39.0087 25.8706 39.3712 25.0295C39.8727 23.8647 40.4083 22.6794 41.1491 21.6605C42.9385 19.1941 45.4322 17.5393 48.0512 16.0645C48.5914 15.7613 49.1362 15.4696 49.7722 15.1231C49.3847 14.9453 49.1089 14.8085 48.8239 14.69C46.1798 13.5868 43.4035 13.2357 40.5656 13.2608C35.193 13.3041 30.0506 14.5715 24.9584 16.1625C18.3071 18.2391 13.0598 22.1255 9.4401 28.0976C5.64715 34.3546 4.30685 41.1609 5.22774 48.3935C5.67678 51.9266 6.81649 55.2432 8.84973 58.2178C9.16429 58.6783 9.43782 58.8333 9.9393 58.5256C11.3434 57.6685 12.7772 56.8616 14.1608 55.9726C15.0817 55.3822 15.8772 55.5281 16.292 56.5425C16.4812 57.0052 16.5815 57.5249 16.6157 58.0264C16.7593 60.1098 16.1986 62.0769 15.5831 64.0349C15.5011 64.2948 15.4441 64.7461 15.5831 64.8669C16.9371 66.0363 18.4279 66.9891 20.2149 67.6113C20.2149 67.2307 20.199 66.948 20.2172 66.6699C20.2901 65.6214 21.2657 65.0766 22.1798 65.5826C22.5764 65.8015 22.9434 66.075 23.3286 66.3166C25.7038 67.8005 28.1861 69.0383 30.967 69.5625C33.4037 70.023 35.7401 69.7312 37.8622 68.4091C39.4304 67.4335 39.3598 65.5621 37.7756 64.6002C37.4132 64.3814 37.0234 64.1876 36.6222 64.06C35.0813 63.5676 33.5176 63.146 31.9859 62.6217C29.923 61.9151 27.8054 61.2996 25.8497 60.3559C22.8499 58.9062 21.0218 56.4353 20.591 53.0732C20.3243 50.9898 20.5637 48.9338 21.1586 46.9188C22.761 41.4755 26.2166 37.4683 30.8758 34.3956C31.7237 33.8372 32.5853 33.2969 33.5176 32.702C33.0617 32.531 32.6948 32.4057 32.3369 32.2575C30.1851 31.3663 28.6511 29.855 28.0789 27.5824C27.1694 23.965 28.0698 20.7191 30.429 17.8744C30.8006 17.4276 31.3111 17.0629 31.8195 16.7711C32.387 16.4452 32.9341 16.6503 33.3216 17.1609C33.7068 17.6715 33.7251 18.2117 33.3034 18.7223C33.178 18.875 33.023 19.005 32.8748 19.1372C31.4046 20.4364 30.5339 22.0685 30.3287 24.006C30.1213 25.9686 30.2786 27.9585 32.1089 29.1074C33.2737 29.8368 34.6984 30.32 36.0637 30.5229C39.451 31.0243 42.5054 29.8618 45.382 28.1773C47.4061 26.9943 49.2206 25.5515 50.8367 23.557H50.8458ZM50.4013 74.7596C50.1232 74.1601 49.8861 73.5014 49.5328 72.911C48.6689 71.4772 47.6979 70.1073 46.8682 68.6553C44.9193 65.243 44.6663 61.7532 46.4488 58.1586C47.1394 56.7659 47.748 55.3184 48.2495 53.8459C48.8855 51.9745 48.833 50.0644 48.1789 48.0858C42.7196 51.2223 40.0459 56.253 38.1312 61.8581C41.6871 63.3351 42.7949 67.7048 39.8658 70.3238C40.6089 72.1269 42.1863 72.7833 43.9095 73.2096C46.0202 73.7316 48.1401 74.2194 50.4059 74.7573L50.4013 74.7596ZM9.57687 23.3928C8.20694 22.1346 6.76634 21.4439 4.95193 21.893C3.40648 22.2736 2.87537 23.4886 2.65655 24.8608C2.10493 28.3096 2.82295 31.6512 3.60707 35.0088C4.8881 30.801 6.75267 26.9191 9.57915 23.3951L9.57687 23.3928ZM23.1257 69.1591C23.0391 69.2069 22.9502 69.2548 22.8636 69.3027C23.3377 70.7068 23.6842 72.1725 24.311 73.5059C25.3687 75.7466 27.2378 76.476 29.6267 75.7967C31.3408 75.3089 32.305 73.9208 32.1842 72.0494C28.9656 71.7599 25.9659 70.7091 23.1235 69.1613L23.1257 69.1591ZM14.0901 59.2687C12.572 60.0345 11.1633 60.6956 9.80937 61.4569C9.33753 61.7213 8.92268 62.1818 8.62179 62.6422C7.59833 64.2218 7.75333 67.3902 8.93407 69.0337C12.1253 66.5719 13.5522 63.228 14.0878 59.2664L14.0901 59.2687ZM28.7012 39.2097C28.7149 39.3306 28.7286 39.4514 28.7422 39.5699C29.809 40.2036 30.8439 40.8965 31.9494 41.4504C32.6469 41.7992 33.4356 42.002 34.206 42.1548C35.0175 42.3166 35.5349 41.8584 35.6489 41.0675C35.9475 38.9727 35.4984 36.9736 34.8009 34.758C32.6788 36.3058 30.6911 37.7555 28.7035 39.2052L28.7012 39.2097ZM25.0587 56.6975C26.1802 57.7255 27.2902 58.3273 28.6465 58.8447C28.1108 57.4086 27.2538 56.9095 25.0587 56.6975Z" fill="white"/>
<path id="Vector_2" d="M19.8847 38.2593C17.872 38.2661 16.1396 37.6689 14.6876 36.3468C13.8123 35.549 13.0943 34.6441 12.8322 33.4542C12.5358 32.1071 13.0145 31.0084 14.3229 30.5936C15.36 30.2653 16.4997 30.067 17.5802 30.1194C21.4119 30.3064 25.2345 30.6232 29.0616 30.9013C29.7295 30.9492 30.1831 31.2956 30.3039 31.9795C30.4247 32.6633 30.0714 33.0189 29.5016 33.3973C25.9502 35.7565 22.6359 38.3801 20.5275 42.2049C18.5467 45.795 18.6515 49.5538 19.7525 53.3695C19.8619 53.7502 19.9987 54.1263 20.1058 54.5093C20.3428 55.3572 20.0534 55.9567 19.2966 56.2097C18.5945 56.4445 18.0064 56.1573 17.6896 55.3549C16.7642 53.0208 16.4519 50.5727 16.5066 48.0836C16.5658 45.444 17.0172 42.8751 18.3324 40.5387C18.7609 39.7796 19.3126 39.089 19.8847 38.2615V38.2593ZM25.1547 33.1488C21.5213 32.4787 16.5111 32.4217 15.3236 33.0713C16.1442 34.4207 17.236 35.4054 18.8339 35.622C21.3595 35.9616 23.6321 35.5194 25.1547 33.1488Z" fill="white"/>
<path id="Vector_3" d="M40.4698 16.345C41.3861 16.345 41.9605 16.8419 41.9446 17.6215C41.9309 18.3668 41.3337 18.9207 40.5473 18.9207C39.6674 18.9207 39.0657 18.3873 39.0771 17.6192C39.0885 16.8465 39.6378 16.3427 40.4675 16.345H40.4698Z" fill="white"/>
<path id="Vector_4" d="M81.7433 23.9269V6.717C81.6958 6.67077 81.6484 6.62614 81.6009 6.57991C81.2892 6.94496 80.9507 7.29088 80.6802 7.68462C80.5979 7.80418 80.6691 8.06083 80.7165 8.24096C82.2242 13.9208 78.8656 19.6834 73.2066 21.1022C71.7923 21.4561 70.359 21.488 68.8355 21.2393C68.8719 21.5725 68.9083 21.8562 68.9352 22.14C69.6186 29.1668 63.3553 34.7892 56.4988 33.2827C56.0305 33.1791 55.7205 33.227 55.4167 33.5968C55.2443 33.8072 54.9864 33.9459 54.7602 34.1212C57.3199 36.4486 57.6363 37.7112 56.4957 40.5981C57.3848 41.4924 58.2612 42.3755 59.2816 43.4005C59.6914 42.9366 60.128 42.4074 60.601 41.9132C61.1294 41.3617 61.6626 41.3154 62.1024 41.7363C62.558 42.1731 62.5121 42.7342 61.9568 43.2969C60.5362 44.7348 59.1139 46.1695 57.6853 47.5994C57.1712 48.1143 56.5922 48.1637 56.1761 47.7476C55.7569 47.3284 55.8027 46.7465 56.3106 46.2301C56.7804 45.7534 57.2629 45.2879 57.7027 44.8528C56.763 43.9075 55.8739 43.0148 54.9706 42.1061C52.6798 43.3623 50.408 42.6625 48.894 40.7671C48.758 40.9599 48.6551 41.1624 48.5017 41.317C46.5241 43.3192 44.5482 45.3214 42.5564 47.3077C40.9791 48.8795 38.6693 48.897 37.149 47.373C35.6255 45.8459 35.6318 43.5233 37.2028 41.9308C40.3194 38.7712 43.4487 35.6229 46.5906 32.4873C46.8215 32.2561 47.1965 32.1764 47.4955 32.0075C47.7265 31.8767 47.9717 31.7508 48.1568 31.5675C55.8027 24.0274 63.4408 16.4825 71.082 8.93599C73.7888 6.26268 76.4941 3.58937 79.2025 0.919243C80.1802 -0.043596 81.3066 -0.252424 82.4473 0.303919C83.5737 0.852291 84.3774 2.04309 84.1116 3.26258C83.3221 6.88438 83.8537 10.5381 83.7208 14.1726C83.6085 17.2317 83.6876 20.2972 83.667 23.3594C83.6639 23.7548 83.7351 23.9748 84.1527 24.1565C85.6572 24.8053 86.4308 26.0041 86.4815 27.6492C86.5115 28.663 86.4878 29.6769 86.4846 30.6923C86.4783 32.6037 85.6541 33.8359 83.9028 34.5628C83.83 34.5931 83.762 34.6345 83.6449 34.6935C83.6449 36.4215 83.6686 38.1703 83.6385 39.9174C83.6022 42.0168 81.5566 43.434 79.598 42.7485C78.4479 42.3468 77.6411 41.2931 77.581 40.0609C77.5477 39.3658 77.5572 38.6692 77.5746 37.9742C77.5905 37.3605 77.9717 36.9603 78.5049 36.946C79.0538 36.9316 79.4778 37.3605 79.4936 37.9838C79.5095 38.58 79.4857 39.1777 79.5015 39.7739C79.5189 40.4546 79.9856 40.9376 80.5979 40.9424C81.1817 40.9456 81.6895 40.4945 81.7021 39.8425C81.737 38.2117 81.7306 36.5809 81.7132 34.9502C81.7132 34.8099 81.5439 34.6011 81.4047 34.5421C79.6708 33.804 78.8798 32.4729 78.9067 30.6062C78.9178 29.8315 78.9099 29.0552 78.9114 28.2789C78.9146 25.9244 79.5696 24.9057 81.7433 23.9254V23.9269ZM49.106 33.3784C49.3923 33.6143 49.6565 33.7721 49.8432 33.9969C50.1217 34.3301 50.359 34.3333 50.7434 34.1452C51.1785 33.9331 51.6863 33.8789 52.1482 33.7132C52.4631 33.6 52.8159 33.4756 53.0405 33.2461C57.9021 28.2725 62.7494 23.2845 67.5983 18.2982C71.5091 14.2778 75.4199 10.2607 79.3291 6.24036C80.1992 5.34607 81.0772 4.45656 81.93 3.54473C82.3634 3.08085 82.2796 2.54682 81.7702 2.1754C81.3098 1.83904 81.0013 1.88846 80.484 2.39857C72.6877 10.0965 64.8915 17.796 57.0937 25.494C54.4722 28.0828 51.8492 30.67 49.106 33.3784ZM47.4085 34.4433C47.3768 34.4672 47.3246 34.4975 47.2835 34.5389C44.3662 37.4768 41.4442 40.41 38.5349 43.3575C37.7739 44.1274 37.7834 45.2337 38.5111 45.9734C39.2436 46.7179 40.3384 46.7513 41.1073 45.9878C43.3965 43.7114 45.6667 41.4143 47.9369 39.1172C48.0508 39.0024 48.1773 38.8127 48.1647 38.6708C48.0761 37.6442 48.3292 36.7037 48.8212 35.8046C48.353 35.3551 47.8989 34.9167 47.4069 34.4433H47.4085ZM78.9478 9.43017C75.7189 12.7491 72.5501 16.0058 69.337 19.3088C75.3408 20.2972 80.0837 14.8661 78.9478 9.43017ZM66.8975 21.8132C63.7429 25.0572 60.6564 28.2294 57.5113 31.4623C63.0563 32.3135 67.929 27.2889 66.8975 21.8132ZM50.1027 38.2197C50.1027 39.6353 51.2054 40.7559 52.6102 40.7734C54.0182 40.791 55.1921 39.6257 55.1905 38.2149C55.1905 36.777 54.0229 35.6516 52.5485 35.6627C51.2117 35.6739 50.1011 36.8344 50.1027 38.2197ZM80.8921 28.3219H84.515C84.6242 27.3718 84.4644 26.6034 83.686 26.1013C83.0722 25.7044 82.4172 25.6821 81.7812 26.063C80.957 26.5572 80.783 27.3367 80.8921 28.3219ZM80.927 30.3257C80.7308 31.3108 81.0203 32.0808 81.7338 32.5287C82.3777 32.9336 83.2304 32.881 83.8331 32.3996C84.4454 31.9102 84.6779 31.1164 84.4343 30.3257H80.9285H80.927Z" fill="white"/>
</g>
</svg>
