<svg width="68" height="76" viewBox="0 0 68 76" fill="none" xmlns="http://www.w3.org/2000/svg">
<g id="Icon">
<path id="Vector" d="M66.9795 0.00198283C67.7915 0.483811 68.002 1.21151 68 2.1256C67.9821 16.0768 67.9881 30.028 67.9821 43.9792C67.9821 44.3461 67.9702 44.7287 67.8729 45.0777C67.6843 45.7618 67.0212 46.1703 66.3363 46.0929C65.6355 46.0136 65.1054 45.4921 65.034 44.7862C65.0042 44.4928 65.0141 44.1934 65.0141 43.896C65.0141 30.613 65.0141 17.33 65.0141 4.04696V3.03175H17.1071C17.0952 3.25978 17.0753 3.4997 17.0753 3.73764C17.0753 11.2565 17.0753 18.7774 17.0654 26.2963C17.0654 26.7563 17.1448 27.0558 17.6074 27.2838C18.5325 27.7378 19.1162 28.531 19.5113 29.4748C19.9739 30.5812 20.5198 30.8311 21.6077 30.377C23.4124 29.6235 25.076 29.804 26.4717 31.1939C27.8733 32.5918 28.1413 34.2693 27.4008 36.1133C26.9879 37.1424 27.2678 37.7293 28.318 38.1418C30.1048 38.8437 31.149 40.3249 31.159 42.1768C31.1689 44.005 30.1782 45.4604 28.4173 46.198C27.3552 46.6442 27.0157 47.2588 27.5021 48.2284C28.8977 51.0203 26.7774 54.6132 23.2873 54.5081C23.2873 54.7678 23.2873 55.0256 23.2873 55.2834C23.2873 58.8703 23.2794 62.4573 23.2933 66.0442C23.2952 66.758 23.1702 67.3747 22.4932 67.7494C21.8063 68.1301 21.2186 67.8744 20.629 67.4857C19.4994 66.7422 18.3539 66.0224 17.123 65.2352V72.9841H65.0141V72.076C65.0141 67.5492 65.0141 63.0224 65.0141 58.4956C65.0141 58.2239 65.0062 57.9503 65.034 57.6806C65.1074 56.9648 65.6395 56.4453 66.3363 56.3858C67.0649 56.3224 67.6804 56.7011 67.8749 57.3891C67.9662 57.7163 67.9821 58.0712 67.9821 58.4143C67.9881 63.5835 67.9881 68.7547 67.9861 73.924C67.9861 75.54 67.5255 75.998 65.9095 76C49.3164 76 32.7214 76 16.1283 76C14.5699 76 14.0994 75.5261 14.0994 73.9537C14.0994 71.4058 14.0994 68.8578 14.0994 66.3099V65.3918C12.9201 66.1453 11.858 66.8096 10.8117 67.4956C10.2221 67.8823 9.63248 68.1321 8.94756 67.7494C8.27057 67.3707 8.14748 66.7481 8.14947 66.0402C8.1594 62.5286 8.15344 59.0151 8.15344 55.5035C8.15344 55.2378 8.15344 54.9721 8.15344 54.7183C7.56977 54.637 7.04962 54.6191 6.55727 54.4863C4.07764 53.822 2.75345 51.1987 3.66867 48.8094C4.22455 47.356 4.05382 46.9614 2.6522 46.3606C0.923018 45.6091 0.0574316 44.2588 0.00184346 42.4108C-0.0497741 40.6659 0.986547 39.1431 2.6125 38.4412C3.92676 37.8741 4.12926 37.3843 3.58728 36.0915C2.88448 34.416 3.22198 32.6374 4.48463 31.3644C5.73734 30.1014 7.51616 29.7484 9.2116 30.4286C10.4663 30.9322 10.9864 30.7141 11.4987 29.4352C11.9037 28.4279 12.5588 27.6328 13.5475 27.1926C14.0299 26.9784 14.1093 26.6949 14.1073 26.2329C14.0954 18.1945 14.1093 10.1541 14.0855 2.11568C14.0835 1.19763 14.2999 0.47588 15.1158 0H66.9795V0.00198283ZM24.8219 34.3942C24.806 33.2382 23.8531 32.683 22.8466 33.0915C20.1744 34.1721 17.9687 33.2858 16.7716 30.6348C16.5135 30.0637 16.1323 29.687 15.4851 29.6949C14.8061 29.7028 14.4329 30.1034 14.1847 30.7161C13.1405 33.3136 10.8455 34.2772 8.213 33.2323C7.59756 32.9884 7.04962 33.0062 6.58308 33.5019C6.14036 33.9719 6.13639 34.4953 6.38455 35.0783C7.49035 37.6798 6.56521 40.0037 3.98433 41.0883C3.36691 41.348 2.98772 41.7466 2.99764 42.4148C3.00757 43.085 3.41257 43.4657 4.02801 43.7115C6.60492 44.7446 7.58962 47.0606 6.54139 49.6164C6.29322 50.2212 6.25749 50.7645 6.7419 51.2562C7.25212 51.7757 7.8219 51.7281 8.44726 51.4605C10.909 50.4036 13.3251 51.3712 14.3714 53.8399C14.6374 54.4664 15.0265 54.9046 15.7372 54.8908C16.4142 54.8769 16.7855 54.4466 17.0257 53.8418C18.0382 51.3157 20.3967 50.3223 22.9518 51.3435C23.5652 51.5893 24.1152 51.5834 24.5877 51.0936C25.0621 50.6019 25.0304 50.0467 24.7783 49.4459C23.736 46.9832 24.6373 44.6613 27.0673 43.5351C27.6788 43.2515 28.2267 42.9482 28.2029 42.157C28.1791 41.3857 27.6688 41.0684 27.0256 40.8146C24.6869 39.8946 23.6447 37.418 24.5877 35.0882C24.6969 34.8166 24.7763 34.533 24.8219 34.3942ZM11.1671 63.7263C12.4159 62.9272 13.5673 62.2114 14.697 61.4619C15.4037 60.9939 16.0708 60.9979 16.7636 61.4639C17.3175 61.8346 17.8873 62.1856 18.4492 62.5445C19.0408 62.9212 19.6304 63.298 20.3153 63.7342C20.3153 62.025 20.3153 60.4705 20.3153 58.9159C20.3153 57.3614 20.3153 55.8386 20.3153 54.2999C20.2498 54.2622 20.1823 54.2265 20.1168 54.1888C19.3763 56.2867 18.1255 57.8055 15.7829 57.8551C13.4145 57.9067 12.0863 56.4473 11.312 54.3038L11.1651 54.4446V63.7243L11.1671 63.7263Z" fill="#145388"/>
<path id="Vector_2" d="M49.9624 15.9991C47.0222 15.9991 44.0819 16.0011 41.1416 15.9991C39.4915 15.9971 39.005 15.5353 39.0029 13.9866C39.0029 12.2488 38.9964 10.511 39.0029 8.77315C39.0093 7.58076 39.5858 7.00946 40.8459 7.00746C46.9407 6.99751 53.0334 6.99751 59.1283 7.00746C60.3884 7.00746 60.9884 7.58873 60.9949 8.76121C61.0034 10.499 60.9992 12.2368 60.997 13.9746C60.997 15.5313 60.487 15.9991 58.7811 15.9991C55.8408 16.0011 52.9006 15.9991 49.9603 15.9991H49.9624ZM42.2453 12.9694H57.7417V10.0312H42.2453V12.9694Z" fill="#145388"/>
<path id="Vector_3" d="M27.9416 23.9974C27.4508 23.9974 26.9619 24.0045 26.4712 23.9951C26.1921 23.988 25.913 23.9194 25.6339 23.9312C23.8357 24.0045 21.2039 18.7629 22.2304 16.5739C22.5657 15.8616 22.9684 15.0642 23.5079 14.6619C26.4656 12.4469 29.4888 12.4634 32.4727 14.6074C33.8177 15.5729 34.3796 17.7572 33.7296 19.5367C33.3513 20.5732 32.8586 21.5577 32.3266 22.4829C31.7291 23.5218 30.8412 23.969 29.8297 23.9903C29.2004 24.0045 28.5691 23.9927 27.9397 23.9927C27.9397 23.9927 27.9397 23.9951 27.9397 23.9974H27.9416ZM28.0577 20.4549C28.5242 20.4549 28.9943 20.4241 29.4589 20.4644C29.9122 20.5022 30.21 20.3011 30.4142 19.7828C30.5902 19.3356 30.8113 18.9143 31.0248 18.4931C31.2758 17.9962 31.1559 17.7193 30.7532 17.4566C28.8857 16.245 27.0425 16.271 25.1862 17.4945C24.8415 17.7217 24.7441 17.9678 24.9221 18.4032C25.4503 19.6882 25.986 20.94 27.4284 20.4644C27.625 20.4005 27.8461 20.4549 28.0577 20.4549Z" fill="#145388"/>
<path id="Vector_4" d="M47.4149 51.9962C43.5953 51.9962 39.7756 52.0002 35.9559 51.9902C35.5847 51.9902 35.1871 51.9622 34.8504 51.8281C34.256 51.5899 33.97 51.0755 34.0025 50.451C34.0349 49.7964 34.3859 49.308 35.037 49.1179C35.3677 49.0218 35.7348 49.0058 36.0837 49.0058C43.6967 48.9998 51.3117 49.0018 58.9246 49.0018C59.0768 49.0018 59.2289 48.9958 59.379 49.0058C60.3527 49.0618 61.014 49.6903 60.9998 50.537C60.9856 51.3997 60.3324 51.9902 59.3283 51.9942C55.8129 52.0042 52.2955 51.9982 48.7801 51.9982C48.3257 51.9982 47.8693 51.9982 47.4149 51.9982V51.9962Z" fill="#145388"/>
<path id="Vector_5" d="M47.4195 33.9945C43.5009 33.9945 39.5822 34.0004 35.6656 33.9905C34.4331 33.9865 33.6384 32.9464 34.1655 31.9641C34.3743 31.5776 34.8689 31.3126 35.2804 31.0695C35.471 30.9559 35.7731 31.0157 36.0265 31.0157C43.6854 31.0137 51.3463 31.0157 59.0052 31.0157C59.2079 31.0157 59.4127 31.0097 59.6113 31.0356C60.4709 31.1552 61.0547 31.8306 60.9959 32.6236C60.9371 33.4067 60.335 33.9785 59.4775 33.9885C57.8355 34.0084 56.1914 33.9964 54.5473 33.9964C52.1714 33.9964 49.7954 33.9964 47.4195 33.9964V33.9945Z" fill="#145388"/>
<path id="Vector_6" d="M47.4158 39.9978C43.5966 39.9978 39.7773 40.0018 35.9581 39.9898C35.5869 39.9898 35.1813 39.9598 34.8547 39.8097C34.2219 39.5216 33.9278 38.9754 34.015 38.2792C34.1002 37.617 34.6539 37.0968 35.3293 37.0168C35.5545 36.9908 35.7837 37.0028 36.0108 37.0028C43.6757 37.0028 51.3385 37.0028 59.0033 37.0028C59.1798 37.0028 59.3583 36.9968 59.5347 37.0088C60.3643 37.0648 60.9728 37.663 60.9991 38.4433C61.0255 39.2135 60.4495 39.8718 59.6321 39.9778C59.3826 40.0098 59.127 39.9978 58.8735 39.9978C55.0543 39.9978 51.235 39.9978 47.4158 39.9978Z" fill="#145388"/>
<path id="Vector_7" d="M47.5417 43.0026C51.3096 43.0026 55.0775 43.0026 58.8454 43.0026C59.1475 43.0026 59.4558 42.9946 59.7539 43.0387C60.4616 43.1428 60.9727 43.7315 60.999 44.4343C61.0234 45.0991 60.5874 45.7279 59.9303 45.8981C59.618 45.9782 59.2814 45.9962 58.9549 45.9962C51.3177 46.0022 43.6825 46.0002 36.0454 45.9962C35.7432 45.9962 35.435 45.9822 35.1429 45.9161C34.4433 45.7539 33.9728 45.1212 34.0012 44.4323C34.0316 43.7075 34.5792 43.0947 35.3295 43.0347C35.9825 42.9826 36.6436 43.0046 37.3007 43.0046C40.7137 43.0026 44.1287 43.0046 47.5417 43.0046V43.0026Z" fill="#145388"/>
<path id="Vector_8" d="M50.4272 20.0058C53.3265 20.0058 56.2258 20.0038 59.1272 20.0058C60.3104 20.0058 61.0162 20.5834 60.9997 21.5169C60.9833 22.4183 60.2795 22.994 59.154 22.996C53.3286 23 47.5032 22.996 41.6779 23C40.9536 23 40.2683 22.8081 40.0687 22.1085C39.937 21.6448 39.9905 20.9712 40.2642 20.6034C40.5194 20.2596 41.1717 20.0397 41.6532 20.0317C44.5772 19.9818 47.5032 20.0058 50.4293 20.0058H50.4272Z" fill="#145388"/>
<path id="Vector_9" d="M50.9723 62.9991C48.2974 62.9991 45.6247 63.0011 42.9499 62.9991C41.7326 62.9991 41.0244 62.4648 41.0006 61.5522C40.9767 60.6036 41.7088 60.0073 42.9455 60.0053C48.3213 59.9993 53.697 59.9973 59.0727 60.0053C60.4372 60.0073 61.2776 60.9178 60.9159 61.9505C60.6712 62.6449 60.1059 62.9931 59.1572 62.9951C56.4282 63.0011 53.7013 62.9971 50.9723 62.9971V62.9991Z" fill="#145388"/>
<path id="Vector_10" d="M33.4631 11.9997C32.6245 11.9835 31.994 11.3367 32 10.4998C32.0061 9.67513 32.6729 9 33.4812 9C34.3158 9 35.0332 9.73375 34.9988 10.5544C34.9645 11.3812 34.2895 12.0159 33.4651 11.9997H33.4631Z" fill="#145388"/>
<path id="Vector_11" d="M66.498 53C65.6487 53 65.0103 52.3746 65.0001 51.5347C64.99 50.7008 65.6305 50.0228 66.4473 50.0005C67.2844 49.9782 68.01 50.6907 67.9999 51.5245C67.9898 52.3483 67.3249 53.002 66.496 53H66.498Z" fill="#145388"/>
<path id="Vector_12" d="M24.9978 10.5327C24.9897 11.3674 24.3394 12 23.4933 12C22.6249 12 21.9704 11.3209 22.001 10.4458C22.0275 9.62922 22.7247 8.9764 23.5443 9.00065C24.372 9.02491 25.0101 9.69592 24.9999 10.5327H24.9978Z" fill="#145388"/>
<path id="Vector_13" d="M28.5547 8.00236C29.391 8.04538 30.0218 8.72154 29.9994 9.55136C29.975 10.414 29.275 11.0409 28.3879 10.9979C27.5495 10.9569 26.9594 10.2849 27.0022 9.41613C27.0449 8.56377 27.7103 7.95728 28.5568 8.00236H28.5547Z" fill="#145388"/>
<path id="Vector_14" d="M8.001 41.9255C8.06794 38.0464 11.2665 34.9203 15.0892 35.0015C19.0006 35.0846 22.0816 38.2829 21.9984 42.1747C21.9169 45.9509 18.7111 49.0517 14.9409 48.9993C11.0657 48.947 7.93587 45.7559 8.001 41.9255ZM10.7111 41.9056C10.6496 44.2642 12.5365 46.2327 14.9192 46.2959C17.2276 46.3573 19.2322 44.4466 19.2919 42.1278C19.3534 39.7566 17.4954 37.7935 15.1091 37.7068C12.7681 37.622 10.7726 39.5254 10.7111 41.9056Z" fill="#145388"/>
</g>
</svg>
