<svg width="30" height="30" viewBox="0 0 30 30" fill="none" xmlns="http://www.w3.org/2000/svg">
<g id="Icon">
<path id="Vector" d="M14.9361 29.9399C6.65891 29.9111 -0.0403571 23.1759 0.000183029 14.9252C0.0415028 6.64334 6.77351 -0.0434461 15.0258 0.000212577C23.2913 0.0446508 29.9625 6.75093 29.9422 14.9954C29.9219 23.2671 23.1931 29.9687 14.9361 29.9399ZM14.9665 27.4436C21.8155 27.4459 27.4272 21.8521 27.4435 15.0055C27.4599 8.14177 21.8545 2.50903 14.9954 2.49655C8.1355 2.48486 2.50354 8.09967 2.49808 14.9572C2.49262 21.8233 8.10276 27.4412 14.9665 27.4436Z" fill="#145388"/>
<path id="Vector_2" d="M13.3763 9.73227C13.462 9.77514 13.6476 9.83751 13.7996 9.94744C15.797 11.3921 17.7928 12.8406 19.7824 14.2962C20.3866 14.7374 20.3858 15.2457 19.784 15.6847C17.803 17.1301 15.8157 18.5669 13.8324 20.01C13.5533 20.2127 13.2625 20.3405 12.9288 20.1776C12.5811 20.0076 12.4961 19.6942 12.4961 19.3309C12.5 16.4362 12.4961 13.5407 12.5 10.646C12.5 10.0597 12.7955 9.71979 13.3755 9.73227H13.3763Z" fill="#145388"/>
</g>
</svg>
