<svg width="53" height="72" viewBox="0 0 53 72" fill="none" xmlns="http://www.w3.org/2000/svg">
<path d="M10.4 72C7.46667 72 5.33333 71.3333 4 70C2.73333 68.6 2.1 66.5667 2.1 63.9C2.1 62.0333 2.5 60.3667 3.3 58.9C4.16667 57.4333 5.26667 56 6.6 54.6L24.1 36.3C26.7 33.5 28.5333 31.1 29.6 29.1C30.7333 27.1 31.3 25.1 31.3 23.1C31.3 20.5667 30.4667 18.6667 28.8 17.4C27.1333 16.1333 24.7333 15.5 21.6 15.5C20 15.5 18.3 15.7333 16.5 16.2C14.7 16.6 12.7667 17.3333 10.7 18.4C8.9 19.2 7.26667 19.4333 5.8 19.1C4.4 18.7667 3.2 18.0333 2.2 16.9C1.26667 15.7667 0.666667 14.4667 0.4 13C0.2 11.5333 0.433334 10.1 1.1 8.7C1.76667 7.23333 2.96667 6.03333 4.7 5.1C7.76667 3.43333 10.9333 2.23333 14.2 1.5C17.5333 0.766664 20.8667 0.399998 24.2 0.399998C29.6667 0.399998 34.2333 1.2 37.9 2.8C41.6333 4.4 44.4667 6.73333 46.4 9.8C48.3333 12.8 49.3 16.5333 49.3 21C49.3 23.8 48.8667 26.5333 48 29.2C47.2 31.8667 45.8667 34.5333 44 37.2C42.2 39.8667 39.7667 42.7 36.7 45.7L20.5 61.7V57.1H45.2C47.6667 57.1 49.5333 57.7333 50.8 59C52.1333 60.2667 52.8 62.1 52.8 64.5C52.8 66.9 52.1333 68.7667 50.8 70.1C49.5333 71.3667 47.6667 72 45.2 72H10.4Z" fill="white" fill-opacity="0.3"/>
</svg>
