<svg width="87" height="79" viewBox="0 0 87 79" fill="none" xmlns="http://www.w3.org/2000/svg">
<g id="Icon">
<path id="Vector" d="M11.3799 21.3462C14.1289 18.5128 17.4432 16.4089 21.0971 14.8088C25.9066 12.7003 30.9487 11.5378 36.1663 11.091C40.0368 10.7605 43.9027 10.7651 47.7093 11.629C48.9995 11.9208 50.2714 12.3903 51.4681 12.9533C52.1519 13.277 52.7787 13.8742 53.2346 14.4919C53.8956 15.39 53.5902 16.0784 52.6101 16.63C50.3853 17.8814 48.1834 19.1716 45.9815 20.4618C45.6761 20.6418 45.423 20.9131 45.0059 21.255C47.6705 21.6812 50.0389 21.6676 52.0106 19.7734C52.1542 19.6366 52.2887 19.4337 52.4596 19.3904C52.9246 19.2696 53.5264 19.0098 53.8501 19.1944C54.217 19.4064 54.543 20.0446 54.5339 20.4914C54.4997 22.2101 53.9504 23.8262 52.8426 25.1346C49.7403 28.7976 45.9633 31.4736 41.254 32.6908C39.9228 33.035 38.5802 33.3336 37.2787 33.6436C37.616 35.237 38.0081 36.6092 38.1676 38.0065C38.2976 39.1484 38.293 40.3474 38.097 41.4757C37.6707 43.9329 35.8654 45.0863 33.4196 44.635C31.2656 44.2361 29.4557 43.126 27.7074 41.8883C27.4566 41.7105 27.2082 41.5304 26.921 41.3253C24.9424 43.6526 23.7435 46.3058 23.2876 49.2417C23.0733 50.6208 23.2352 52.0591 23.258 53.47C23.2648 53.9419 23.5383 54.1151 24.0444 54.1083C24.8353 54.0992 25.6377 54.1516 26.4195 54.2724C29.2506 54.7169 30.9145 56.3193 31.3864 59.1207C31.4867 59.7157 31.7306 59.9277 32.2503 60.0599C33.374 60.3448 34.4841 60.673 35.6261 60.9899C36.1937 59.5994 36.6974 58.2454 37.2878 56.9302C39.4122 52.1936 42.4598 48.2547 47.1098 45.7269C49.1522 44.6168 49.7608 44.8333 50.5449 47.0466C51.7211 50.3586 51.3541 53.5931 49.9659 56.7524C49.6582 57.4522 49.3026 58.1383 48.906 58.7925C47.4563 61.1791 47.3583 63.6477 48.5755 66.114C49.3892 67.7666 50.3717 69.3371 51.3199 70.919C52.2659 72.4987 53.0545 74.1284 53.0067 76.0226C52.9907 76.6951 52.9474 77.4063 52.7149 78.024C52.2864 79.1705 51.1535 79.3301 50.3785 78.3796C49.4758 77.2718 48.2358 76.825 46.932 76.4876C46.1069 76.2734 45.268 76.1184 44.4338 75.9451C41.6073 75.3639 38.9609 74.4977 37.616 71.6051C36.7544 71.8604 35.952 72.0473 35.1953 72.3505C34.9765 72.4371 34.8101 72.8428 34.7622 73.1278C34.3473 75.5827 33.023 77.3402 30.6706 78.1402C28.2476 78.9654 25.8793 78.7648 23.8346 77.0643C22.1638 75.6739 21.4048 73.725 20.917 71.6872C20.7073 70.8073 20.3449 70.3697 19.4604 70.005C17.6369 69.2528 15.9251 68.2384 14.0628 67.2765C13.9648 67.411 13.7368 67.7233 13.5066 68.031C12.2939 69.6494 10.8192 70.9623 8.98878 71.8445C8.06789 72.289 7.40914 72.134 6.97377 71.2632C5.6973 68.7148 5.03171 66.0228 5.64031 63.1849C5.85913 62.1683 6.4723 61.236 6.8598 60.3653C5.95259 58.4711 4.85619 56.5723 4.11538 54.5414C2.60412 50.3997 2.24397 46.0756 2.51295 41.6877C2.53802 41.2797 2.44912 40.8466 2.32375 40.4523C0.805659 35.6678 -0.224639 30.7944 0.0420534 25.7227C0.0739652 25.13 0.17198 24.5374 0.267716 23.9493C1.01765 19.2445 5.65171 18.4673 8.56025 19.7232C9.51305 20.1335 10.3724 20.7581 11.3799 21.3462ZM50.8458 23.5572C48.6279 24.1567 46.5924 24.0929 44.5569 23.7829C42.6877 23.4979 42.6923 23.4751 41.9834 25.2736C41.9104 25.4582 41.8512 25.6474 41.7805 25.8343C41.4386 26.721 40.846 27.0493 40.0687 26.7803C39.3598 26.5364 39.0087 25.8708 39.3712 25.0297C39.8727 23.8649 40.4083 22.6796 41.1491 21.6607C42.9385 19.1944 45.4322 17.5395 48.0512 16.0647C48.5914 15.7616 49.1362 15.4698 49.7722 15.1233C49.3847 14.9456 49.1089 14.8088 48.8239 14.6903C46.1798 13.587 43.4035 13.236 40.5656 13.2611C35.193 13.3044 30.0506 14.5717 24.9584 16.1628C18.3071 18.2393 13.0598 22.1257 9.4401 28.0978C5.64715 34.3548 4.30685 41.1612 5.22774 48.3938C5.67678 51.9269 6.81649 55.2434 8.84973 58.2181C9.16429 58.6785 9.43782 58.8335 9.9393 58.5258C11.3434 57.6687 12.7772 56.8618 14.1608 55.9729C15.0817 55.3825 15.8772 55.5284 16.292 56.5427C16.4812 57.0054 16.5815 57.5251 16.6157 58.0266C16.7593 60.11 16.1986 62.0771 15.5831 64.0352C15.5011 64.295 15.4441 64.7463 15.5831 64.8672C16.9371 66.0365 18.4279 66.9893 20.2149 67.6116C20.2149 67.2309 20.199 66.9483 20.2172 66.6702C20.2901 65.6216 21.2657 65.0769 22.1798 65.5829C22.5764 65.8017 22.9434 66.0752 23.3286 66.3169C25.7038 67.8008 28.1861 69.0385 30.967 69.5628C33.4037 70.0232 35.7401 69.7314 37.8622 68.4094C39.4304 67.4338 39.3598 65.5624 37.7756 64.6005C37.4132 64.3816 37.0234 64.1879 36.6222 64.0602C35.0813 63.5679 33.5176 63.1462 31.9859 62.6219C29.923 61.9153 27.8054 61.2999 25.8497 60.3562C22.8499 58.9065 21.0218 56.4356 20.591 53.0734C20.3243 50.99 20.5637 48.934 21.1586 46.919C22.761 41.4757 26.2166 37.4685 30.8758 34.3959C31.7237 33.8374 32.5853 33.2972 33.5176 32.7022C33.0617 32.5313 32.6948 32.4059 32.3369 32.2578C30.1851 31.3665 28.6511 29.8552 28.0789 27.5827C27.1694 23.9652 28.0698 20.7193 30.429 17.8746C30.8006 17.4278 31.3111 17.0631 31.8195 16.7714C32.387 16.4454 32.9341 16.6506 33.3216 17.1611C33.7068 17.6717 33.7251 18.212 33.3034 18.7226C33.178 18.8753 33.023 19.0052 32.8748 19.1374C31.4046 20.4367 30.5339 22.0687 30.3287 24.0063C30.1213 25.9688 30.2786 27.9588 32.1089 29.1076C33.2737 29.837 34.6984 30.3202 36.0637 30.5231C39.451 31.0246 42.5054 29.8621 45.382 28.1776C47.4061 26.9946 49.2206 25.5517 50.8367 23.5572H50.8458ZM50.4013 74.7598C50.1232 74.1604 49.8861 73.5016 49.5328 72.9112C48.6689 71.4775 47.6979 70.1075 46.8682 68.6556C44.9193 65.2433 44.6663 61.7535 46.4488 58.1588C47.1394 56.7661 47.748 55.3187 48.2495 53.8462C48.8855 51.9748 48.833 50.0646 48.1789 48.0861C42.7196 51.2225 40.0459 56.2532 38.1312 61.8583C41.6871 63.3354 42.7949 67.705 39.8658 70.3241C40.6089 72.1271 42.1863 72.7836 43.9095 73.2098C46.0202 73.7318 48.1401 74.2196 50.4059 74.7576L50.4013 74.7598ZM9.57687 23.3931C8.20694 22.1348 6.76634 21.4442 4.95193 21.8932C3.40648 22.2739 2.87537 23.4888 2.65655 24.861C2.10493 28.3098 2.82295 31.6514 3.60707 35.009C4.8881 30.8012 6.75267 26.9194 9.57915 23.3954L9.57687 23.3931ZM23.1257 69.1593C23.0391 69.2072 22.9502 69.255 22.8636 69.3029C23.3377 70.707 23.6842 72.1727 24.311 73.5062C25.3687 75.7468 27.2378 76.4762 29.6267 75.797C31.3408 75.3092 32.305 73.921 32.1842 72.0496C28.9656 71.7601 25.9659 70.7093 23.1235 69.1616L23.1257 69.1593ZM14.0901 59.2689C12.572 60.0348 11.1633 60.6958 9.80937 61.4571C9.33753 61.7216 8.92268 62.182 8.62179 62.6424C7.59833 64.2221 7.75333 67.3905 8.93407 69.0339C12.1253 66.5722 13.5522 63.2283 14.0878 59.2666L14.0901 59.2689ZM28.7012 39.21C28.7149 39.3308 28.7286 39.4516 28.7422 39.5701C29.809 40.2038 30.8439 40.8968 31.9494 41.4507C32.6469 41.7994 33.4356 42.0023 34.206 42.155C35.0175 42.3168 35.5349 41.8587 35.6489 41.0677C35.9475 38.9729 35.4984 36.9739 34.8009 34.7583C32.6788 36.306 30.6911 37.7557 28.7035 39.2054L28.7012 39.21ZM25.0587 56.6977C26.1802 57.7257 27.2902 58.3275 28.6465 58.8449C28.1108 57.4089 27.2538 56.9097 25.0587 56.6977Z" fill="#145388"/>
<path id="Vector_2" d="M19.8846 38.259C17.8719 38.2659 16.1395 37.6686 14.6875 36.3466C13.8122 35.5488 13.0942 34.6439 12.8321 33.454C12.5358 32.1069 13.0144 31.0082 14.3228 30.5933C15.36 30.2651 16.4997 30.0668 17.5801 30.1192C21.4118 30.3061 25.2344 30.623 29.0616 30.901C29.7294 30.9489 30.183 31.2954 30.3039 31.9792C30.4247 32.663 30.0714 33.0186 29.5015 33.397C25.9502 35.7562 22.6359 38.3798 20.5274 42.2047C18.5466 45.7948 18.6515 49.5535 19.7524 53.3693C19.8618 53.75 19.9986 54.1261 20.1057 54.509C20.3428 55.357 20.0533 55.9564 19.2965 56.2095C18.5945 56.4442 18.0064 56.157 17.6895 55.3547C16.7641 53.0205 16.4518 50.5724 16.5065 48.0833C16.5658 45.4438 17.0171 42.8748 18.3323 40.5384C18.7609 39.7794 19.3125 39.0887 19.8846 38.2613V38.259ZM25.1546 33.1486C21.5212 32.4784 16.5111 32.4214 15.3235 33.0711C16.1441 34.4205 17.2359 35.4052 18.8338 35.6217C21.3594 35.9614 23.632 35.5192 25.1546 33.1486Z" fill="#145388"/>
<path id="Vector_3" d="M40.4699 16.3452C41.3862 16.3452 41.9606 16.8421 41.9446 17.6217C41.931 18.3671 41.3338 18.921 40.5474 18.921C39.6675 18.921 39.0657 18.3876 39.0771 17.6194C39.0885 16.8467 39.6379 16.3429 40.4676 16.3452H40.4699Z" fill="#145388"/>
<path id="Vector_4" d="M81.7433 23.9269V6.717C81.6958 6.67077 81.6484 6.62614 81.6009 6.57991C81.2892 6.94496 80.9507 7.29088 80.6802 7.68462C80.5979 7.80418 80.6691 8.06083 80.7165 8.24096C82.2242 13.9208 78.8656 19.6834 73.2066 21.1022C71.7923 21.4561 70.359 21.488 68.8355 21.2393C68.8719 21.5725 68.9083 21.8562 68.9352 22.14C69.6186 29.1668 63.3553 34.7892 56.4988 33.2827C56.0305 33.1791 55.7205 33.227 55.4167 33.5968C55.2443 33.8072 54.9864 33.9459 54.7602 34.1212C57.3199 36.4486 57.6363 37.7112 56.4957 40.5981C57.3848 41.4924 58.2612 42.3755 59.2816 43.4005C59.6914 42.9366 60.128 42.4074 60.601 41.9132C61.1294 41.3617 61.6626 41.3154 62.1024 41.7363C62.558 42.1731 62.5121 42.7342 61.9568 43.2969C60.5362 44.7348 59.1139 46.1695 57.6853 47.5994C57.1712 48.1143 56.5922 48.1637 56.1761 47.7476C55.7569 47.3284 55.8027 46.7465 56.3106 46.2301C56.7804 45.7534 57.2629 45.2879 57.7027 44.8528C56.763 43.9075 55.8739 43.0148 54.9706 42.1061C52.6798 43.3623 50.408 42.6625 48.894 40.7671C48.758 40.9599 48.6551 41.1624 48.5017 41.317C46.5241 43.3192 44.5482 45.3214 42.5564 47.3077C40.9791 48.8795 38.6693 48.897 37.149 47.373C35.6255 45.8459 35.6318 43.5233 37.2028 41.9308C40.3194 38.7712 43.4487 35.6229 46.5906 32.4873C46.8215 32.2561 47.1965 32.1764 47.4955 32.0075C47.7265 31.8767 47.9717 31.7508 48.1568 31.5675C55.8027 24.0274 63.4408 16.4825 71.082 8.93599C73.7888 6.26268 76.4941 3.58937 79.2025 0.919243C80.1802 -0.043596 81.3066 -0.252424 82.4473 0.303919C83.5737 0.852291 84.3774 2.04309 84.1116 3.26258C83.3221 6.88438 83.8537 10.5381 83.7208 14.1726C83.6085 17.2317 83.6876 20.2972 83.667 23.3594C83.6639 23.7548 83.7351 23.9748 84.1527 24.1565C85.6572 24.8053 86.4308 26.0041 86.4815 27.6492C86.5115 28.663 86.4878 29.6769 86.4846 30.6923C86.4783 32.6037 85.6541 33.8359 83.9028 34.5628C83.83 34.5931 83.762 34.6345 83.6449 34.6935C83.6449 36.4215 83.6686 38.1703 83.6385 39.9174C83.6022 42.0168 81.5566 43.434 79.598 42.7485C78.4479 42.3468 77.6411 41.2931 77.581 40.0609C77.5477 39.3658 77.5572 38.6692 77.5746 37.9742C77.5905 37.3605 77.9717 36.9603 78.5049 36.946C79.0538 36.9316 79.4778 37.3605 79.4936 37.9838C79.5095 38.58 79.4857 39.1777 79.5015 39.7739C79.5189 40.4546 79.9856 40.9376 80.5979 40.9424C81.1817 40.9456 81.6895 40.4945 81.7021 39.8425C81.737 38.2117 81.7306 36.5809 81.7132 34.9502C81.7132 34.8099 81.5439 34.6011 81.4047 34.5421C79.6708 33.804 78.8798 32.4729 78.9067 30.6062C78.9178 29.8315 78.9099 29.0552 78.9114 28.2789C78.9146 25.9244 79.5696 24.9057 81.7433 23.9254V23.9269ZM49.106 33.3784C49.3923 33.6143 49.6565 33.7721 49.8432 33.9969C50.1217 34.3301 50.359 34.3333 50.7434 34.1452C51.1785 33.9331 51.6863 33.8789 52.1482 33.7132C52.4631 33.6 52.8159 33.4756 53.0405 33.2461C57.9021 28.2725 62.7494 23.2845 67.5983 18.2982C71.5091 14.2778 75.4199 10.2607 79.3291 6.24036C80.1992 5.34607 81.0772 4.45656 81.93 3.54473C82.3634 3.08085 82.2796 2.54682 81.7702 2.1754C81.3098 1.83904 81.0013 1.88846 80.484 2.39857C72.6877 10.0965 64.8915 17.796 57.0937 25.494C54.4722 28.0828 51.8492 30.67 49.106 33.3784ZM47.4085 34.4433C47.3768 34.4672 47.3246 34.4975 47.2835 34.5389C44.3662 37.4768 41.4442 40.41 38.5349 43.3575C37.7739 44.1274 37.7834 45.2337 38.5111 45.9734C39.2436 46.7179 40.3384 46.7513 41.1073 45.9878C43.3965 43.7114 45.6667 41.4143 47.9369 39.1172C48.0508 39.0024 48.1773 38.8127 48.1647 38.6708C48.0761 37.6442 48.3292 36.7037 48.8212 35.8046C48.353 35.3551 47.8989 34.9167 47.4069 34.4433H47.4085ZM78.9478 9.43017C75.7189 12.7491 72.5501 16.0058 69.337 19.3088C75.3408 20.2972 80.0837 14.8661 78.9478 9.43017ZM66.8975 21.8132C63.7429 25.0572 60.6564 28.2294 57.5113 31.4623C63.0563 32.3135 67.929 27.2889 66.8975 21.8132ZM50.1027 38.2197C50.1027 39.6353 51.2054 40.7559 52.6102 40.7734C54.0182 40.791 55.1921 39.6257 55.1905 38.2149C55.1905 36.777 54.0229 35.6516 52.5485 35.6627C51.2117 35.6739 50.1011 36.8344 50.1027 38.2197ZM80.8921 28.3219H84.515C84.6242 27.3718 84.4644 26.6034 83.686 26.1013C83.0722 25.7044 82.4172 25.6821 81.7812 26.063C80.957 26.5572 80.783 27.3367 80.8921 28.3219ZM80.927 30.3257C80.7308 31.3108 81.0203 32.0808 81.7338 32.5287C82.3777 32.9336 83.2304 32.881 83.8331 32.3996C84.4454 31.9102 84.6779 31.1164 84.4343 30.3257H80.9285H80.927Z" fill="#145388"/>
</g>
</svg>
