<svg width="70" height="78" viewBox="0 0 70 78" fill="none" xmlns="http://www.w3.org/2000/svg">
<g id="Icon">
<path id="Vector" d="M50.7139 37.0167C50.1097 39.0573 49.7292 41.0523 48.9271 42.8585C48.1357 44.6403 46.9196 46.2317 45.7994 48.0515C46.4858 49.4267 47.2742 51.0425 48.1067 52.637C48.227 52.8669 48.5314 53.0588 48.7901 53.1471C50.9939 53.904 53.2206 54.5954 55.4138 55.3767C61.7955 57.6503 65.9748 62.1718 68.4678 68.3624C69.4617 70.8325 69.9411 73.4199 69.999 76.0834C70.0279 77.4114 69.4571 77.9977 68.1163 77.9977C46.046 78.0008 23.9757 78.0008 1.90537 77.9977C0.559933 77.9977 -0.068647 77.4099 0.00593024 76.1063C0.524927 67.109 4.50035 60.2377 12.681 56.1868C15.2029 54.9381 17.9988 54.233 20.6912 53.3482C21.4522 53.0984 21.9286 52.7268 22.2528 51.9897C22.8037 50.7379 23.4399 49.5227 24.0822 48.315C24.2998 47.9069 24.2055 47.6815 23.9407 47.3312C23.0868 46.2027 22.236 45.0606 21.5161 43.8453C21.1828 43.2818 20.8815 43.0702 20.2392 43.093C18.1495 43.1676 16.4708 42.359 15.6595 40.3762C15.2897 39.4746 15.3034 38.4025 15.2273 37.4019C15.1923 36.9481 15.0964 36.7075 14.6626 36.4836C13.1224 35.6902 12.2077 34.382 12.1955 32.6505C12.1666 28.691 12.0098 24.7117 12.334 20.775C12.9413 13.3844 16.5438 7.63547 22.7444 3.59067C27.1947 0.694123 32.132 -0.429772 37.4026 0.145881C43.6717 0.829661 48.8251 3.67595 52.7914 8.57814C56.2767 12.8849 57.8611 17.8754 57.8353 23.3989C57.8231 26.2681 57.8353 29.1372 57.8322 32.0079C57.8276 35.1344 55.9358 37.0121 52.7944 37.0182C52.0608 37.0197 51.3273 37.0182 50.7139 37.0182V37.0167ZM24.6088 43.1509C25.7442 45.0712 27.1931 46.5667 29.05 47.619C36.115 51.6242 44.6518 47.9069 46.8146 39.7213C47.5862 36.7974 47.8252 33.7287 48.227 30.7149C48.437 29.1387 48.472 27.5397 48.5846 25.9589C46.9333 25.6528 45.3519 25.432 43.8071 25.0589C39.2625 23.9609 35.2536 21.8227 31.7789 18.6825C31.5643 18.4891 31.2005 18.3338 30.9235 18.3597C28.9084 18.5394 27.1003 19.2719 25.4824 20.4948C23.8296 21.7436 22.7626 23.4888 21.542 25.1031C21.4248 25.2584 21.4172 25.5386 21.4385 25.7533C21.7673 29.1859 22.0808 32.6216 22.4628 36.0481C22.612 37.3943 22.9179 38.7223 23.1508 40.0381H27.6406C28.4366 38.2152 29.7836 37.1431 31.7774 37.0334C32.8899 36.9725 34.0101 36.9816 35.1242 37.0304C37.6614 37.1415 39.5851 39.1548 39.5669 41.6249C39.5486 44.0951 37.5959 46.0596 35.0527 46.1494C34.2673 46.1769 33.4789 46.1266 32.6951 46.1632C30.3421 46.2743 28.6177 45.3499 27.6528 43.1493H24.6134L24.6088 43.1509ZM3.15644 74.9002H32.2324C30.2539 71.8376 28.1931 68.9441 26.4519 65.8679C24.7001 62.7733 23.2664 59.4976 21.6592 56.231C19.7704 56.8584 17.7355 57.5407 15.6976 58.2108C8.0968 60.7098 3.54607 68.2893 3.15644 74.9002ZM48.1889 56.1457C48.0809 56.3315 48.0322 56.3924 48.0078 56.461C45.982 61.9982 43.1435 67.0938 39.6902 71.8605C39.0007 72.8123 38.43 73.8494 37.7725 74.9002H66.8408C66.678 69.704 63.354 63.7632 58.9676 60.591C55.7212 58.2427 51.8249 57.5696 48.1889 56.1457ZM48.6349 22.7898C49.1995 17.3089 45.9166 11.9879 40.8925 10.0051C38.503 9.06242 36.0328 9.07156 33.5535 9.14771C28.7227 9.29847 25.1126 11.528 22.7535 15.7449C22.026 17.0439 21.5648 18.448 21.437 19.9892C21.5648 19.9465 21.6227 19.945 21.6531 19.9146C21.7627 19.8095 21.8632 19.6953 21.9682 19.5856C24.4703 16.9495 27.5508 15.5515 31.1594 15.2454C32.0924 15.1662 32.8123 15.4312 33.4881 16.0753C37.7222 20.1125 42.8209 22.2217 48.6364 22.7883L48.6349 22.7898ZM18.2347 21.2867C18.2591 20.9806 18.2743 20.7293 18.3017 20.4796C19.011 13.8824 22.4202 9.33959 28.6253 6.95474C31.4973 5.85064 34.523 5.88567 37.4955 6.16588C43.8726 6.76742 48.3396 10.133 50.7032 16.0982C51.3455 17.7185 51.551 19.511 51.9665 21.2684H54.6711C54.0136 11.3498 45.4356 2.76069 34.4758 3.06527C23.1462 3.38051 15.7128 12.6656 15.3643 21.2852H18.2347V21.2867ZM34.8457 59.3133C33.1441 61.1149 31.5186 62.8541 29.8657 64.5658C29.5203 64.9237 29.4929 65.1734 29.7714 65.5922C31.4684 68.1431 33.1334 70.7137 34.8137 73.2752C34.8624 73.3498 34.9477 73.3986 35.0405 73.4823C35.8882 72.165 36.6995 70.8843 37.532 69.6172C38.4345 68.2421 39.369 66.8852 40.2594 65.5024C40.3766 65.3212 40.4298 64.9145 40.3203 64.8018C38.535 62.9744 36.7192 61.1789 34.8472 59.3133H34.8457ZM37.0389 56.994C38.7754 58.7362 40.4527 60.4174 42.1345 62.1033C42.1512 62.085 42.2243 62.0393 42.2517 61.9754C43.3034 59.5387 44.3535 57.1036 45.3915 54.6609C45.4539 54.5147 45.4859 54.2954 45.422 54.1644C44.7903 52.8608 44.1359 51.5679 43.454 50.2019C41.2502 52.5349 39.1316 54.7782 37.0389 56.994ZM32.5673 57.2879C30.3969 55.1193 28.292 53.0162 26.1902 50.9176C25.9269 51.4369 25.6849 52.0918 25.2983 52.6446C24.4871 53.802 24.5175 54.9122 25.1141 56.164C26.0593 58.1422 26.8872 60.1783 27.8156 62.3074C29.5081 60.5195 31.0712 58.8687 32.5673 57.2879ZM15.2349 24.4086C15.2349 27.1544 15.206 29.8636 15.2532 32.5713C15.2669 33.3343 15.798 33.8536 16.5682 33.9221C17.3657 33.9952 18.1754 33.9389 18.9927 33.9389C18.7385 30.7317 18.4904 27.5823 18.2393 24.4086H15.2364H15.2349ZM54.7791 24.4178H51.761C51.5099 27.6113 51.2618 30.7591 51.0092 33.9663C51.2329 33.9663 51.4064 33.9663 51.5799 33.9663C52.137 33.9648 52.697 33.9907 53.2526 33.9541C54.1444 33.8947 54.7532 33.3373 54.7654 32.451C54.8004 29.7905 54.7776 27.13 54.7776 24.4178H54.7791ZM33.447 43.0976C33.9781 43.0976 34.5139 43.1326 35.042 43.09C35.8898 43.0214 36.4894 42.394 36.5077 41.6188C36.5275 40.8193 35.908 40.1279 35.0283 40.0853C33.9918 40.0366 32.9508 40.0381 31.9143 40.0853C31.0651 40.1249 30.4669 40.7767 30.4487 41.5534C30.4289 42.3529 31.0483 43.0199 31.928 43.09C32.4318 43.1311 32.9402 43.0976 33.447 43.096V43.0976ZM32.0757 52.0507C32.9965 52.969 33.9081 53.8781 34.8731 54.8406C35.6706 53.9954 36.5107 53.106 37.3083 52.2608C36.4148 52.2608 35.5564 52.2882 34.7011 52.2532C33.8183 52.2167 32.9371 52.1192 32.0757 52.0507ZM18.3245 37.0395C18.0704 38.7984 18.3656 40.1127 20.017 39.9832C19.8389 39.001 19.6624 38.0248 19.4843 37.0395H18.3245Z" fill="white"/>
<path id="Vector_2" d="M61.9985 69.3123C61.963 70.091 61.6701 70.6086 61.0242 70.8698C60.3428 71.1452 59.74 70.9821 59.3083 70.3965C58.9383 69.8963 58.7102 69.2791 58.314 68.8042C57.4507 67.7675 56.5288 66.7814 55.6146 65.789C55.1845 65.3221 54.8114 64.7729 55.1043 64.1746C55.3325 63.7092 55.7826 63.2439 56.2436 63.0508C56.5812 62.9099 57.1901 63.0808 57.5154 63.3341C59.3623 64.7697 60.7929 66.5836 61.8335 68.7124C61.9337 68.9182 61.9615 69.1635 62 69.3107L61.9985 69.3123Z" fill="white"/>
<path id="Vector_3" d="M51.953 61.0003C52.9959 60.9862 53.9542 61.4371 53.9985 61.9644C54.0428 62.5028 53.0805 63.001 51.9953 63C50.9484 62.999 50.0143 62.535 50.0002 62.0107C49.9861 61.4874 50.9001 61.0144 51.953 61.0003Z" fill="white"/>
</g>
</svg>
