<svg width="59" height="26" viewBox="0 0 59 26" fill="none" xmlns="http://www.w3.org/2000/svg">
<path d="M45.5744 0.308594C46.0886 0.308594 46.6034 0.308594 47.1176 0.308594C47.5383 0.36336 47.9616 0.402018 48.3791 0.476113C51.5787 1.04439 54.1978 2.60361 56.1597 5.18985C58.3645 8.09566 59.1274 11.3803 58.4657 14.9665C57.9341 17.8446 56.5115 20.2369 54.2668 22.1067C51.4853 24.423 48.2676 25.3456 44.6795 24.8843C42.226 24.5692 40.0631 23.5641 38.2081 21.9231C36.0523 20.0159 34.707 17.6423 34.1922 14.8067C34.109 14.3499 34.0627 13.8867 33.9995 13.4266C33.9995 12.9125 33.9995 12.3977 33.9995 11.8835C34.0536 11.4712 34.0942 11.0562 34.1638 10.6458C34.6 8.07762 35.7275 5.85541 37.5567 4.0011C39.4026 2.12875 41.6255 0.954187 44.2195 0.498019C44.6686 0.419414 45.1228 0.371091 45.5744 0.308594ZM46.345 23.4578C52.2926 23.4585 57.1371 18.6197 57.1487 12.6676C57.1603 6.71491 52.3042 1.85299 46.3463 1.85235C40.3987 1.8517 35.5542 6.68979 35.5426 12.6419C35.531 18.5933 40.3891 23.4572 46.345 23.4585V23.4578Z" fill="white"/>
<path d="M43.6061 14.2339C43.2111 14.4033 42.8033 14.5483 42.4244 14.748C41.9573 14.9948 41.5643 14.9503 41.1261 14.6507C40.2583 14.0573 39.3601 13.5077 38.4703 12.9478C38.172 12.7597 37.9987 12.5155 38.038 12.1534C38.076 11.801 38.2938 11.6083 38.6134 11.484C42.9018 9.80813 47.1884 8.12843 51.4737 6.44551C51.7874 6.32244 52.0825 6.29409 52.3577 6.51767C52.6302 6.73866 52.6843 7.02474 52.6225 7.36235C52.1412 9.98274 51.667 12.6051 51.1908 15.2261C51.0085 16.2286 50.8249 17.2312 50.6425 18.2343C50.5265 18.8709 50.0246 19.1273 49.4441 18.8393C48.3591 18.3007 47.2747 17.7601 46.1942 17.2118C46.0486 17.1377 45.9629 17.141 45.8444 17.2627C45.3863 17.7363 44.9127 18.195 44.4501 18.6641C44.1898 18.9283 43.8941 19.0481 43.5358 18.8986C43.1795 18.7498 43.0545 18.4618 43.0584 18.0862C43.0668 17.1944 43.0752 16.3021 43.0545 15.4104C43.0455 15.0173 43.1441 14.699 43.4559 14.4574C43.5242 14.4046 43.6041 14.3659 43.6782 14.3215L43.6061 14.2339ZM50.8751 8.34427C47.4068 9.70182 43.9785 11.0439 40.4941 12.4079C40.9696 12.7107 41.3974 12.9878 41.8329 13.2519C41.8832 13.2822 41.9863 13.2519 42.0539 13.2236C42.4315 13.0657 42.8052 12.8995 43.1802 12.7365C44.3721 12.2191 45.5648 11.7037 46.7548 11.1824C47.0866 11.0375 47.3933 11.0323 47.6697 11.2913C48.0183 11.618 48.0144 12.0754 47.6517 12.4401C46.6891 13.4085 45.7213 14.3724 44.7574 15.3395C44.6982 15.3994 44.6196 15.4741 44.6144 15.5476C44.5964 15.7828 44.6073 16.0205 44.6073 16.2525C44.6434 16.2563 44.6544 16.2608 44.6576 16.2576C44.865 16.0566 45.0693 15.8524 45.2793 15.6539C45.5641 15.3846 45.8521 15.3369 46.2071 15.4999C46.3895 15.5837 46.5673 15.6771 46.7464 15.7667C47.5853 16.1855 48.4248 16.6043 49.2953 17.0385C49.8223 14.1398 50.3455 11.2636 50.8758 8.34363L50.8751 8.34427Z" fill="white"/>
<path d="M0 13.5842C0 13.0945 0 12.6047 0 12.115C0.0147223 12.0369 0.0372965 11.9589 0.0426947 11.8804C0.118269 10.7502 0.354807 9.65289 0.740532 8.59043C2.97832 2.42571 9.55723 -0.974648 15.8819 0.758658C22.1585 2.4792 26.1012 8.8201 24.8625 15.2012C24.3782 17.6972 23.247 19.8559 21.4592 21.6599C19.5851 23.5512 17.3335 24.7428 14.7027 25.1957C14.2301 25.2772 13.7516 25.3253 13.2761 25.3886H11.8063C11.4755 25.3488 11.1438 25.3155 10.8135 25.2688C8.34068 24.9194 6.15441 23.9321 4.28272 22.2792C2.07879 20.3334 0.6998 17.9116 0.192862 15.0074C0.110417 14.5363 0.0633059 14.0588 0 13.5842ZM12.5395 1.7799C6.43708 1.78137 1.46291 6.75947 1.46978 12.8579C1.47665 18.9525 6.43512 23.911 12.5311 23.9198C18.6301 23.9286 23.6097 18.9564 23.6131 12.854C23.6165 6.75407 18.6409 1.77842 12.5395 1.7799Z" fill="white"/>
<path d="M10.9397 10.9818C12.1013 12.1439 13.2364 13.2794 14.3994 14.443C14.5903 14.2477 14.7969 14.0322 15.0079 13.8217C15.9693 12.8638 17.2084 12.8633 18.1723 13.8197C18.5894 14.2339 19.0065 14.6481 19.4183 15.0672C20.2982 15.9628 20.3124 17.2083 19.4467 18.1113C19.0399 18.5353 18.6232 18.95 18.1988 19.3568C17.3223 20.197 16.2451 20.3879 15.0894 20.272C13.677 20.1307 12.4139 19.5619 11.2336 18.8165C9.19901 17.5317 7.55011 15.8593 6.33601 13.7731C5.7113 12.6994 5.24951 11.5613 5.1175 10.3163C4.98401 9.05708 5.24558 7.91561 6.2094 7.00822C6.56568 6.67255 6.89939 6.31333 7.25027 5.97128C8.12232 5.12132 9.28783 5.06439 10.1982 5.8697C10.7409 6.35014 11.2582 6.86689 11.7352 7.41211C12.5199 8.30919 12.4595 9.46292 11.6267 10.3203C11.4005 10.5529 11.159 10.7712 10.9392 10.9818H10.9397ZM15.8908 18.8371C16.3222 18.8553 16.9106 18.6202 17.3905 18.0976C17.7046 17.755 18.0476 17.439 18.3739 17.1077C18.6978 16.7784 18.6978 16.43 18.3739 16.1022C17.9607 15.6846 17.5446 15.2694 17.1275 14.8557C16.752 14.4832 16.4257 14.4837 16.0508 14.8562C15.6861 15.2184 15.325 15.5845 14.9598 15.9466C14.5692 16.3338 14.1658 16.3417 13.7826 15.9594C12.3319 14.5132 10.8832 13.0645 9.43604 11.6139C9.04933 11.2262 9.05326 10.8277 9.43947 10.437C9.81833 10.0543 10.2031 9.67689 10.5809 9.29313C10.8926 8.9766 10.8906 8.62375 10.5765 8.30526C10.1579 7.88126 9.73588 7.46069 9.31286 7.0411C8.95217 6.68384 8.61846 6.68679 8.25187 7.04994C7.89805 7.40033 7.55306 7.75955 7.19383 8.10405C6.76787 8.51284 6.58531 9.01831 6.56568 9.59493C6.53084 10.6108 6.83363 11.5486 7.28953 12.4319C8.66115 15.0883 10.7046 17.0596 13.4248 18.3091C14.1158 18.6266 14.8499 18.8243 15.8918 18.8371H15.8908Z" fill="white"/>
</svg>
