<svg width="70" height="78" viewBox="0 0 70 78" fill="none" xmlns="http://www.w3.org/2000/svg">
<g id="Icon">
<path id="Vector" d="M50.714 37.0167C50.1098 39.0573 49.7293 41.0523 48.9272 42.8585C48.1358 44.6403 46.9197 46.2317 45.7995 48.0515C46.4859 49.4267 47.2743 51.0425 48.1069 52.637C48.2271 52.8669 48.5315 53.0588 48.7902 53.1471C50.9941 53.904 53.2207 54.5954 55.4139 55.3767C61.7956 57.6503 65.975 62.1718 68.468 68.3624C69.4618 70.8325 69.9412 73.4199 69.9991 76.0834C70.028 77.4114 69.4573 77.9977 68.1164 77.9977C46.0461 78.0008 23.9758 78.0008 1.90549 77.9977C0.560055 77.9977 -0.0685249 77.4099 0.00605231 76.1063C0.525049 67.109 4.50047 60.2377 12.6811 56.1868C15.2031 54.9381 17.999 54.233 20.6913 53.3482C21.4523 53.0984 21.9287 52.7268 22.2529 51.9897C22.8039 50.7379 23.44 49.5227 24.0823 48.315C24.3 47.9069 24.2056 47.6815 23.9408 47.3312C23.0869 46.2027 22.2362 45.0606 21.5163 43.8453C21.1829 43.2818 20.8816 43.0702 20.2393 43.093C18.1496 43.1676 16.4709 42.359 15.6597 40.3762C15.2898 39.4746 15.3035 38.4025 15.2274 37.4019C15.1924 36.9481 15.0965 36.7075 14.6628 36.4836C13.1225 35.6902 12.2078 34.382 12.1956 32.6505C12.1667 28.691 12.0099 24.7117 12.3341 20.775C12.9414 13.3844 16.5439 7.63547 22.7445 3.59067C27.1948 0.694123 32.1321 -0.429772 37.4027 0.145881C43.6718 0.829661 48.8252 3.67595 52.7915 8.57814C56.2769 12.8849 57.8613 17.8754 57.8354 23.3989C57.8232 26.2681 57.8354 29.1372 57.8323 32.0079C57.8278 35.1344 55.9359 37.0121 52.7946 37.0182C52.061 37.0197 51.3274 37.0182 50.714 37.0182V37.0167ZM24.6089 43.1509C25.7443 45.0712 27.1933 46.5667 29.0501 47.619C36.1151 51.6242 44.6519 47.9069 46.8147 39.7213C47.5863 36.7974 47.8253 33.7287 48.2271 30.7149C48.4371 29.1387 48.4721 27.5397 48.5848 25.9589C46.9334 25.6528 45.3521 25.432 43.8073 25.0589C39.2626 23.9609 35.2537 21.8227 31.779 18.6825C31.5644 18.4891 31.2006 18.3338 30.9236 18.3597C28.9085 18.5394 27.1004 19.2719 25.4826 20.4948C23.8297 21.7436 22.7628 23.4888 21.5421 25.1031C21.4249 25.2584 21.4173 25.5386 21.4386 25.7533C21.7674 29.1859 22.0809 32.6216 22.4629 36.0481C22.6121 37.3943 22.918 38.7223 23.1509 40.0381H27.6407C28.4367 38.2152 29.7837 37.1431 31.7775 37.0334C32.8901 36.9725 34.0102 36.9816 35.1243 37.0304C37.6615 37.1415 39.5853 39.1548 39.567 41.6249C39.5487 44.0951 37.596 46.0596 35.0528 46.1494C34.2674 46.1769 33.4791 46.1266 32.6952 46.1632C30.3422 46.2743 28.6178 45.3499 27.6529 43.1493H24.6135L24.6089 43.1509ZM3.15656 74.9002H32.2326C30.254 71.8376 28.1932 68.9441 26.4521 65.8679C24.7003 62.7733 23.2665 59.4976 21.6593 56.231C19.7705 56.8584 17.7357 57.5407 15.6977 58.2108C8.09692 60.7098 3.54619 68.2893 3.15656 74.9002ZM48.189 56.1457C48.081 56.3315 48.0323 56.3924 48.0079 56.461C45.9822 61.9982 43.1437 67.0938 39.6903 71.8605C39.0008 72.8123 38.4301 73.8494 37.7726 74.9002H66.841C66.6781 69.704 63.3541 63.7632 58.9677 60.591C55.7213 58.2427 51.8251 57.5696 48.189 56.1457ZM48.635 22.7898C49.1996 17.3089 45.9167 11.9879 40.8927 10.0051C38.5031 9.06242 36.0329 9.07156 33.5536 9.14771C28.7229 9.29847 25.1127 11.528 22.7536 15.7449C22.0261 17.0439 21.565 18.448 21.4371 19.9892C21.565 19.9465 21.6228 19.945 21.6532 19.9146C21.7628 19.8095 21.8633 19.6953 21.9683 19.5856C24.4704 16.9495 27.5509 15.5515 31.1596 15.2454C32.0925 15.1662 32.8124 15.4312 33.4882 16.0753C37.7224 20.1125 42.821 22.2217 48.6365 22.7883L48.635 22.7898ZM18.2349 21.2867C18.2592 20.9806 18.2744 20.7293 18.3018 20.4796C19.0111 13.8824 22.4203 9.33959 28.6255 6.95474C31.4974 5.85064 34.5231 5.88567 37.4956 6.16588C43.8727 6.76742 48.3397 10.133 50.7034 16.0982C51.3456 17.7185 51.5511 19.511 51.9666 21.2684H54.6712C54.0137 11.3498 45.4358 2.76069 34.476 3.06527C23.1463 3.38051 15.7129 12.6656 15.3644 21.2852H18.2349V21.2867ZM34.8458 59.3133C33.1442 61.1149 31.5187 62.8541 29.8659 64.5658C29.5204 64.9237 29.493 65.1734 29.7715 65.5922C31.4685 68.1431 33.1336 70.7137 34.8138 73.2752C34.8625 73.3498 34.9478 73.3986 35.0406 73.4823C35.8884 72.165 36.6996 70.8843 37.5321 69.6172C38.4346 68.2421 39.3691 66.8852 40.2595 65.5024C40.3767 65.3212 40.43 64.9145 40.3204 64.8018C38.5351 62.9744 36.7194 61.1789 34.8473 59.3133H34.8458ZM37.039 56.994C38.7756 58.7362 40.4528 60.4174 42.1346 62.1033C42.1513 62.085 42.2244 62.0393 42.2518 61.9754C43.3035 59.5387 44.3536 57.1036 45.3916 54.6609C45.454 54.5147 45.486 54.2954 45.4221 54.1644C44.7905 52.8608 44.136 51.5679 43.4541 50.2019C41.2503 52.5349 39.1317 54.7782 37.039 56.994ZM32.5674 57.2879C30.397 55.1193 28.2921 53.0162 26.1903 50.9176C25.927 51.4369 25.685 52.0918 25.2984 52.6446C24.4872 53.802 24.5176 54.9122 25.1142 56.164C26.0594 58.1422 26.8873 60.1783 27.8158 62.3074C29.5082 60.5195 31.0713 58.8687 32.5674 57.2879ZM15.235 24.4086C15.235 27.1544 15.2061 29.8636 15.2533 32.5713C15.267 33.3343 15.7982 33.8536 16.5683 33.9221C17.3658 33.9952 18.1755 33.9389 18.9928 33.9389C18.7386 30.7317 18.4906 27.5823 18.2394 24.4086H15.2366H15.235ZM54.7792 24.4178H51.7611C51.51 27.6113 51.2619 30.7591 51.0093 33.9663C51.233 33.9663 51.4065 33.9663 51.58 33.9663C52.1371 33.9648 52.6972 33.9907 53.2527 33.9541C54.1446 33.8947 54.7534 33.3373 54.7655 32.451C54.8005 29.7905 54.7777 27.13 54.7777 24.4178H54.7792ZM33.4471 43.0976C33.9783 43.0976 34.514 43.1326 35.0421 43.09C35.8899 43.0214 36.4895 42.394 36.5078 41.6188C36.5276 40.8193 35.9081 40.1279 35.0284 40.0853C33.992 40.0366 32.9509 40.0381 31.9145 40.0853C31.0652 40.1249 30.4671 40.7767 30.4488 41.5534C30.429 42.3529 31.0485 43.0199 31.9282 43.09C32.4319 43.1311 32.9403 43.0976 33.4471 43.096V43.0976ZM32.0758 52.0507C32.9966 52.969 33.9083 53.8781 34.8732 54.8406C35.6707 53.9954 36.5109 53.106 37.3084 52.2608C36.415 52.2608 35.5566 52.2882 34.7012 52.2532C33.8185 52.2167 32.9372 52.1192 32.0758 52.0507ZM18.3247 37.0395C18.0705 38.7984 18.3658 40.1127 20.0171 39.9832C19.839 39.001 19.6625 38.0248 19.4844 37.0395H18.3247Z" fill="#145388"/>
<path id="Vector_2" d="M61.9986 69.3123C61.9631 70.091 61.6702 70.6086 61.0243 70.8698C60.3429 71.1452 59.7401 70.9821 59.3085 70.3965C58.9385 69.8963 58.7103 69.2791 58.3141 68.8042C57.4508 67.7675 56.5289 66.7814 55.6147 65.789C55.1846 65.3221 54.8115 64.7729 55.1045 64.1746C55.3326 63.7092 55.7828 63.2439 56.2437 63.0508C56.5813 62.9099 57.1903 63.0808 57.5155 63.3341C59.3624 64.7697 60.793 66.5836 61.8336 68.7124C61.9338 68.9182 61.9616 69.1635 62.0001 69.3107L61.9986 69.3123Z" fill="#145388"/>
<path id="Vector_3" d="M51.9532 61.0003C52.996 60.9862 53.9544 61.4371 53.9987 61.9644C54.0429 62.5028 53.0806 63.001 51.9954 63C50.9485 62.999 50.0144 62.535 50.0003 62.0107C49.9862 61.4874 50.9002 61.0144 51.9532 61.0003Z" fill="#145388"/>
</g>
</svg>
