<svg width="69" height="69" viewBox="0 0 69 69" fill="none" xmlns="http://www.w3.org/2000/svg">
<g id="Icon">
<path id="Vector" d="M30.7277 0C30.8864 0.11813 31.0534 0.226135 31.202 0.357767C31.9632 1.03786 31.7286 2.26642 30.7564 2.58537C30.4458 2.68662 30.0931 2.69 29.7606 2.69C23.2018 2.69506 16.6448 2.69337 10.086 2.69506C5.67922 2.69506 2.69858 5.67701 2.69689 10.085C2.69689 28.5437 2.69689 47.0024 2.69689 65.4612C2.69689 65.7058 2.69689 65.9505 2.69689 66.2442H66.2624V42.5455H52.6774C52.8259 42.7328 52.9154 42.8729 53.0301 42.9877C54.0597 44.0238 55.1044 45.0431 56.1154 46.0945C56.3703 46.3595 56.6066 46.6987 56.7011 47.0463C56.8564 47.6218 56.6015 48.1044 56.0884 48.4166C55.5416 48.7491 54.9947 48.6799 54.534 48.2681C53.9652 47.7601 53.4301 47.2134 52.9002 46.6649C52.6538 46.4118 52.4495 46.1164 52.2267 45.8397C52.1559 45.8768 52.085 45.9139 52.0158 45.9511C52.0158 46.3628 52.0343 46.7763 52.0124 47.1881C51.9651 48.0572 51.3812 48.6512 50.6267 48.6208C49.8875 48.5921 49.3592 48.0133 49.3271 47.1729C49.3119 46.7729 49.3238 46.373 49.3238 45.7789C48.6959 46.4084 48.1828 46.9214 47.6714 47.4328C47.4334 47.6707 47.2039 47.9188 46.9541 48.1449C46.2874 48.7508 45.5161 48.7744 44.9676 48.2158C44.4342 47.6741 44.4612 46.8691 45.0722 46.2295C45.7541 45.5157 46.4646 44.8271 47.1651 44.1302C47.6545 43.6458 48.1491 43.1682 48.7634 42.5692H20.4288C20.39 42.613 20.3529 42.6569 20.314 42.6991C20.7478 43.1024 21.1883 43.5007 21.6136 43.9125C22.098 44.3816 22.5487 44.8862 23.0483 45.3351C24.812 46.9231 24.623 47.5188 23.9951 48.2192C23.3031 48.9921 22.628 48.7339 21.1157 47.2184C20.6769 46.7797 20.2448 46.3358 19.6761 45.7604C19.6761 46.3206 19.6828 46.6919 19.6761 47.0615C19.6541 47.9913 19.1241 48.6073 18.3444 48.6174C17.5646 48.6276 17.011 48.0116 16.984 47.0902C16.9739 46.7138 16.9823 46.3375 16.9823 45.7266C16.13 46.5974 15.4549 47.3686 14.6886 48.0352C14.3511 48.3305 13.8009 48.6006 13.3992 48.5415C13.0025 48.4824 12.5468 48.0572 12.3392 47.6724C12.0607 47.1594 12.3291 46.6261 12.7376 46.216C13.7047 45.2457 14.6684 44.2719 15.6473 43.3151C15.865 43.1024 16.1452 42.9505 16.3967 42.77C16.346 42.6822 16.2937 42.5945 16.2431 42.5084C15.5173 42.5084 14.7899 42.5084 14.0642 42.5084C13.4802 42.5084 12.8962 42.5168 12.3122 42.505C11.2675 42.4848 10.6413 41.9616 10.6582 41.1381C10.6734 40.3331 11.2742 39.8285 12.2886 39.815C13.5916 39.7998 14.8945 39.81 16.1958 39.81C16.4355 39.81 16.6752 39.81 16.9486 39.81V34.7388C15.9207 34.6274 14.903 34.6139 13.9325 34.3962C9.42273 33.382 6.86742 29.3723 7.34675 24.7399C7.55435 22.7317 7.87503 22.4549 9.91726 22.3385C10.6312 22.298 11.3485 22.3317 12.1333 22.3317C12.0321 22.2203 11.9679 22.1258 11.8835 22.0566C9.4143 20.0299 8.80669 17.3787 9.32147 14.3647C9.4413 13.6593 9.93413 13.2272 10.6278 13.212C11.8295 13.1867 13.0312 13.261 14.2329 13.2981C14.3612 13.3015 14.4895 13.3285 14.6751 13.3521C14.5907 12.8931 14.481 12.4881 14.4456 12.0763C14.211 9.41668 15.3908 7.45066 17.4937 5.9504C18.0777 5.53357 18.66 5.58082 19.2406 5.98584C21.2811 7.40678 22.9386 9.93983 21.9799 13.3471C22.3985 13.2779 22.7833 13.1614 23.1664 13.1597C24.1706 13.153 25.1816 13.1429 26.1791 13.234C26.8424 13.2931 27.2509 13.7571 27.3622 14.4355C27.8585 17.4614 27.2188 20.0974 24.7293 22.0988C24.6652 22.1511 24.6061 22.2085 24.5605 22.249C25.6356 22.3233 26.6989 22.3553 27.7521 22.4819C28.7412 22.6017 29.0483 22.9443 29.2188 23.94C30.2467 29.9343 26.3023 34.7928 20.2668 34.6527C20.1098 34.6493 19.9529 34.6527 19.7385 34.6527V39.7711H49.2731V34.6932C48.5389 34.651 47.7777 34.6645 47.0351 34.5532C42.073 33.814 39.1633 29.6541 39.6848 24.6488C39.7135 24.3804 39.754 24.1138 39.8063 23.8505C39.9886 22.9392 40.2958 22.5967 41.2139 22.4887C42.2772 22.3638 43.3507 22.3233 44.414 22.2473C44.3262 22.168 44.1895 22.0398 44.0477 21.9166C41.6831 19.8594 41.138 17.2319 41.6798 14.2803C41.7979 13.6407 42.2823 13.234 42.9186 13.2188C44.1203 13.1901 45.3237 13.2542 46.5254 13.2846C46.6739 13.288 46.8208 13.3251 47.0385 13.3555C46.6739 11.9886 46.6064 10.6925 47.0824 9.40656C47.6326 7.92149 48.5896 6.77225 49.9044 5.90652C50.458 5.54201 50.993 5.60951 51.5381 5.95884C53.9736 7.52322 55.0639 10.2571 54.3652 13.0821C54.35 13.1445 54.3517 13.2104 54.3432 13.2796C55.1905 13.207 56.026 13.1024 56.8648 13.077C57.3981 13.0602 57.9416 13.131 58.4699 13.2154C59.1619 13.3268 59.5872 13.747 59.7037 14.4541C60.2117 17.5711 59.4741 20.2391 56.804 22.3199C57.5703 22.3199 58.2437 22.2862 58.9104 22.3267C61.2227 22.4667 61.5045 22.7502 61.6969 25.0302C62.1054 29.8684 59.0859 33.7802 54.3213 34.5447C53.5972 34.6612 52.8495 34.6392 52.0647 34.6848V39.7509H66.3046C66.3046 39.5096 66.3046 39.2699 66.3046 39.0286C66.3046 29.3504 66.3063 19.6721 66.3046 9.99384C66.3046 5.68545 63.2919 2.69 58.9678 2.68831C53.6901 2.68494 48.4123 2.69 43.1346 2.68494C41.9852 2.68494 41.2646 1.99472 41.5498 1.06655C41.6747 0.663218 42.1405 0.354391 42.4528 0C48.4714 0 54.4918 0 60.5104 0C60.6083 0.0421894 60.7028 0.106317 60.8058 0.123193C64.2185 0.705408 66.6641 2.58537 68.1257 5.69895C68.5359 6.57312 68.7148 7.55529 69 8.48852V68.0448C68.5797 68.7975 67.9283 69 67.0911 69C45.398 68.9848 23.7031 68.9882 2.00996 68.9882C0.371121 68.9882 0.00149507 68.6135 0.00149507 66.953C0.00149507 48.047 0.00149507 29.1394 0.00149507 10.2335C0.00149507 9.96346 -0.00525609 9.69345 0.00993401 9.42512C0.224283 5.55213 2.0471 2.69675 5.51719 0.96867C6.44041 0.507961 7.49697 0.315577 8.49276 0C15.9038 0 23.3166 0 30.7277 0ZM26.6213 25.0673C22.3293 24.4429 19.1697 27.9463 19.7756 31.875C23.7588 32.6057 27.1546 29.2457 26.6213 25.0673ZM42.3768 25.0943C41.7928 29.9714 46.0056 32.5652 49.2714 31.8328C49.7069 27.0401 45.8621 24.4412 42.3768 25.0943ZM10.0438 25.074C9.45987 29.9056 13.6152 32.5804 16.9418 31.8277C17.3334 27.6105 14.0608 24.3788 10.0438 25.074ZM58.9458 25.0858C55.0994 24.399 51.5162 27.5362 52.1019 31.8682C56.0226 32.6597 59.6277 29.0888 58.9458 25.0858ZM11.8886 15.8075C11.519 19.1304 14.3443 21.2601 16.9334 20.8061C17.2338 17.8141 14.9266 15.5055 11.8886 15.8075ZM57.1163 15.8109C53.901 15.4481 51.6698 18.1347 52.1137 20.8517C55.1416 21.1268 57.4116 18.8604 57.1163 15.8109ZM44.2486 15.789C43.7979 18.992 46.598 21.2837 49.2731 20.8011C49.5584 17.8158 47.3524 15.5949 44.2486 15.789ZM24.7715 15.8025C21.3875 15.4633 19.3233 18.3355 19.7874 20.8585C22.8542 21.0846 25.1209 18.8064 24.7715 15.8025ZM18.3427 8.76022C16.692 10.2723 16.7089 12.6923 18.3427 14.012C19.9664 12.6923 19.9815 10.2993 18.3427 8.76022ZM50.6504 14.039C52.3297 12.6366 52.3027 9.93983 50.6301 8.79228C49.0368 10.3229 49.0318 12.4543 50.6504 14.039ZM19.7047 24.5475C20.1132 24.2286 20.471 23.9484 20.9014 23.6126H19.7047V24.5475ZM49.2748 24.5424V23.6075H48.0866C48.5153 23.945 48.8545 24.2117 49.2748 24.5424ZM16.9587 23.6092H15.7452C16.1941 23.9535 16.5452 24.2235 16.9587 24.5424V23.6092ZM53.2344 23.6193H52.0698V24.5323C52.4782 24.2117 52.8175 23.945 53.2344 23.6193Z" fill="white"/>
<path id="Vector_2" d="M36.5068 0C37.3193 0.416979 37.6367 0.875161 37.5403 1.48662C37.4456 2.08654 36.9422 2.55956 36.3407 2.61559C35.7824 2.66669 35.2158 2.29256 35.0148 1.73879C34.8137 1.18336 35.0081 0.596626 35.5182 0.252165C35.6611 0.154925 35.824 0.084055 35.9768 0.00164814C36.1529 0.00164814 36.3307 0.00164814 36.5068 0.00164814V0Z" fill="white"/>
<path id="Vector_3" d="M13.9723 53.2178C15.6149 52.7158 17.2284 52.0766 18.9071 51.7419C22.4948 51.0274 25.342 52.3929 27.5946 55.0703C29.2407 57.0264 29.2235 57.413 27.5946 59.3691C24.8076 62.7192 21.0515 63.7065 16.7748 62.1921C16.005 61.9193 15.2507 61.5964 14.517 61.2433C14.1235 61.0525 13.9104 61.0759 13.6097 61.4173C12.2936 62.9083 10.6079 63.7031 8.5804 63.7583C7.49275 63.7885 6.93603 63.2178 6.99102 62.1452C7.04772 61.0642 7.3089 60.0267 7.912 59.1097C8.75567 57.828 8.67319 56.6282 7.93262 55.2962C7.44636 54.4243 7.18346 53.3935 7.02367 52.4012C6.82607 51.1797 7.51509 50.5739 8.80206 50.6676C10.6853 50.8032 12.2678 51.5579 13.541 52.92C13.6922 53.0823 13.84 53.2463 13.9878 53.4103C13.9826 53.3467 13.9757 53.2831 13.9706 53.2178H13.9723ZM25.8059 57.2088C24.744 55.768 23.4605 54.6502 21.6512 54.3306C19.9827 54.0361 18.3727 54.4093 16.8486 55.0669C15.9964 55.435 15.1957 55.9153 14.3744 56.3487C13.4585 56.8306 12.7678 56.6566 12.2283 55.7982C12.1097 55.6091 12.0238 55.3982 11.8949 55.2158C11.486 54.6435 11.0341 54.1131 10.1509 53.8052C11.7231 56.1362 11.687 58.3534 10.156 60.6342C11.1097 60.2326 11.5444 59.8109 12.1423 58.7885C12.754 57.7393 13.4482 57.5686 14.5256 58.1626C15.2988 58.5893 16.0651 59.0478 16.883 59.3725C20.6718 60.8768 23.4656 60.3832 25.8093 57.2071L25.8059 57.2088Z" fill="white"/>
<path id="Vector_4" d="M39.8445 53.3141C41.1863 52.8356 42.4404 52.3001 43.7409 51.9403C48.0262 50.7539 51.2045 52.4473 53.6582 55.8994C54.3267 56.8399 54.3118 57.6414 53.6417 58.5584C52.002 60.8007 50.048 62.5359 47.1691 62.8154C44.9851 63.0279 42.9401 62.4522 40.9795 61.5319C39.9835 61.0634 39.9967 61.0416 39.2273 61.8013C37.9616 63.0513 36.4494 63.729 34.674 63.7591C33.6995 63.7758 33.0708 63.2036 33.2098 62.2347C33.3521 61.2391 33.5241 60.1715 34.0023 59.3181C34.8196 57.8589 34.8378 56.5989 34.0139 55.1364C33.5341 54.283 33.3554 53.2171 33.2098 52.2231C33.0658 51.2308 33.7194 50.6184 34.7154 50.6602C36.633 50.7389 38.2396 51.5086 39.5252 52.956C39.6559 53.1033 39.7866 53.2489 39.8445 53.3158V53.3141ZM36.2872 60.5363C36.3683 60.5948 36.451 60.6551 36.5321 60.7136C37.0318 60.1447 37.6191 59.631 38.0112 58.9951C38.822 57.6782 39.3564 57.4992 40.6784 58.3224C42.0384 59.1691 43.4745 59.8067 45.0596 60.0845C47.505 60.5128 49.6973 59.6712 51.2625 57.1795C49.3597 54.4236 46.873 53.5953 43.5821 54.7315C42.553 55.0862 41.5718 55.6233 40.6171 56.1622C39.325 56.8934 38.7773 56.7763 38.051 55.4912C37.8557 55.1481 37.6208 54.8134 37.3478 54.5323C37.0814 54.2562 36.7422 54.0538 36.4361 53.8178C36.3948 53.858 36.3534 53.8998 36.312 53.94C37.7316 56.1387 37.7118 58.3375 36.2856 60.5363H36.2872Z" fill="white"/>
<path id="Vector_5" d="M58.1091 55.899C58.815 55.9139 59.404 56.5286 59.3923 57.2378C59.3823 57.9553 58.7833 58.532 58.0624 58.5187C57.3466 58.5071 56.7559 57.899 56.7726 57.1914C56.7892 56.4872 57.4116 55.884 58.1091 55.899Z" fill="white"/>
<path id="Vector_6" d="M61.1392 46.7187C61.1459 47.4466 60.5716 48.0329 59.8458 48.0379C59.1283 48.0429 58.5241 47.4533 58.5191 46.7437C58.5141 46.0374 59.1134 45.4278 59.8225 45.4178C60.5333 45.4095 61.1326 46.0008 61.1392 46.7187Z" fill="white"/>
<path id="Vector_7" d="M63.3095 51.5318C64.0379 51.5235 64.6262 52.0961 64.6329 52.8202C64.6396 53.5377 64.0512 54.1436 63.3412 54.1519C62.6345 54.1602 62.0229 53.561 62.0129 52.8519C62.0012 52.1411 62.5912 51.5402 63.3112 51.5318H63.3095Z" fill="white"/>
<path id="Vector_8" d="M7.86039 41.4614C7.87692 42.1713 7.28855 42.7838 6.57622 42.7973C5.8639 42.8107 5.259 42.2283 5.24082 41.5134C5.22429 40.8035 5.81266 40.1892 6.52499 40.1775C7.23731 40.164 7.84221 40.7464 7.86039 41.4614Z" fill="white"/>
<path id="Vector_9" d="M30.5696 50.2349C30.5614 50.9478 29.96 51.5383 29.2464 51.5316C28.5327 51.5249 27.9413 50.921 27.9495 50.2081C27.9578 49.4952 28.5591 48.9047 29.2728 48.9114C29.9848 48.9181 30.5779 49.5237 30.5696 50.2349Z" fill="white"/>
<path id="Vector_10" d="M31.8582 44.5444C32.5413 44.5312 33.1747 45.1431 33.1896 45.8328C33.2029 46.5159 32.5909 47.1493 31.9012 47.1642C31.2181 47.1775 30.5847 46.5655 30.5698 45.8758C30.5566 45.1927 31.1685 44.5593 31.8582 44.5444Z" fill="white"/>
<path id="Vector_11" d="M22.2608 58.5189C21.5124 58.514 20.9555 57.9497 20.962 57.2039C20.9684 56.4729 21.5559 55.8921 22.2817 55.8987C23.0076 55.9053 23.587 56.4977 23.5821 57.2253C23.5773 57.9678 23.0076 58.5239 22.2608 58.5189Z" fill="white"/>
<path id="Vector_12" d="M48.5056 58.5187C47.7837 58.5319 47.184 57.9612 47.165 57.2453C47.146 56.5442 47.7409 55.9207 48.4485 55.8992C49.1466 55.8778 49.7653 56.4733 49.7843 57.1859C49.8034 57.9001 49.2243 58.5055 48.5056 58.5187Z" fill="white"/>
</g>
</svg>
