<svg width="317" height="199" viewBox="0 0 317 199" fill="none" xmlns="http://www.w3.org/2000/svg">
<path d="M179.469 193.699C177.95 193.699 176.834 193.369 176.121 192.707C175.456 191.998 175.124 190.982 175.124 189.658C175.124 188.855 175.338 188.075 175.765 187.319C176.192 186.563 176.81 185.759 177.617 184.908L191.935 169.737C194.12 167.468 195.687 165.412 196.637 163.569C197.586 161.678 198.061 159.787 198.061 157.897C198.061 155.534 197.301 153.738 195.782 152.509C194.31 151.28 192.149 150.666 189.299 150.666C187.685 150.666 186.07 150.902 184.456 151.374C182.841 151.8 181.203 152.556 179.54 153.643C178.686 154.21 177.878 154.447 177.118 154.352C176.406 154.258 175.765 153.95 175.195 153.43C174.673 152.911 174.317 152.272 174.127 151.516C173.937 150.76 173.96 150.004 174.198 149.248C174.483 148.444 175.053 147.759 175.907 147.192C177.95 145.821 180.229 144.781 182.746 144.072C185.31 143.363 187.875 143.009 190.439 143.009C194.048 143.009 197.088 143.552 199.557 144.639C202.027 145.726 203.902 147.31 205.185 149.389C206.467 151.469 207.108 153.998 207.108 156.975C207.108 158.96 206.775 160.898 206.111 162.789C205.493 164.679 204.52 166.593 203.19 168.531C201.908 170.469 200.222 172.525 198.132 174.699L184.74 188.595V186.184H205.683C206.965 186.184 207.939 186.492 208.604 187.106C209.269 187.72 209.601 188.642 209.601 189.871C209.601 191.1 209.269 192.045 208.604 192.707C207.939 193.369 206.965 193.699 205.683 193.699H179.469Z" fill="#6BADD0"/>
<path d="M242.127 194.267C240.702 194.267 239.586 193.888 238.779 193.132C237.972 192.329 237.568 191.194 237.568 189.729V184.199H219.973C218.501 184.199 217.314 183.892 216.412 183.278C215.557 182.663 215.13 181.694 215.13 180.371C215.13 179.615 215.319 178.788 215.699 177.89C216.127 176.992 216.863 175.81 217.908 174.345L237.426 146.199C238.091 145.207 238.827 144.45 239.634 143.93C240.441 143.41 241.367 143.151 242.412 143.151C243.647 143.151 244.668 143.529 245.475 144.285C246.282 144.994 246.686 146.128 246.686 147.688V176.684H250.177C251.554 176.684 252.575 177.015 253.24 177.677C253.952 178.291 254.308 179.213 254.308 180.442C254.308 181.671 253.952 182.616 253.24 183.278C252.575 183.892 251.554 184.199 250.177 184.199H246.686V189.729C246.686 191.194 246.282 192.329 245.475 193.132C244.668 193.888 243.552 194.267 242.127 194.267ZM237.568 176.684V154.565H239.634L222.823 179.095V176.684H237.568Z" fill="#6BADD0"/>
<path d="M261.689 195.755C261.404 196.653 260.953 197.291 260.335 197.67C259.718 198.095 259.029 198.308 258.269 198.308C257.557 198.308 256.892 198.119 256.275 197.74C255.657 197.362 255.23 196.819 254.993 196.11C254.708 195.448 254.708 194.645 254.993 193.699L271.448 142.867C271.733 141.969 272.184 141.307 272.801 140.882C273.466 140.456 274.155 140.267 274.867 140.315C275.579 140.315 276.244 140.504 276.861 140.882C277.479 141.26 277.906 141.78 278.144 142.442C278.429 143.103 278.429 143.907 278.144 144.852L261.689 195.755Z" fill="#6BADD0"/>
<path d="M290.002 194.267C288.91 194.267 288.008 194.007 287.295 193.487C286.583 192.967 286.156 192.281 286.013 191.431C285.871 190.533 286.085 189.54 286.654 188.453L308.167 148.184V151.304H285.087C283.805 151.304 282.808 150.973 282.095 150.311C281.431 149.649 281.098 148.728 281.098 147.546C281.098 146.317 281.431 145.372 282.095 144.71C282.808 144.049 283.805 143.718 285.087 143.718H312.655C313.937 143.718 314.982 144.049 315.789 144.71C316.596 145.372 317 146.317 317 147.546C317 148.586 316.858 149.508 316.573 150.311C316.288 151.067 315.908 151.894 315.433 152.792L295.202 191.289C294.68 192.329 293.991 193.085 293.137 193.558C292.329 194.03 291.285 194.267 290.002 194.267Z" fill="#6BADD0"/>
<path d="M82.3311 1.02099C87.2646 0.68819 92.1982 0.0459527 97.1317 0.0868223C107.332 0.180239 116.866 3.0236 125.863 7.81702C127.34 8.60522 129.203 9.06647 130.873 9.03144C150.741 8.61106 169.383 13.0659 186.677 22.8804C194.466 27.3002 196.445 33.8977 192.737 42.0716C192.136 43.4028 191.546 44.7457 190.904 46.1995C191.704 46.5673 192.393 46.9001 193.094 47.1978C197.741 49.1888 198.85 53.2933 195.429 57.0708C192.568 60.2177 189.45 63.172 186.175 65.8928C175.461 74.7848 163.726 82.2056 151.769 89.2877C149.62 90.5605 147.477 90.0934 146.473 88.301C145.457 86.4852 146.111 84.5527 148.289 83.2215C150.998 81.5634 153.742 79.9695 156.761 78.177C144.237 66.535 136.974 52.3416 134.878 35.1121C129.822 35.7777 124.97 36.2097 120.194 37.0914C107.542 39.4326 95.7947 44.2377 84.6431 50.5783C84.1702 50.8469 83.6973 51.1272 83.201 51.3315C81.0758 52.1956 79.2542 51.6877 78.3492 50.0003C77.4617 48.348 78.0398 46.3513 79.9606 45.2361C91.0947 38.7553 102.783 33.5649 115.453 30.9492C121.659 29.6706 127.977 28.9058 134.422 27.8782C134.761 24.2641 135.14 20.2706 135.52 16.277C101.61 15.4246 64.1908 33.0161 44.2406 75.4271C44.766 74.8724 45.2681 74.2944 45.8228 73.7689C52.0992 67.7728 58.3815 61.7883 64.6695 55.8038C64.9498 55.5352 65.2476 55.2842 65.5745 55.0798C67.2794 54.0114 68.9492 53.8829 70.4088 55.4652C71.7458 56.9131 71.5882 58.9449 69.9476 60.4396C68.1727 62.0569 66.2401 63.5048 64.4302 65.0871C52.94 75.1176 43.2772 86.7188 35.0449 99.5227C34.3151 100.655 33.9589 102.086 33.6728 103.423C32.9489 106.774 31.4367 109.629 29.1772 112.221C22.6906 119.642 16.3149 127.162 9.51889 135.079C11.358 134.536 12.7242 134.215 14.0321 133.736C19.4327 131.775 24.81 129.731 30.2164 127.787C35.6521 125.831 40.8834 126.333 45.9104 129.212C51.4395 132.382 57.0036 135.482 62.5268 138.658C63.1866 139.038 63.6887 139.692 64.2608 140.223C64.436 139.966 64.6112 139.715 64.7863 139.458C61.4117 133.188 58.0312 126.923 54.6565 120.652C53.553 118.603 52.4203 116.571 51.3344 114.51C49.5303 111.089 49.7054 107.761 52.0759 104.678C58.3056 96.5684 66.6255 93.7892 76.4283 95.8327C86.1495 97.8528 95.8881 98.8454 105.784 97.8412C114.244 96.9829 122.494 95.1963 130.411 92.0026C131.491 91.5648 132.583 91.1502 133.704 90.8291C135.771 90.2394 137.464 90.9926 138.089 92.7733C138.801 94.7993 138.048 96.3699 136.209 97.2164C133.955 98.2557 131.614 99.1256 129.261 99.9138C121.572 102.471 113.696 104.252 105.603 104.853C103.537 105.005 102.27 105.811 101.003 107.381C94.2884 115.725 85.5189 119.8 74.7877 119.485C69.5389 119.333 67.3086 115.263 69.7374 110.587C71.0802 108.006 72.2713 105.344 73.5791 102.617C67.2151 101.368 61.0205 103.855 57.7567 108.917C57.3247 109.588 57.494 111.013 57.9144 111.807C62.7662 121.003 67.7289 130.134 72.6274 139.3C74.198 142.237 73.836 144.981 71.7517 146.972C69.7783 148.858 66.9991 149.133 64.2141 147.574C57.097 143.586 49.9682 139.616 42.9211 135.505C39.2019 133.334 35.5528 133.153 31.5651 134.694C24.3195 137.491 16.998 140.1 9.69404 142.734C6.43615 143.907 3.59279 143.055 1.82956 140.515C0.0780005 137.987 0.27651 135.155 2.61192 132.405C9.60646 124.185 16.7295 116.075 23.6306 107.778C25.1019 106.009 26.2813 103.738 26.8476 101.514C32.5869 78.7959 42.7225 58.4078 58.8952 41.3126C63.7704 36.1572 69.3929 31.7024 74.9337 26.6988C72.4406 24.6845 69.714 22.4133 66.9174 20.2414C64.4068 18.2913 62.9822 15.8508 63.2858 12.628C63.5485 9.80212 65.0023 7.6769 67.5129 6.33404C69.0076 5.53416 70.5373 4.80435 72.0553 4.0395C75.4825 3.02944 78.9155 2.01937 82.3427 1.00931L82.3311 1.02099ZM142.631 16.4055C139.117 38.9305 145.154 57.8707 161.805 73.2727C162.803 74.1952 163.481 73.9441 164.397 73.2552C170.72 68.5201 177.119 63.8843 183.384 59.0734C185.533 57.4211 187.36 55.3543 189.421 53.3983C183.308 50.4324 182.427 47.9218 185.13 41.9373C185.609 40.8747 186.099 39.8238 186.572 38.7553C188.499 34.4407 187.524 31.2236 183.297 29.0167C178.97 26.763 174.586 24.5619 170.066 22.7286C161.402 19.2197 152.352 17.182 142.631 16.3996V16.4055ZM114.256 10.3509C114.478 10.4911 114.309 10.3276 114.104 10.2634C99.7299 5.34733 85.5831 5.97205 71.6758 12.0558C69.8425 12.8557 69.7958 13.5446 71.3547 14.8583C74.3148 17.363 77.2224 19.9261 80.2759 22.3082C80.8598 22.7636 82.1384 22.8512 82.8449 22.5359C85.8167 21.2106 88.5841 19.3948 91.6202 18.2621C99.1635 15.4538 106.812 12.9257 114.256 10.3451V10.3509ZM93.3717 105.379C88.8527 104.976 84.5672 104.596 80.2876 104.217C79.2191 106.943 78.1799 109.582 77.1348 112.245C82.2493 112.689 88.7418 109.962 93.3659 105.379H93.3717Z" fill="#6BADD0"/>
<path d="M149.218 111.549C138.936 114.655 128.661 106.394 129.501 95.6976C129.682 93.3622 131.107 91.885 133.104 91.9493C134.99 92.0135 136.128 93.4848 136.502 95.7034C136.852 97.7936 137.115 100.112 138.213 101.816C140.816 105.874 146.591 106.388 150.287 103.264C153.959 100.158 154.228 94.5241 150.87 91.0385C150.333 90.4838 149.726 89.9875 149.206 89.4153C147.887 87.9499 147.7 86.3268 148.99 84.8029C150.362 83.1857 152.102 83.1331 153.772 84.3183C157.906 87.2551 160.054 91.3479 160.212 96.3749C160.44 103.562 156.073 109.482 149.212 111.555L149.218 111.549Z" fill="#6BADD0"/>
<path d="M161.781 33.1385C163.527 32.6423 165.43 33.7399 165.967 35.5382C166.505 37.354 165.512 39.2048 163.702 39.7653C161.805 40.3491 159.843 39.2573 159.358 37.3481C158.915 35.5849 160.035 33.6348 161.781 33.1385Z" fill="#6BADD0"/>
<path d="M238.132 93.3455C238.774 90.4671 239.994 87.7347 239.854 84.6753C239.708 81.4349 237.91 80.3198 235.067 81.902C231.021 84.1557 226.998 86.4444 222.928 88.6455C222.374 88.9433 221.591 88.9608 220.937 88.9024C217.837 88.628 215.747 87.0282 214.795 84.0156C214.766 83.9338 214.725 83.8462 214.667 83.7762C212.834 81.4408 212.688 78.9711 213.844 76.262C214.223 75.3804 214.614 74.7615 215.467 74.2944C219.524 72.0641 223.553 69.7871 227.57 67.4925C229.935 66.138 230.016 63.861 227.716 62.413C226.134 61.4205 224.452 60.5797 222.817 59.6748C221.264 59.2252 219.705 58.7815 218.152 58.3319C215.029 58.291 211.835 57.8064 208.793 58.291C199.037 59.8441 192.107 65.3148 187.996 74.3236C186.694 77.1787 186.099 80.1972 185.865 83.3149C185.825 83.8404 185.468 84.5585 185.042 84.7979C177.242 89.171 130.995 114.755 123.031 119.111C122.675 119.304 121.998 119.193 121.607 118.977C118.325 117.19 114.822 116.069 111.121 115.719C95.1465 114.218 81.3909 126.847 81.5194 142.844C81.5485 146.161 83.4461 147.241 86.377 145.606C90.3822 143.376 94.3699 141.11 98.3985 138.927C98.9532 138.623 99.7355 138.582 100.389 138.647C103.501 138.956 105.691 140.515 106.695 143.568C106.765 143.779 106.882 143.989 107.022 144.158C108.809 146.318 108.879 148.607 107.834 151.153C107.413 152.18 106.952 152.881 105.965 153.401C101.837 155.596 97.7388 157.844 93.6635 160.126C91.5558 161.306 91.3631 163.659 93.2898 164.92C100.827 169.865 109.001 171.22 117.45 168.044C128.356 163.939 134.481 155.899 135.491 144.141C135.537 143.603 136.022 142.903 136.507 142.628C142.538 139.23 191.651 112.151 197.18 108.975C198.488 108.228 199.44 108.286 200.707 108.964C210.994 114.463 224.575 112.052 232.486 103.423C235.166 100.498 237.256 97.2807 238.132 93.3338V93.3455ZM231.815 95.2197C225.561 106.348 211.94 109.845 201.145 103.072C199.732 102.185 198.488 102.103 197.011 102.921C175.397 114.907 153.777 126.87 132.133 138.81C130.645 139.627 130.043 140.737 130.084 142.401C130.306 151.888 124.152 159.969 115.745 162.993C111.01 164.698 106.24 164.634 101.481 163.057C101.201 162.964 100.944 162.795 100.576 162.614C103.099 161.189 105.422 159.619 107.95 158.515C110.992 157.184 112.504 155.047 113.269 151.847C114.705 145.875 114.992 147.55 112.142 142.29C111.179 140.509 110.157 138.763 109.217 136.977C108.616 135.832 107.787 135.091 106.508 134.764C104.465 134.239 102.433 133.649 100.419 133.018C99.2626 132.656 98.2467 132.808 97.1958 133.392C93.9729 135.179 90.7267 136.918 87.3345 138.758C87.7491 136.078 88.6657 133.649 90.0611 131.419C96.5477 121.049 109.503 117.99 119.943 124.383C121.589 125.393 122.973 125.428 124.684 124.482C146.053 112.607 167.439 100.778 188.849 88.9783C190.542 88.0441 191.254 86.894 191.266 84.9205C191.342 72.5896 201.197 63.0611 213.511 63.353C215.975 63.4114 218.403 63.826 220.885 64.9586C220.424 65.2681 220.132 65.4958 219.811 65.6768C216.996 67.2707 214.188 68.888 211.351 70.441C210.212 71.0657 209.488 71.924 209.149 73.1734C208.606 75.1702 207.888 77.1261 207.497 79.1462C207.299 80.1621 207.404 81.4174 207.836 82.3457C209.149 85.1482 210.708 87.8398 212.127 90.5956C212.723 91.7458 213.546 92.4931 214.824 92.82C216.827 93.3338 218.812 93.906 220.786 94.5366C222.035 94.9336 223.127 94.7759 224.259 94.1395C227.436 92.3646 230.653 90.6598 233.975 88.8615C233.665 91.1502 232.912 93.2638 231.803 95.2372L231.815 95.2197Z" fill="#6BADD0"/>
</svg>
