<svg width="87" height="85" viewBox="0 0 87 85" fill="none" xmlns="http://www.w3.org/2000/svg">
<g id="Icon">
<path id="Vector" d="M86.1483 39.0208C83.5476 42.4353 80.358 45.1367 75.977 45.5612C73.1532 45.8347 70.8578 46.6552 68.8024 48.6015C67.5356 49.8012 65.7671 50.0915 64.0205 49.9958C62.1681 49.8952 60.8946 48.4354 60.9902 46.5931C61.0104 46.2089 61.0876 45.828 61.148 45.3766C60.304 45.1485 59.4214 44.9974 58.6093 44.6703C57.012 44.026 55.4063 43.3733 53.8945 42.5545C52.5438 41.8229 51.2418 41.7155 49.9062 42.3732C48.8357 42.9001 47.8088 43.5259 46.7988 44.1635C45.1024 45.2357 43.4531 44.5981 43.0856 42.6149C42.9363 41.8061 43.0235 40.9538 43.0202 40.1199C43.0168 38.9604 43.0202 37.801 43.037 36.6433C43.0554 35.4218 42.9564 34.1785 43.1494 32.9838C43.4849 30.9167 45.3407 30.3345 46.9615 31.66C47.9296 32.4536 48.9112 33.2439 49.9599 33.9218C51.2317 34.7439 52.4901 34.7003 53.7368 33.6953C56.0053 31.8681 58.5087 30.4133 61.2302 29.3127C61.1396 28.7053 60.9936 28.1381 60.9818 27.5677C60.9466 25.7153 62.2923 24.3814 64.1463 24.2773C66.2319 24.1616 67.8746 24.9871 69.2538 26.4821C70.0088 27.3009 70.7135 28.2053 71.5978 28.8546C72.3276 29.3898 73.284 29.8949 74.1498 29.9133C77.5878 29.9888 80.358 31.4486 82.6617 33.8211C83.9503 35.1483 84.9906 36.7171 86.1433 38.1769V39.0141L86.1483 39.0208ZM82.9352 38.4621C82.4939 37.9034 82.1399 37.4 81.7305 36.9453C79.7674 34.7658 77.6046 32.9469 74.4586 32.8295C71.8528 32.7322 69.7639 31.5929 68.1279 29.5694C67.6212 28.9435 67.0675 28.3428 66.4668 27.8076C65.6682 27.0962 64.6363 26.9787 63.752 27.4703C63.9785 28.014 64.1967 28.5777 64.4483 29.1247C64.9517 30.217 64.7067 30.9117 63.6077 31.4251C63.507 31.4721 63.4013 31.509 63.2973 31.5493C60.3476 32.7154 57.6362 34.2876 55.121 36.2188C53.8475 37.197 52.4129 37.5628 50.7904 37.2306C49.1511 36.895 47.8021 36.0477 46.5118 35.0543C46.3105 34.9 46.1075 34.749 45.9649 34.6399V41.2675C46.4263 40.984 46.9095 40.6601 47.4162 40.3799C49.7669 39.0762 52.225 38.4218 54.7334 39.8095C57.3996 41.2843 60.1916 42.3078 63.1832 42.8397C64.6866 43.1065 65.0541 43.9437 64.3863 45.3095C64.1295 45.833 63.9769 46.4069 63.7185 47.1149C64.2822 47.1149 64.6111 47.1334 64.9366 47.1116C66.0708 47.0361 67.0188 46.5579 67.8175 45.7558C69.5373 44.0276 71.5978 42.9269 74.0492 42.9051C77.7539 42.8733 80.4905 41.0679 82.9318 38.4621H82.9352Z" fill="#145388"/>
<path id="Vector_2" d="M27.3354 9.28056C26.6256 6.55065 27.4176 4.78049 29.5703 4.37948C31.1492 4.08585 32.6945 4.31236 34.0167 5.33419C34.5217 5.72513 34.9748 6.18487 35.4362 6.62951C35.7164 6.89965 35.9882 7.18657 36.2248 7.49529C37.5755 9.26042 39.3389 10.0356 41.5739 10.0809C43.7048 10.1229 45.5336 11.1547 47.1847 12.4434C49.0001 13.8612 50.527 15.5575 51.7921 17.4854C52.23 18.1515 52.3945 18.8478 51.8576 19.4971C49.3978 22.4636 46.4833 24.7539 42.5957 25.5325C42.188 25.6147 41.7651 25.6633 41.3507 25.66C39.0554 25.6432 37.1359 26.457 35.5016 28.0845C34.156 29.4251 32.4378 29.9721 30.5552 29.9856C27.9981 30.0057 26.5837 28.2305 27.1592 25.7439C27.1844 25.6382 27.1861 25.5258 27.1961 25.4503C25.6743 24.9419 24.1592 24.4905 22.6877 23.9267C21.7296 23.5593 20.795 23.0928 19.9242 22.5526C18.6037 21.7338 17.2715 21.7254 15.9409 22.3663C14.8906 22.8714 13.8906 23.4905 12.9073 24.118C11.1103 25.2657 9.41566 24.5358 9.10358 22.4167C9.01465 21.816 8.96431 21.1767 9.07338 20.5878C9.38043 18.9401 9.13042 17.3176 9.04485 15.68C8.99452 14.7169 9.04485 13.7152 9.26298 12.7806C9.70258 10.8779 11.4744 10.3812 12.9895 11.6162C14.0013 12.4417 15.0282 13.2689 16.1288 13.9652C17.3487 14.7353 18.5769 14.6615 19.7615 13.7118C22.0551 11.8729 24.5753 10.398 27.3387 9.2772L27.3354 9.28056ZM12.0147 21.2539C12.4979 20.9586 12.9795 20.6398 13.4862 20.3629C15.7815 19.1045 18.1943 18.4149 20.649 19.7354C23.4259 21.2287 26.2951 22.3495 29.4143 22.8512C30.671 23.0526 31.067 24.0157 30.5166 25.1633C30.2482 25.7238 30.0435 26.3144 29.7515 27.0359C30.2952 27.0728 30.6458 27.1399 30.9881 27.1114C32.1123 27.0174 33.0704 26.5577 33.8707 25.7506C35.6778 23.9318 37.849 22.9385 40.4329 22.8596C41.0973 22.8395 41.7718 22.7791 42.4212 22.6365C45.0924 22.0492 47.1226 20.4334 48.9934 18.4653C48.5874 17.9485 48.2149 17.4266 47.7954 16.9501C45.7484 14.6246 43.4262 12.8796 40.1191 12.7672C37.6124 12.6816 35.6392 11.4081 34.0905 9.44331C33.6274 8.85437 33.1039 8.30235 32.5402 7.80906C31.7834 7.14462 30.8858 6.99864 29.7918 7.31912C29.9864 7.85436 30.1123 8.33591 30.3287 8.77216C31.0754 10.2688 30.8623 10.9333 29.3086 11.5507C26.5736 12.6397 24.0266 14.0608 21.6742 15.8243C19.1776 17.6968 17.1171 17.8579 14.4107 16.2756C13.56 15.779 12.7664 15.1833 12.013 14.68V21.2522L12.0147 21.2539Z" fill="#145388"/>
<path id="Vector_3" d="M53.0002 56.4742C52.9096 55.7812 52.7653 55.2057 52.7703 54.6319C52.7888 52.8047 54.1009 51.5312 55.9432 51.4322C58.0237 51.3214 59.668 52.1537 61.0489 53.652C61.8409 54.5128 62.606 55.4255 63.5221 56.1336C64.1513 56.6185 65.0188 57.0514 65.7839 57.0614C70.2051 57.1185 73.3209 59.4726 76.0089 62.637C76.5844 63.3149 77.0928 64.0548 77.5978 64.7898C78.0358 65.4273 78.071 66.1052 77.5509 66.721C74.9871 69.7596 71.9736 72.0986 67.9249 72.7647C67.1581 72.8905 66.3695 72.8872 65.5926 72.966C64.2772 73.0969 63.1194 73.6036 62.1379 74.4912C60.9734 75.5449 59.7889 76.5668 58.1949 76.9091C56.8794 77.1909 55.5556 77.4409 54.2988 76.6792C52.8911 75.8268 52.5153 74.7027 52.9381 72.5231C52.277 72.3553 51.579 72.2613 50.9464 72.0046C49.1461 71.2714 47.3289 70.5533 45.6007 69.6707C44.2953 69.0046 43.0369 68.8888 41.7601 69.4996C40.6594 70.0264 39.6074 70.6674 38.5755 71.3234C36.9211 72.3754 35.2717 71.7764 34.8908 69.8502C34.7214 68.9928 34.8187 68.0801 34.8153 67.1925C34.8103 66.117 34.822 65.0398 34.8372 63.9642C34.8556 62.6874 34.7415 61.3887 34.9395 60.1404C35.2667 58.0766 37.1442 57.491 38.7466 58.8182C39.7114 59.6169 40.6929 60.4071 41.7433 61.0816C43.0151 61.9004 44.2786 61.8568 45.5219 60.8518C47.787 59.0212 50.2954 57.5749 52.9985 56.4742H53.0002ZM74.7538 65.5884C74.0005 64.7226 73.3495 63.8803 72.6028 63.1354C70.8008 61.3384 68.7537 60.0481 66.0826 59.9625C63.601 59.8836 61.6094 58.7527 60.0221 56.8635C59.4852 56.2242 58.9398 55.5799 58.3207 55.0262C57.5556 54.3416 56.6479 54.1067 55.5321 54.506C55.725 55.0446 55.8475 55.5312 56.0673 55.9708C56.8022 57.449 56.6026 58.0917 55.0891 58.6957C52.1445 59.8736 49.4347 61.4441 46.9061 63.3568C46.3424 63.783 45.6578 64.1186 44.9782 64.3082C42.8306 64.9055 40.9899 64.0632 39.25 62.9089C38.7097 62.5498 38.1996 62.1437 37.7533 61.8149V68.4056C38.1862 68.1438 38.6728 67.8301 39.1761 67.5499C41.5839 66.2092 44.089 65.5901 46.6477 67.0264C49.2317 68.476 51.9532 69.4576 54.8609 69.9744C56.5136 70.268 56.866 71.07 56.1059 72.5919C55.8693 73.0667 55.7485 73.5986 55.5321 74.2278C56.0489 74.2547 56.3777 74.3117 56.6982 74.2832C57.819 74.1808 58.7838 73.7395 59.5858 72.9291C61.3442 71.1523 63.4617 70.0684 65.9752 70.0449C69.6195 70.0113 72.289 68.1807 74.7538 65.5884Z" fill="#145388"/>
<path id="Vector_4" d="M18.6389 55.3802C17.7765 55.1487 16.9158 55.0077 16.1255 54.6889C14.503 54.0329 12.8704 53.3735 11.3352 52.5446C10.0063 51.8282 8.72941 51.7292 7.42402 52.3617C6.35018 52.8819 5.32164 53.5044 4.31324 54.1436C2.56824 55.251 0.913858 54.6084 0.554792 52.5799C0.415528 51.7963 0.496066 50.9741 0.494388 50.1687C0.491033 48.9825 0.494388 47.7945 0.512845 46.6083C0.529624 45.4136 0.432307 44.1989 0.621907 43.0311C0.962516 40.922 2.8367 40.3347 4.4827 41.6955C5.44748 42.4925 6.43239 43.2777 7.48275 43.9522C8.72941 44.7509 9.97439 44.7039 11.1892 43.7274C13.4795 41.8867 16.003 40.422 18.701 39.3179C18.6155 38.6552 18.4728 38.0545 18.4745 37.4555C18.4829 35.6702 19.7984 34.4235 21.587 34.3027C23.7128 34.1601 25.3689 35.0007 26.7649 36.5209C27.4814 37.3011 28.1357 38.1803 28.9814 38.7844C29.765 39.3431 30.7599 39.9136 31.6727 39.9303C35.9345 40.0075 38.8624 42.318 41.3859 45.3902C41.9665 46.0982 42.443 46.8935 42.9581 47.6536C43.4044 48.3113 43.3759 48.9674 42.8859 49.5848C40.0134 53.2174 36.5251 55.7242 31.6677 55.7796C30.2549 55.7947 29.0032 56.3282 27.9377 57.2578C26.7599 58.2863 25.6055 59.3518 24.0233 59.7293C22.738 60.0347 21.4293 60.2511 20.1792 59.6303C18.7581 58.9256 18.201 57.5967 18.5366 55.892C18.5685 55.7343 18.6004 55.5765 18.6389 55.3802ZM40.1879 48.3818C39.1896 47.2744 38.2869 46.1318 37.2399 45.1435C35.9009 43.8801 34.3321 42.9455 32.4227 42.8851C29.5351 42.7928 27.228 41.6586 25.431 39.3716C24.8253 38.6015 24.0384 37.9169 23.2028 37.4051C22.7581 37.1316 22.035 37.3112 21.4376 37.2877C21.5501 37.8061 21.5736 38.3666 21.7934 38.8347C22.4813 40.3012 22.2783 40.9387 20.7581 41.5512C18.0014 42.6602 15.4225 44.0864 13.055 45.8818C10.6489 47.7056 8.53142 47.8734 5.92232 46.3499C5.04311 45.8365 4.22263 45.2207 3.43906 44.6938V51.2527C3.8837 50.9875 4.36861 50.6805 4.86861 50.4003C7.21429 49.0882 9.67741 48.4137 12.1842 49.7929C14.8788 51.2745 17.6859 52.3282 20.7145 52.8399C22.1507 53.0832 22.5216 53.9742 21.8806 55.2796C21.6205 55.8098 21.4527 56.387 21.2027 57.0514C21.6692 57.09 21.9427 57.137 22.2128 57.1286C23.4108 57.0933 24.4243 56.6286 25.2716 55.7829C27.129 53.9255 29.3421 52.9054 31.9982 52.8752C32.6341 52.8685 33.2801 52.7762 33.8992 52.6319C36.4563 52.0345 38.3741 50.4607 40.1862 48.3801L40.1879 48.3818Z" fill="#145388"/>
<path id="Vector_5" d="M24.8723 70.0632C24.8521 73.2042 22.3051 75.721 19.1557 75.7126C16.0231 75.7059 13.4711 73.1505 13.4711 70.0212C13.4711 66.8769 16.1121 64.2611 19.2396 64.3098C22.3739 64.3584 24.8941 66.9323 24.8723 70.0615V70.0632ZM19.1373 72.8602C20.7111 72.8753 21.983 71.6572 22.0182 70.1018C22.0534 68.5095 20.7933 67.1907 19.2161 67.1672C17.6456 67.1437 16.3218 68.4524 16.3235 70.0246C16.3252 71.5733 17.5869 72.8434 19.1373 72.8602Z" fill="#145388"/>
<path id="Vector_6" d="M66.1883 5.70483C66.1883 2.5672 68.7252 0.0134741 71.8578 5.11056e-05C75.0022 -0.0133719 77.6297 2.61922 77.5945 5.74678C77.5592 8.87434 74.9837 11.413 71.8578 11.4029C68.7168 11.3928 66.1883 8.85253 66.1883 5.70651V5.70483ZM71.8947 8.54716C73.44 8.54045 74.7219 7.27029 74.7387 5.73C74.7555 4.16454 73.4384 2.84573 71.8628 2.85244C70.2705 2.86083 69.0188 4.14944 69.0423 5.7602C69.0641 7.32231 70.3259 8.55387 71.893 8.54716H71.8947Z" fill="#145388"/>
<path id="Vector_7" d="M60.413 17.1161C58.0321 17.0993 56.1344 15.158 56.1713 12.7754C56.2066 10.4566 58.1697 8.53709 60.4801 8.56226C62.8443 8.58742 64.7537 10.5539 64.7168 12.9247C64.6815 15.2704 62.7687 17.1312 60.413 17.1144V17.1161ZM60.4231 14.2503C61.2134 14.262 61.8728 13.611 61.861 12.8308C61.8493 12.1026 61.1932 11.4432 60.4667 11.4297C59.7083 11.4163 59.017 12.1076 59.0288 12.871C59.0405 13.6177 59.6697 14.2402 60.4231 14.2503Z" fill="#145388"/>
<path id="Vector_8" d="M12.0046 77.1623C12.008 79.5281 10.1288 81.4191 7.76631 81.4292C5.38205 81.4392 3.41558 79.4795 3.45081 77.1271C3.48437 74.7982 5.44749 72.8619 7.76128 72.877C10.1036 72.8921 12.003 74.8083 12.0063 77.1623H12.0046ZM7.71766 75.7479C6.95254 75.7647 6.29314 76.4727 6.33341 77.2311C6.37368 77.9879 7.00456 78.5734 7.76631 78.56C8.57337 78.5466 9.1707 77.9107 9.13714 77.1003C9.10694 76.3502 8.4576 75.7328 7.71766 75.7479Z" fill="#145388"/>
<path id="Vector_9" d="M14.8855 84.2865C14.0868 84.2747 13.4526 83.6271 13.4761 82.8469C13.4996 82.0583 14.1355 81.4911 14.9744 81.5113C15.7194 81.528 16.3268 82.1791 16.2983 82.9307C16.2697 83.6824 15.6288 84.2965 14.8855 84.2865Z" fill="#145388"/>
<path id="Vector_10" d="M67.6161 17.1934C68.3762 17.1851 68.9903 17.7924 68.997 18.5592C69.0037 19.3126 68.3913 19.9502 67.6396 19.972C66.8208 19.9955 66.1916 19.3982 66.1832 18.5911C66.1765 17.7723 66.7587 17.2035 67.6161 17.1934Z" fill="#145388"/>
<path id="Vector_11" d="M77.2287 37.1719C77.2119 37.9538 76.5391 38.5729 75.7438 38.5393C74.9703 38.5075 74.3981 37.8984 74.4082 37.1232C74.42 36.338 75.1012 35.6953 75.8747 35.7373C76.6113 35.7776 77.2421 36.4487 77.227 37.1736L77.2287 37.1719Z" fill="#145388"/>
<path id="Vector_12" d="M40.4513 17.0355C40.5168 16.2536 41.2265 15.668 42.0118 15.7469C42.7584 15.8207 43.3272 16.5002 43.2702 17.2469C43.2131 17.9852 42.5252 18.5993 41.8004 18.559C41.0302 18.5154 40.3876 17.7905 40.4513 17.0355Z" fill="#145388"/>
<path id="Vector_13" d="M69.0054 64.3333C68.987 65.1219 68.3259 65.7293 67.5239 65.694C66.7487 65.6605 66.1849 65.0581 66.1984 64.2779C66.2135 63.4776 66.8611 62.8718 67.6631 62.9104C68.4148 62.9474 69.0239 63.5917 69.0054 64.335V64.3333Z" fill="#145388"/>
<path id="Vector_14" d="M34.713 47.1706C34.7029 47.9407 34.0049 48.5968 33.2331 48.5632C32.4848 48.5313 31.8757 47.8887 31.8841 47.1387C31.8925 46.3635 32.5838 45.7024 33.3489 45.7377C34.0788 45.7712 34.7231 46.4474 34.713 47.1706Z" fill="#145388"/>
</g>
</svg>
