<svg width="69" height="61" viewBox="0 0 69 61" fill="none" xmlns="http://www.w3.org/2000/svg">
<g id="Icon">
<path id="Vector" d="M25.3241 22.0198C24.6144 19.2899 25.4063 17.5197 27.559 17.1187C29.1379 16.8251 30.6833 17.0516 32.0054 18.0734C32.5105 18.4644 32.9635 18.9241 33.4249 19.3688C33.7051 19.6389 33.9769 19.9258 34.2135 20.2346C35.5642 21.9997 37.3276 22.7749 39.5626 22.8202C41.6935 22.8621 43.5224 23.894 45.1734 25.1826C46.9889 26.6004 48.5157 28.2968 49.7808 30.2246C50.2188 30.8907 50.3832 31.5871 49.8463 32.2364C47.3865 35.2029 44.472 37.4932 40.5844 38.2717C40.1767 38.3539 39.7539 38.4026 39.3394 38.3992C37.0441 38.3825 35.1246 39.1962 33.4903 40.8238C32.1447 42.1644 30.4265 42.7114 28.544 42.7248C25.9869 42.745 24.5724 40.9698 25.1479 38.4831C25.1731 38.3774 25.1748 38.265 25.1848 38.1895C23.663 37.6811 22.1479 37.2298 20.6764 36.666C19.7183 36.2985 18.7837 35.8321 17.9129 35.2918C16.5924 34.473 15.2602 34.4646 13.9297 35.1056C12.8793 35.6106 11.8793 36.2298 10.896 36.8573C9.09904 38.0049 7.40439 37.2751 7.0923 35.1559C7.00337 34.5552 6.95304 33.916 7.0621 33.327C7.36915 31.6794 7.11915 30.0568 7.03358 28.4192C6.98324 27.4561 7.03358 26.4544 7.2517 25.5199C7.6913 23.6172 9.46314 23.1205 10.9783 24.3554C11.99 25.1809 13.0169 26.0081 14.1176 26.7044C15.3374 27.4746 16.5656 27.4008 17.7502 26.4511C20.0438 24.6121 22.564 23.1373 25.3275 22.0165L25.3241 22.0198ZM10.0034 33.9931C10.4866 33.6978 10.9682 33.379 11.4749 33.1022C13.7703 31.8438 16.183 31.1542 18.6378 32.4747C21.4147 33.968 24.2838 35.0888 27.403 35.5905C28.6597 35.7918 29.0557 36.7549 28.5054 37.9026C28.2369 38.463 28.0322 39.0536 27.7403 39.7751C28.2839 39.812 28.6346 39.8791 28.9768 39.8506C30.101 39.7567 31.0591 39.2969 31.8594 38.4899C33.6665 36.671 35.8377 35.6777 38.4216 35.5989C39.0861 35.5787 39.7606 35.5183 40.4099 35.3757C43.0811 34.7885 45.1113 33.1727 46.9821 31.2045C46.5761 30.6877 46.2036 30.1659 45.7841 29.6894C43.7371 27.3639 41.4149 25.6189 38.1079 25.5064C35.6011 25.4209 33.6279 24.1474 32.0792 22.1826C31.6161 21.5936 31.0927 21.0416 30.5289 20.5483C29.7722 19.8839 28.8745 19.7379 27.7805 20.0584C27.9752 20.5936 28.101 21.0752 28.3174 21.5114C29.0641 23.0081 28.851 23.6725 27.2973 24.29C24.5624 25.3789 22.0153 26.8001 19.663 28.5635C17.1663 30.436 15.1058 30.5971 12.3994 29.0149C11.5487 28.5182 10.7551 27.9226 10.0017 27.4192V33.9915L10.0034 33.9931Z" fill="#145388"/>
<path id="Vector_2" d="M57.3074 56C56.6824 55.8412 56.0403 55.7318 55.4365 55.5162C52.158 54.3466 50.0606 51.4394 50.0149 47.9863C49.9851 45.7755 50.0096 43.5646 50.0074 41.3537C50.0074 40.7405 50.2424 40.2535 50.8217 39.9979C51.4043 39.7413 51.9284 39.899 52.3781 40.3187C53.6845 41.5378 54.9932 42.7557 56.2912 43.9842C56.9237 44.5827 56.963 45.3968 56.4123 45.9616C55.8798 46.5086 55.0633 46.5096 54.4383 45.9458C53.8865 45.4473 53.3497 44.9309 52.7586 44.3776C52.7427 44.5385 52.7225 44.6416 52.7235 44.7436C52.7448 46.071 52.664 47.411 52.816 48.7247C53.1094 51.2501 55.3025 53.1791 57.8475 53.3021C60.4668 53.4294 62.8066 51.7307 63.4094 49.2369C63.5231 48.7657 63.5773 48.2693 63.5784 47.7844C63.5912 43.4047 63.5827 39.0239 63.5922 34.6443C63.5922 34.3497 63.4987 34.213 63.2297 34.0836C61.7191 33.3579 60.8931 32.1399 60.8878 30.4854C60.8814 28.8131 61.7085 27.5814 63.2372 26.8504C63.5125 26.7189 63.5922 26.5727 63.5912 26.2856C63.5827 22.3676 63.589 18.4486 63.5816 14.5307C63.5805 13.8996 63.7921 13.4031 64.3853 13.1276C65.2634 12.7205 66.252 13.3337 66.2945 14.3119C66.3158 14.8147 66.3009 15.3195 66.3009 15.8233C66.3009 19.2943 66.3051 22.7642 66.2945 26.2351C66.2945 26.5496 66.3657 26.7158 66.6793 26.8662C68.1889 27.594 69.0032 28.8225 69 30.476C68.9957 32.1304 68.1751 33.3505 66.6655 34.0784C66.3774 34.2172 66.2935 34.3687 66.2945 34.6758C66.3051 39.0418 66.3062 43.4079 66.3009 47.7739C66.2956 51.4163 64.1737 54.3855 60.7156 55.574C60.1617 55.7644 59.5739 55.8591 59.002 55.9979H57.3043L57.3074 56ZM66.302 30.4854C66.3105 29.7555 65.7098 29.1433 64.9721 29.1297C64.2332 29.116 63.6114 29.705 63.5912 30.4339C63.571 31.1807 64.1865 31.8075 64.9412 31.8107C65.679 31.8139 66.2934 31.2154 66.3009 30.4854H66.302Z" fill="#145388"/>
<path id="Vector_3" d="M21.4219 46.7541C21.4018 49.8951 18.8548 52.4119 15.7054 52.4035C12.5728 52.3968 10.0208 49.8414 10.0208 46.7122C10.0208 43.5678 12.6617 40.952 15.7893 41.0007C18.9236 41.0493 21.4437 43.6232 21.4219 46.7524V46.7541ZM15.6869 49.5511C17.2608 49.5662 18.5326 48.3481 18.5679 46.7927C18.6031 45.2004 17.343 43.8816 15.7658 43.8581C14.1953 43.8346 12.8715 45.1433 12.8731 46.7155C12.8748 48.2642 14.1366 49.5343 15.6869 49.5511Z" fill="#145388"/>
<path id="Vector_4" d="M47.1883 5.70483C47.1883 2.5672 49.7252 0.0134741 52.8578 5.11056e-05C56.0022 -0.0133719 58.6297 2.61922 58.5945 5.74678C58.5592 8.87434 55.9837 11.413 52.8578 11.4029C49.7168 11.3928 47.1883 8.85253 47.1883 5.70651V5.70483ZM52.8947 8.54716C54.44 8.54045 55.7219 7.27029 55.7387 5.73C55.7555 4.16454 54.4384 2.84573 52.8628 2.85244C51.2705 2.86083 50.0188 4.14944 50.0423 5.7602C50.0641 7.32231 51.3259 8.55387 52.893 8.54716H52.8947Z" fill="#145388"/>
<path id="Vector_5" d="M41.413 17.1161C39.0321 17.0993 37.1345 15.158 37.1714 12.7754C37.2066 10.4566 39.1697 8.53709 41.4802 8.56226C43.8443 8.58742 45.7537 10.5539 45.7168 12.9247C45.6816 15.2704 43.7688 17.1312 41.413 17.1144V17.1161ZM41.4231 14.2503C42.2134 14.262 42.8728 13.611 42.861 12.8308C42.8493 12.1026 42.1933 11.4432 41.4667 11.4297C40.7083 11.4163 40.017 12.1076 40.0288 12.871C40.0405 13.6177 40.6697 14.2402 41.4231 14.2503Z" fill="#145388"/>
<path id="Vector_6" d="M8.55428 53.8533C8.55764 56.2191 6.67842 58.11 4.31597 58.1201C1.9317 58.1302 -0.0347691 56.1704 0.000466264 53.818C0.0340238 51.4891 1.99714 49.5529 4.31093 49.568C6.65325 49.5831 8.5526 51.4992 8.55596 53.8533H8.55428ZM4.26731 52.4388C3.5022 52.4556 2.84279 53.1637 2.88306 53.9221C2.92333 54.6788 3.55421 55.2643 4.31597 55.2509C5.12302 55.2375 5.72035 54.6016 5.68679 53.7912C5.65659 53.0412 5.00725 52.4237 4.26731 52.4388Z" fill="#145388"/>
<path id="Vector_7" d="M11.4351 60.9774C10.6365 60.9656 10.0022 60.318 10.0257 59.5378C10.0492 58.7492 10.6851 58.182 11.5241 58.2022C12.269 58.219 12.8764 58.87 12.8479 59.6217C12.8194 60.3734 12.1784 60.9875 11.4351 60.9774Z" fill="#145388"/>
<path id="Vector_8" d="M48.6162 17.1934C49.3762 17.1851 49.9903 17.7924 49.9971 18.5592C50.0038 19.3126 49.3913 19.9502 48.6397 19.972C47.8208 19.9955 47.1916 19.3982 47.1833 18.5911C47.1765 17.7723 47.7588 17.2035 48.6162 17.1934Z" fill="#145388"/>
<path id="Vector_9" d="M38.4401 29.7752C38.5055 28.9933 39.2153 28.4078 40.0005 28.4866C40.7472 28.5604 41.316 29.24 41.2589 29.9866C41.2019 30.7249 40.5139 31.339 39.7891 31.2987C39.0189 31.2551 38.3763 30.5303 38.4401 29.7752Z" fill="#145388"/>
</g>
</svg>
