<svg width="25" height="26" viewBox="0 0 25 26" fill="none" xmlns="http://www.w3.org/2000/svg">
<g id="Icon">
<path id="Vector" d="M0 13.5414C0 13.0532 0 12.565 0 12.0768C0.0146696 11.9991 0.0371631 11.9213 0.042542 11.843C0.117846 10.7165 0.353538 9.62273 0.737883 8.5637C2.96767 2.41888 9.52305 -0.970508 15.8251 0.757202C22.0793 2.47219 26.0078 8.79262 24.7736 15.1532C24.291 17.641 23.1639 19.7928 21.3825 21.591C19.515 23.4762 17.2716 24.6639 14.6501 25.1154C14.1792 25.1966 13.7024 25.2445 13.2286 25.3076H11.7641C11.4345 25.268 11.1039 25.2347 10.7749 25.1883C8.31084 24.84 6.1324 23.8558 4.2674 22.2083C2.07135 20.2688 0.697297 17.8548 0.192172 14.9599C0.110022 14.4903 0.0630795 14.0144 0 13.5414ZM12.4946 1.77514C6.41406 1.77661 1.45767 6.73864 1.46452 12.8174C1.47137 18.8923 6.4121 23.8348 12.4863 23.8436C18.5635 23.8524 23.5252 18.8962 23.5286 12.8135C23.5321 6.73326 18.5742 1.77368 12.4946 1.77514Z" fill="white"/>
<path id="Vector_2" d="M14.3199 15.4054C14.3199 15.8858 14.3199 16.3013 14.3199 16.7168C14.3194 17.6803 13.7908 18.2282 12.8717 18.2769C11.0479 18.3737 9.53729 17.629 8.20824 16.3981C6.84876 15.1395 5.85383 13.592 5.0938 11.8802C4.72775 11.0555 4.41705 10.2014 4.11932 9.34576C3.73781 8.24782 4.29836 7.37647 5.41247 7.32571C6.07127 7.29588 6.73256 7.31053 7.39285 7.32152C7.71003 7.32676 7.90003 7.52196 8.01972 7.82915C8.35735 8.69369 8.68799 9.56189 9.06502 10.4076C9.29642 10.9267 9.60761 11.4072 9.8829 11.9048C9.90434 11.897 9.92579 11.8891 9.94773 11.8818C9.95322 11.8284 9.96369 11.7751 9.96369 11.7217C9.96668 11.0597 9.96868 10.3971 9.96918 9.73512C9.96918 9.45147 9.89836 9.18562 9.71533 8.97681C9.33681 8.54507 9.45999 7.74594 10.0789 7.48062C10.3138 7.37961 10.5831 7.33147 10.8384 7.32466C11.585 7.30478 12.3341 7.34507 13.0796 7.31001C13.892 7.27181 14.3134 7.95266 14.3219 8.58746C14.3334 9.43996 14.3264 10.2925 14.3274 11.145C14.3274 11.225 14.3274 11.3056 14.3723 11.4061C14.4955 11.2522 14.6246 11.1031 14.7413 10.944C15.3098 10.1674 15.7547 9.3175 16.1118 8.41319C16.3826 7.72763 16.8873 7.35711 17.5879 7.32571C18.2034 7.29797 18.8213 7.30687 19.4377 7.321C20.0925 7.33618 20.5323 8.00447 20.3498 8.75335C20.26 9.1223 20.1089 9.49229 19.9119 9.811C19.3474 10.7232 18.7455 11.6097 18.157 12.5051C17.938 12.8379 17.9425 12.9965 18.1949 13.2922C18.8916 14.1086 19.6002 14.9145 20.282 15.745C20.5204 16.0349 20.7408 16.3615 20.8879 16.709C21.2021 17.4495 20.833 18.1649 20.0655 18.2277C19.111 18.3051 18.132 18.4339 17.2139 18.0016C16.9087 17.8577 16.6145 17.6546 16.3651 17.4202C15.7387 16.8309 15.1408 16.2087 14.5314 15.6001C14.4795 15.5483 14.4236 15.5006 14.3194 15.4054H14.3199ZM11.1197 8.69474C11.1741 9.02287 11.2643 9.32744 11.2683 9.63254C11.2838 10.8503 11.2768 12.0681 11.2683 13.2859C11.2648 13.8035 10.8614 14.1185 10.3921 13.9599C10.1617 13.882 9.93576 13.7606 9.73528 13.6166C9.24854 13.2676 8.89396 12.783 8.57379 12.2717C7.914 11.2172 7.42875 10.0721 7.00385 8.89727C6.9465 8.73922 6.87519 8.6759 6.70812 8.6827C6.3316 8.69788 5.95357 8.68532 5.57655 8.68898C5.48778 8.69003 5.39901 8.71253 5.24441 8.73399C5.61296 9.65138 5.93163 10.5416 6.32212 11.3951C7.04674 12.9792 7.97235 14.4194 9.27846 15.5514C10.2923 16.4306 11.4239 16.989 12.7809 16.9068C12.9525 16.8963 13.0223 16.8608 13.0178 16.6635C13.0053 16.1082 13.0163 15.5524 13.0123 14.9967C13.0103 14.7497 13.1031 14.5592 13.2826 14.4032C13.8606 13.9003 14.7493 13.9327 15.3143 14.4911C15.9482 15.1176 16.5766 15.7492 17.2054 16.3809C17.4473 16.6237 17.7226 16.8273 18.0547 16.8524C18.52 16.8874 18.9893 16.8613 19.4776 16.8613C19.4222 16.7901 19.3673 16.7142 19.307 16.6436C18.6243 15.8445 17.942 15.0448 17.2563 14.2483C16.5511 13.4288 16.5067 12.5857 17.1092 11.6829C17.6872 10.8168 18.2532 9.94183 18.8218 9.06892C18.8926 8.96059 18.9439 8.83865 19.0217 8.69055C18.523 8.69055 18.0737 8.67485 17.6273 8.70207C17.5211 8.70835 17.382 8.83342 17.3271 8.94227C17.1177 9.35832 16.9516 9.79844 16.7411 10.214C16.2125 11.2564 15.5537 12.1963 14.6959 12.973C14.3688 13.2692 14.0067 13.3508 13.6068 13.1645C13.2128 12.9808 13.0078 12.682 13.0158 12.2021C13.0337 11.1141 13.0218 10.025 13.0213 8.93652C13.0213 8.85645 13.0148 8.7769 13.0113 8.69421H11.1197V8.69474Z" fill="white"/>
</g>
</svg>
