<svg width="52" height="72" viewBox="0 0 52 72" fill="none" xmlns="http://www.w3.org/2000/svg">
<path d="M8.7 72C6.23333 72 4.33333 71.3667 3 70.1C1.73333 68.7667 1.1 66.9 1.1 64.5C1.1 62.1 1.73333 60.2667 3 59C4.33333 57.7333 6.23333 57.1 8.7 57.1H17.7V16.2H26.1L11.6 25.1C9.86667 26.1667 8.23333 26.6 6.7 26.4C5.16667 26.1333 3.86667 25.4667 2.8 24.4C1.73333 23.3333 1.03333 22.0333 0.700001 20.5C0.366667 18.9667 0.5 17.4333 1.1 15.9C1.7 14.3667 2.9 13.0667 4.7 12L18.5 3.4C19.9667 2.46666 21.4667 1.76666 23 1.3C24.6 0.83333 26.2667 0.599995 28 0.599995C30.5333 0.599995 32.5 1.26666 33.9 2.6C35.3 3.86667 36 5.73333 36 8.2V57.1H44C46.4667 57.1 48.3333 57.7333 49.6 59C50.9333 60.2667 51.6 62.1 51.6 64.5C51.6 66.9 50.9333 68.7667 49.6 70.1C48.3333 71.3667 46.4667 72 44 72H8.7Z" fill="white" fill-opacity="0.3"/>
</svg>
