<svg width="181" height="28" viewBox="0 0 181 28" fill="none" xmlns="http://www.w3.org/2000/svg">
<g id="Logo">
<path id="Vector" d="M27.7676 6.94188L20.8257 13.8838L27.7676 20.8257L34.7095 13.8838L27.7676 6.94188Z" fill="#009AE6"/>
<path id="Vector_2" d="M0 6.94409V20.826L6.94329 13.8827L0 6.94409Z" fill="url(#paint0_linear_48_974)"/>
<path id="Vector_3" d="M6.94336 27.769H20.8253L13.882 20.8257L6.94336 27.769Z" fill="url(#paint1_linear_48_974)"/>
<path id="Vector_4" d="M20.8253 0.000732422H6.94336L13.882 6.94403L20.8253 0.000732422Z" fill="url(#paint2_linear_48_974)"/>
<path id="Vector_5" d="M13.8828 6.9409L6.94092 13.8828L13.8828 20.8247L20.8247 13.8828L13.8828 6.9409Z" fill="#006699"/>
<path id="Vector_6" d="M20.8257 -1.56618e-05L13.8838 6.94189L20.8257 13.8838L27.7676 6.94189L20.8257 -1.56618e-05Z" fill="#0080BF"/>
<path id="Vector_7" d="M20.8277 13.8838L13.8857 20.8257L20.8277 27.7676L27.7696 20.8257L20.8277 13.8838Z" fill="#0080BF"/>
<path id="Vector_8" d="M27.7684 15.5383C28.6828 15.5383 29.424 14.797 29.424 13.8827C29.424 12.9683 28.6828 12.2271 27.7684 12.2271C26.854 12.2271 26.1128 12.9683 26.1128 13.8827C26.1128 14.797 26.854 15.5383 27.7684 15.5383Z" fill="white"/>
<path id="Vector_9" d="M53.1002 7.07433C54.0349 7.1906 54.9046 7.44173 55.7092 7.83703C56.5137 8.23232 57.2159 8.73459 57.8112 9.33916C58.4065 9.94373 58.8762 10.6367 59.211 11.4087C59.5505 12.1807 59.7179 12.9992 59.7179 13.8642C59.7179 14.7292 59.5505 15.5523 59.211 16.3243C58.8715 17.0963 58.4065 17.7799 57.8159 18.3799C57.2252 18.9798 56.523 19.4774 55.7185 19.8727C54.9139 20.268 54.0396 20.5191 53.1002 20.6261V21.3004C53.1002 21.4585 53.0583 21.5748 52.97 21.6539C52.8863 21.7329 52.7653 21.7701 52.6165 21.7701H50.9284C50.6075 21.7701 50.4447 21.612 50.4447 21.3004V20.6075C49.5192 20.4912 48.6589 20.2401 47.8636 19.8494C47.0684 19.4588 46.3755 18.9612 45.7895 18.3613C45.1989 17.7613 44.7385 17.0777 44.4036 16.3057C44.0688 15.5337 43.9014 14.7152 43.9014 13.8456C43.9014 12.9759 44.0688 12.176 44.4036 11.4087C44.7385 10.6367 45.1989 9.95303 45.7895 9.35311C46.3755 8.75319 47.0684 8.25558 47.8636 7.85563C48.6589 7.45568 49.5192 7.19525 50.4447 7.07433V6.35815C50.4447 6.21398 50.4866 6.10237 50.5703 6.01401C50.654 5.9303 50.7703 5.88379 50.9284 5.88379H52.6165C52.7607 5.88379 52.8723 5.92564 52.9653 6.01401C53.0583 6.10237 53.1002 6.21398 53.1002 6.35815V7.07433ZM46.7243 13.8037C46.7243 14.3246 46.8173 14.8082 46.9986 15.2547C47.18 15.7011 47.4358 16.1011 47.7613 16.4545C48.0915 16.808 48.4822 17.1103 48.9379 17.3567C49.3937 17.6079 49.8959 17.7892 50.4447 17.9008V9.72981C49.8959 9.83677 49.3937 10.0135 48.9426 10.2553C48.4915 10.4971 48.0962 10.7948 47.766 11.1482C47.4358 11.5017 47.18 11.9016 46.994 12.3527C46.8126 12.8038 46.7196 13.2875 46.7196 13.8084L46.7243 13.8037ZM56.7044 13.8037C56.7044 13.2921 56.616 12.8131 56.4393 12.3713C56.2626 11.9295 56.0114 11.5342 55.6905 11.1854C55.3697 10.8366 54.9883 10.539 54.5419 10.2972C54.0954 10.0553 53.6071 9.87397 53.0723 9.75306V17.859C53.6071 17.7381 54.0954 17.5521 54.5419 17.3102C54.9883 17.0637 55.3697 16.7661 55.6905 16.4173C56.0114 16.0685 56.2626 15.6732 56.4393 15.2361C56.616 14.7989 56.7044 14.3199 56.7044 13.8084V13.8037Z" fill="#145388"/>
<path id="Vector_10" d="M63.0849 19.1098C62.778 19.1098 62.6245 18.9703 62.6245 18.6913V9.04602C62.6245 8.91115 62.671 8.80419 62.764 8.72978C62.857 8.65537 62.964 8.61816 63.0849 8.61816H64.987C65.2149 8.61816 65.359 8.73908 65.4149 8.98091V14.8964C66.1496 13.878 66.8798 12.8641 67.6006 11.8643C68.3215 10.8644 69.0516 9.85056 69.7864 8.83209C69.884 8.68792 70.0236 8.61816 70.1956 8.61816H72.6C72.7209 8.61816 72.8232 8.66002 72.9069 8.74838C72.9906 8.83209 73.0278 8.93905 73.0278 9.06927V18.6959C73.0278 18.975 72.8837 19.1145 72.6 19.1145H70.6514C70.3584 19.1145 70.2142 18.975 70.2142 18.6959V12.5665L65.945 18.482C65.8381 18.6262 65.7311 18.7657 65.6288 18.9052C65.5265 19.0447 65.4102 19.1145 65.28 19.1145H63.0756L63.0849 19.1098Z" fill="#145388"/>
<path id="Vector_11" d="M87.7005 9.04599C87.7005 8.91578 87.7377 8.81812 87.8121 8.73906C87.8865 8.66465 87.9935 8.62744 88.1377 8.62744H90.1048C90.2397 8.62744 90.3467 8.66465 90.4257 8.73441C90.5048 8.80416 90.542 8.91113 90.542 9.04599V18.7238C90.5327 18.8447 90.4862 18.9377 90.4025 19.0075C90.3188 19.0773 90.2165 19.1098 90.1048 19.1098H76.7438C76.4601 19.1098 76.3159 18.9656 76.3159 18.682V9.03204C76.3159 8.76231 76.4601 8.62744 76.7438 8.62744H78.711C79.0086 8.62744 79.1574 8.76231 79.1574 9.03204V16.5101H81.971C81.971 16.5101 81.985 16.5101 81.9943 16.5195V9.03204C81.9943 8.76231 82.1384 8.62744 82.4221 8.62744H84.3893C84.6823 8.62744 84.8264 8.76231 84.8264 9.03204V16.5101H87.6912V9.04599H87.7005Z" fill="#145388"/>
<path id="Vector_12" d="M101.927 7.07433C102.861 7.1906 103.731 7.44173 104.536 7.83703C105.34 8.23232 106.042 8.73459 106.638 9.33916C107.233 9.94373 107.698 10.6367 108.037 11.4087C108.377 12.1807 108.544 12.9992 108.544 13.8642C108.544 14.7292 108.372 15.5523 108.037 16.3243C107.698 17.0963 107.233 17.7799 106.642 18.3799C106.052 18.9798 105.349 19.4774 104.545 19.8727C103.74 20.268 102.866 20.5191 101.922 20.6261V21.3004C101.922 21.4585 101.88 21.5748 101.792 21.6539C101.708 21.7329 101.587 21.7701 101.438 21.7701H99.7501C99.4293 21.7701 99.2665 21.612 99.2665 21.3004V20.6075C98.341 20.4912 97.4807 20.2401 96.6854 19.8494C95.8902 19.4588 95.1972 18.9612 94.6113 18.3613C94.0207 17.7613 93.5602 17.0777 93.2254 16.3057C92.8906 15.5337 92.7231 14.7152 92.7231 13.8456C92.7231 12.9759 92.8906 12.176 93.2254 11.4087C93.5602 10.6367 94.0207 9.95303 94.6113 9.35311C95.1972 8.75319 95.8902 8.25558 96.6854 7.85563C97.4807 7.45568 98.341 7.19525 99.2665 7.07433V6.35815C99.2665 6.21398 99.3083 6.10237 99.3874 6.01401C99.4665 5.92564 99.5874 5.88379 99.7455 5.88379H101.434C101.578 5.88379 101.689 5.92564 101.782 6.01401C101.871 6.09772 101.917 6.21398 101.917 6.35815V7.07433H101.927ZM95.5507 13.8037C95.5507 14.3246 95.6437 14.8082 95.8251 15.2547C96.0064 15.7011 96.2622 16.1011 96.5878 16.4545C96.918 16.808 97.3086 17.1103 97.7644 17.3567C98.2201 17.6079 98.7224 17.7892 99.2711 17.9008V9.72981C98.7224 9.83677 98.2201 10.0135 97.769 10.2553C97.3179 10.4971 96.9226 10.7948 96.5924 11.1482C96.2622 11.5017 96.0064 11.9016 95.8204 12.3527C95.639 12.8038 95.546 13.2875 95.546 13.8084L95.5507 13.8037ZM105.531 13.8037C105.531 13.2921 105.442 12.8131 105.266 12.3713C105.089 11.9295 104.838 11.5342 104.517 11.1854C104.196 10.8366 103.815 10.539 103.368 10.2972C102.922 10.0553 102.434 9.87397 101.899 9.75306V17.859C102.434 17.7381 102.926 17.5521 103.368 17.3102C103.81 17.0684 104.196 16.7661 104.517 16.4173C104.838 16.0685 105.089 15.6732 105.266 15.2361C105.442 14.7989 105.531 14.3199 105.531 13.8084V13.8037Z" fill="#145388"/>
<path id="Vector_13" d="M111.911 19.1098C111.604 19.1098 111.451 18.9703 111.451 18.6913V9.04602C111.451 8.91115 111.497 8.80419 111.59 8.72978C111.683 8.65537 111.79 8.61816 111.911 8.61816H113.813C114.041 8.61816 114.185 8.73908 114.241 8.98091V14.8964C114.976 13.878 115.706 12.8641 116.427 11.8643C117.152 10.8644 117.878 9.85056 118.613 8.83209C118.71 8.68792 118.85 8.61816 119.017 8.61816H121.421C121.542 8.61816 121.645 8.66002 121.728 8.74838C121.812 8.83674 121.849 8.93905 121.849 9.06927V18.6959C121.849 18.975 121.705 19.1145 121.421 19.1145H119.473C119.18 19.1145 119.036 18.975 119.036 18.6959V12.5665L114.767 18.482C114.66 18.6262 114.553 18.7657 114.45 18.9052C114.348 19.0447 114.232 19.1145 114.102 19.1145H111.897L111.911 19.1098Z" fill="#145388"/>
<path id="Vector_14" d="M136.527 9.04599C136.527 8.91578 136.564 8.81812 136.638 8.73906C136.713 8.66465 136.82 8.62744 136.964 8.62744H138.931C139.066 8.62744 139.173 8.66465 139.252 8.73441C139.331 8.80416 139.368 8.91113 139.368 9.04599V18.7238C139.359 18.8447 139.312 18.9377 139.229 19.0075C139.145 19.0773 139.043 19.1098 138.931 19.1098H125.57C125.286 19.1098 125.142 18.9656 125.142 18.682V9.03204C125.142 8.76231 125.286 8.62744 125.57 8.62744H127.537C127.835 8.62744 127.988 8.76231 127.988 9.03204V16.5101H130.802C130.802 16.5101 130.816 16.5101 130.825 16.5195V9.03204C130.825 8.76231 130.969 8.62744 131.253 8.62744H133.22C133.513 8.62744 133.657 8.76231 133.657 9.03204V16.5101H136.522V9.04599H136.527Z" fill="#145388"/>
<path id="Vector_15" d="M142.279 13.8268C142.279 13.6919 142.303 13.5617 142.354 13.4408C142.405 13.3199 142.475 13.2129 142.563 13.1199C142.651 13.0269 142.758 12.9571 142.879 12.906C143 12.8548 143.13 12.8315 143.265 12.8315C143.549 12.8315 143.786 12.9292 143.977 13.1199C144.167 13.3106 144.26 13.5477 144.26 13.8268C144.26 13.9616 144.237 14.0918 144.186 14.2128C144.135 14.3337 144.065 14.4406 143.977 14.529C143.888 14.6174 143.781 14.6871 143.661 14.7383C143.54 14.7894 143.409 14.8127 143.265 14.8127C143.121 14.8127 143 14.7894 142.879 14.7383C142.758 14.6871 142.651 14.6174 142.563 14.529C142.475 14.4406 142.405 14.3337 142.354 14.2128C142.303 14.0918 142.279 13.9616 142.279 13.8268Z" fill="#145388"/>
<path id="Vector_16" d="M156.166 8.62744C156.264 8.62744 156.347 8.65534 156.417 8.71115C156.482 8.76696 156.52 8.85067 156.52 8.95763V18.7657C156.52 18.9889 156.403 19.0959 156.175 19.0959H155.617C155.389 19.0959 155.273 18.9842 155.273 18.7657V9.84589H148.962V18.7982C148.962 19.0215 148.846 19.1284 148.618 19.1284H148.06C147.837 19.1284 147.73 19.0168 147.73 18.7982V8.95763C147.73 8.7344 147.842 8.62744 148.06 8.62744H156.157H156.166Z" fill="#145388"/>
<path id="Vector_17" d="M160.072 14.7011C160.072 14.5662 160.1 14.4825 160.156 14.4546C160.212 14.4267 160.3 14.4128 160.412 14.4128H163.374C162.811 13.5152 162.244 12.6223 161.677 11.734C161.109 10.8458 160.547 9.95288 159.984 9.05532C159.919 8.96231 159.886 8.8786 159.877 8.80884C159.877 8.74373 159.914 8.69722 159.989 8.66467C160.063 8.63212 160.128 8.61816 160.184 8.61816H164.193C164.676 8.61816 165.127 8.71117 165.546 8.90185C165.965 9.09252 166.327 9.34365 166.63 9.66454C166.932 9.98543 167.178 10.3575 167.35 10.7807C167.527 11.2039 167.611 11.655 167.611 12.134C167.611 12.613 167.527 13.0409 167.355 13.4594C167.183 13.878 166.946 14.25 166.644 14.5709C166.341 14.8918 165.983 15.1476 165.574 15.3336C165.165 15.5196 164.718 15.6173 164.244 15.6173H161.3V18.7517C161.3 18.8727 161.267 18.961 161.202 19.0168C161.137 19.0726 161.058 19.1005 160.965 19.1005H160.421C160.323 19.1005 160.235 19.0773 160.165 19.0308C160.096 18.9843 160.058 18.8773 160.058 18.7145V14.6918L160.072 14.7011ZM161.816 9.78081L164.704 14.3477C164.946 14.2919 165.179 14.1942 165.393 14.0547C165.611 13.9152 165.797 13.7477 165.955 13.5524C166.113 13.3571 166.239 13.1385 166.327 12.8967C166.416 12.6549 166.467 12.4037 166.467 12.1479C166.467 11.8364 166.406 11.5341 166.29 11.2504C166.174 10.9667 166.016 10.7156 165.816 10.497C165.616 10.2784 165.379 10.1063 165.104 9.97613C164.83 9.84591 164.537 9.78546 164.235 9.78546H161.816V9.78081Z" fill="#145388"/>
<path id="Vector_18" d="M170.053 13.8873C170.053 13.1339 170.197 12.4224 170.481 11.7527C170.764 11.0877 171.155 10.5064 171.648 10.0088C172.141 9.51114 172.718 9.1205 173.383 8.83216C174.048 8.54383 174.754 8.39966 175.512 8.39966C176.271 8.39966 176.977 8.54383 177.647 8.83216C178.312 9.1205 178.893 9.51114 179.391 10.0088C179.884 10.5064 180.279 11.0877 180.568 11.7527C180.856 12.4177 181 13.1293 181 13.8873C181 14.6454 180.856 15.3523 180.568 16.0173C180.279 16.6823 179.889 17.259 179.391 17.7566C178.893 18.2542 178.312 18.6449 177.647 18.9285C176.982 19.2122 176.271 19.3564 175.512 19.3564C174.754 19.3564 174.048 19.2122 173.383 18.9285C172.718 18.6449 172.141 18.2542 171.648 17.7566C171.155 17.259 170.769 16.6823 170.481 16.0173C170.197 15.3523 170.053 14.6454 170.053 13.8873ZM171.229 13.8873C171.229 14.4779 171.346 15.036 171.573 15.5569C171.801 16.0777 172.108 16.5335 172.499 16.9195C172.89 17.3101 173.341 17.6171 173.862 17.845C174.382 18.0728 174.94 18.1891 175.531 18.1891C176.122 18.1891 176.67 18.0728 177.196 17.845C177.722 17.6171 178.177 17.3101 178.573 16.9195C178.963 16.5288 179.275 16.0777 179.503 15.5569C179.731 15.036 179.847 14.4826 179.847 13.8873C179.847 13.2921 179.731 12.7386 179.503 12.2131C179.275 11.6876 178.963 11.2319 178.573 10.8366C178.182 10.4459 177.722 10.1343 177.196 9.90644C176.67 9.67856 176.117 9.5623 175.531 9.5623C174.945 9.5623 174.382 9.67856 173.862 9.90644C173.341 10.1343 172.885 10.4459 172.499 10.8366C172.113 11.2272 171.801 11.6876 171.573 12.2131C171.346 12.7386 171.229 13.2967 171.229 13.8873ZM175.55 12.9154C175.819 12.9154 176.047 13.0084 176.233 13.1944C176.419 13.3804 176.512 13.6036 176.512 13.8687C176.512 14.1338 176.419 14.3663 176.233 14.5477C176.047 14.7291 175.819 14.8221 175.55 14.8221C175.28 14.8221 175.061 14.7291 174.875 14.5431C174.689 14.357 174.596 14.1338 174.596 13.8687C174.596 13.6036 174.689 13.3804 174.875 13.1944C175.061 13.0084 175.285 12.9154 175.55 12.9154Z" fill="#145388"/>
</g>
<defs>
<linearGradient id="paint0_linear_48_974" x1="-3.46932" y1="10.4134" x2="3.46932" y2="17.3567" gradientUnits="userSpaceOnUse">
<stop offset="0.55" stop-color="#005782"/>
<stop offset="0.69" stop-color="#00557F"/>
<stop offset="0.79" stop-color="#004F75"/>
<stop offset="0.88" stop-color="#004565"/>
<stop offset="0.97" stop-color="#00374E"/>
<stop offset="1" stop-color="#003144"/>
</linearGradient>
<linearGradient id="paint1_linear_48_974" x1="9.53372" y1="30.857" x2="17.6815" y2="24.0206" gradientUnits="userSpaceOnUse">
<stop offset="0.55" stop-color="#005782"/>
<stop offset="0.69" stop-color="#00557F"/>
<stop offset="0.79" stop-color="#004F75"/>
<stop offset="0.88" stop-color="#004565"/>
<stop offset="0.97" stop-color="#00374E"/>
<stop offset="1" stop-color="#003144"/>
</linearGradient>
<linearGradient id="paint2_linear_48_974" x1="9.53372" y1="-3.09189" x2="17.6815" y2="3.74444" gradientUnits="userSpaceOnUse">
<stop offset="0.55" stop-color="#005782"/>
<stop offset="0.69" stop-color="#00557F"/>
<stop offset="0.79" stop-color="#004F75"/>
<stop offset="0.88" stop-color="#004565"/>
<stop offset="0.97" stop-color="#00374E"/>
<stop offset="1" stop-color="#003144"/>
</linearGradient>
</defs>
</svg>
