<svg width="80" height="81" viewBox="0 0 80 81" fill="none" xmlns="http://www.w3.org/2000/svg">
<g id="Icon">
<g id="Icon_2">
<path id="Vector" d="M0 64.2195C0 45.053 0 25.8866 0 6.71823C0.0489239 6.60277 0.117417 6.49318 0.142858 6.3738C0.579259 4.36401 1.53817 2.63993 3.27594 1.52838C4.32096 0.859103 5.56362 0.499024 6.71823 0C28.9062 0 51.0942 0 73.2821 0C74.0355 0.262232 74.8301 0.444229 75.5365 0.802352C78.5385 2.32682 79.9964 4.82977 79.9984 8.1742C80.0062 26.4013 80.0023 44.6303 80.0023 62.8574C80.0023 63.014 80.0062 63.1705 80.0023 63.3271C79.9123 66.3428 77.8673 68.5228 74.8633 68.7811C74.1999 68.8379 73.5346 68.8437 72.8555 68.8751V76.877C74.5267 76.877 76.1608 76.877 77.7929 76.877C79.2156 76.877 79.9749 77.4113 79.9906 78.4191C80.0082 79.4504 79.2293 80.0023 77.7577 80.0023C52.5775 80.0023 27.3974 79.9984 2.21723 80.016C1.24658 80.016 0.491196 79.7812 0.00391391 78.9084V77.971C0.491196 77.0982 1.24462 76.832 2.21723 76.8633C3.84933 76.9142 5.48339 76.877 7.13897 76.877V68.83C6.64778 68.83 6.20551 68.83 5.76519 68.83C4.04503 68.8261 2.48142 68.3408 1.41684 66.9455C0.804309 66.1431 0.461841 65.1353 0 64.2195ZM3.12526 14.411V15.2388C3.12526 31.098 3.12526 46.9571 3.12526 62.8163C3.12526 63.0766 3.11547 63.3388 3.14287 63.5971C3.25637 64.6304 4.01176 65.5013 5.00981 65.6226C5.6967 65.7048 6.4012 65.6382 7.18594 65.6382C7.18594 64.3584 7.18594 63.0883 7.18594 61.8183C7.1879 60.1901 7.69866 59.6871 9.35033 59.6852C12.319 59.6852 15.2877 59.6832 18.2564 59.6852C19.7789 59.6852 20.3093 60.2273 20.3093 61.7733C20.3112 66.513 20.3093 71.2528 20.3093 75.9925V76.8125H24.685V75.8203C24.685 65.4034 24.685 54.9865 24.685 44.5697C24.685 42.9356 25.2036 42.4053 26.8201 42.4014C29.7359 42.3955 32.6538 42.3974 35.5696 42.4014C37.3172 42.4014 37.8084 42.8926 37.8084 44.6225C37.8084 55.0648 37.8084 65.5071 37.8084 75.9514V76.8281H42.1841V75.9416C42.1841 69.8477 42.1841 63.7537 42.1841 57.6597C42.1841 56.1705 42.7282 55.6265 44.2096 55.6245C47.1783 55.6206 50.147 55.6245 53.1157 55.6245C54.8143 55.6245 55.3075 56.1157 55.3075 57.8085C55.3075 63.8496 55.3075 69.8927 55.3075 75.9338V76.8359H59.6832V75.9612C59.6832 70.8829 59.6832 65.8046 59.6832 60.7263C59.6832 60.466 59.6715 60.2038 59.7028 59.9455C59.8085 59.0864 60.4699 58.4758 61.2625 58.4875C62.0629 58.4993 62.6969 59.1079 62.7928 59.9787C62.8202 60.237 62.8085 60.4993 62.8085 60.7596C62.8085 65.8379 62.8085 70.9162 62.8085 75.9945V76.8164H69.6363V43.2409H62.8085V44.0374C62.8085 45.6519 62.8085 47.2663 62.8085 48.8808C62.8085 49.0628 62.8163 49.2468 62.8046 49.4268C62.7478 50.3936 62.1216 51.0648 61.2684 51.0805C60.3897 51.0961 59.7008 50.4014 59.6911 49.3955C59.6676 47.0002 59.6813 44.6049 59.6832 42.2076C59.6832 40.6127 60.1979 40.0824 61.7713 40.0784C64.74 40.0706 67.7087 40.0726 70.6774 40.0784C72.2997 40.0824 72.8066 40.6029 72.8066 42.2448C72.8066 49.7439 72.8066 57.2449 72.8066 64.7439V65.7009C73.1764 65.7009 73.4348 65.7009 73.6931 65.7009C76.1197 65.7087 76.8692 64.967 76.8692 62.5482C76.8692 46.8182 76.8692 31.0902 76.8692 15.3601V14.4091H3.12526V14.411ZM3.14874 11.1977H76.8751C76.8751 10.2642 76.8751 9.3836 76.8751 8.50297C76.8751 4.97458 75.0179 3.12526 71.4758 3.12526C50.4934 3.12526 29.5109 3.12526 8.52841 3.12526C8.18986 3.12526 7.85131 3.11939 7.51471 3.14678C5.13309 3.34444 3.33074 5.10178 3.16244 7.4834C3.07829 8.69671 3.14678 9.92176 3.14678 11.1957L3.14874 11.1977ZM27.8396 76.8125H34.6479V45.5853H27.8396V76.8125ZM52.1587 58.7889H45.3583V76.8222H52.1587V58.7889ZM10.368 62.8124V76.8125H17.1488V62.8418C16.9883 62.83 16.8631 62.8144 16.7398 62.8144C14.6341 62.8144 12.5304 62.8144 10.368 62.8144V62.8124Z" fill="#145388"/>
<path id="Vector_2" d="M35.3134 29.6087C36.6539 30.9473 37.9983 32.2878 39.3408 33.6283C41.4406 35.7262 43.5482 37.8162 45.6285 39.9317C45.9905 40.2996 46.2801 40.3837 46.7752 40.1978C48.1177 39.6949 49.4661 39.7516 50.8105 40.28C51.0492 40.3739 51.4935 40.327 51.6618 40.1626C54.9416 36.9258 58.196 33.6635 61.4544 30.4052C61.5248 30.3347 61.5777 30.2447 61.6579 30.1351C60.6481 28.5559 60.3467 26.8807 60.9416 25.0725C61.7851 22.505 64.4505 20.8885 67.1471 21.3308C69.838 21.7731 71.8517 24.1195 71.8693 26.8396C71.8869 29.5461 69.8536 32.006 67.1941 32.3602C66.3918 32.4678 65.5522 32.2663 64.7284 32.2623C64.4113 32.2623 63.9925 32.3211 63.789 32.5226C60.4915 35.779 57.2254 39.0667 53.9397 42.3328C53.6324 42.6381 53.5933 42.869 53.7596 43.2722C54.787 45.7575 54.0316 48.417 51.8829 50.0178C49.9259 51.4777 47.0414 51.4072 45.1275 49.8554C43.0453 48.1665 42.4054 45.4679 43.5639 43.0432C43.7811 42.5892 43.6793 42.3602 43.3662 42.0491C40.0805 38.781 36.8006 35.507 33.5364 32.2193C33.2057 31.8847 32.9533 31.8396 32.5247 32.0314C31.2077 32.6263 29.8456 32.6205 28.5012 32.1234C28.0746 31.9668 27.8006 32.0099 27.4738 32.3406C24.6499 35.188 21.8143 38.0217 18.9649 40.8416C18.6518 41.1528 18.6323 41.3778 18.7986 41.779C20.0648 44.824 18.5207 48.2585 15.4679 49.2605C12.2702 50.3074 8.96099 48.5266 8.19582 45.2624C7.71637 43.2174 8.24866 41.37 9.79074 39.9199C11.4248 38.3837 13.3681 38.0041 15.507 38.6772C15.779 38.7634 16.0373 38.8886 16.3348 39.008C16.4581 38.9023 16.6049 38.7947 16.7301 38.6694C19.5305 35.8729 22.325 33.0706 25.1333 30.2819C25.4483 29.9688 25.5403 29.7398 25.327 29.2897C24.1724 26.867 24.8182 24.1508 26.8926 22.4776C28.8319 20.912 31.6852 20.8416 33.6441 22.3093C35.8163 23.9355 36.5521 26.64 35.4993 29.1293C35.4386 29.2721 35.3858 29.4169 35.3114 29.6068L35.3134 29.6087ZM66.3135 24.3758C64.9495 24.3465 63.8008 25.4267 63.7577 26.7829C63.7127 28.1664 64.8438 29.3484 66.2274 29.3621C67.5777 29.3758 68.7225 28.2604 68.746 26.9081C68.7695 25.55 67.6697 24.4052 66.3135 24.3758ZM51.0942 45.5325C51.1236 44.1665 50.0453 43.0217 48.6891 42.9767C47.3056 42.9297 46.1236 44.0608 46.1079 45.4464C46.0923 46.7947 47.2116 47.9434 48.5639 47.965C49.922 47.9865 51.0649 46.8886 51.0962 45.5325H51.0942ZM32.8476 26.8416C32.8358 25.4658 31.736 24.3719 30.3662 24.3758C29.0061 24.3778 27.8887 25.4913 27.8769 26.8514C27.8652 28.2291 29.0374 29.3895 30.4151 29.3641C31.7732 29.3387 32.8593 28.2134 32.8476 26.8416ZM13.6733 46.4542C15.055 46.4424 16.1293 45.3544 16.1254 43.9689C16.1215 42.5912 15.0315 41.4933 13.6596 41.4855C12.2741 41.4777 11.1176 42.6479 11.1508 44.0217C11.1821 45.3876 12.3015 46.4659 13.6733 46.4561V46.4542Z" fill="#145388"/>
<path id="Vector_3" d="M12.4461 22.8142C11.3267 22.8142 10.2074 22.82 9.08799 22.8142C7.94317 22.8063 7.2191 22.2075 7.20148 21.2779C7.18387 20.3464 7.91382 19.7006 9.04102 19.6948C11.3581 19.683 13.6751 19.6811 15.9921 19.6948C17.0763 19.7006 17.7847 20.3249 17.8004 21.231C17.818 22.1625 17.0861 22.8024 15.9608 22.8122C14.7886 22.8239 13.6183 22.8142 12.4461 22.8142Z" fill="#145388"/>
<path id="Vector_4" d="M12.5011 30.3152C11.3289 30.3152 10.1586 30.327 8.9864 30.3113C7.91399 30.2976 7.20166 29.6597 7.20166 28.7536C7.20166 27.8475 7.91008 27.2017 8.9864 27.1939C11.3289 27.1782 13.6733 27.1782 16.0158 27.1939C17.0921 27.2017 17.8005 27.8456 17.8005 28.7516C17.8005 29.6577 17.0882 30.2957 16.0158 30.3094C14.8436 30.325 13.6733 30.3133 12.5011 30.3133V30.3152Z" fill="#145388"/>
<path id="Vector_5" d="M22.0685 22.8044C21.2524 22.8024 20.5186 22.0646 20.5186 21.2505C20.5186 20.4345 21.2563 19.7006 22.0724 19.7026C22.908 19.7026 23.6027 20.4091 23.6027 21.2564C23.6027 22.0999 22.9002 22.8063 22.0685 22.8044Z" fill="#145388"/>
<path id="Vector_6" d="M61.2704 56.6382C60.4367 56.65 59.7126 55.9494 59.7009 55.1196C59.6872 54.2938 60.3917 53.5795 61.2312 53.5697C62.0727 53.5599 62.7909 54.2488 62.8027 55.0805C62.8144 55.9024 62.1021 56.6265 61.2704 56.6382Z" fill="#145388"/>
<path id="Vector_7" d="M52.3409 5.62427C57.9906 5.62427 63.6384 5.62427 69.2881 5.62427C69.5738 5.62427 69.8634 5.61057 70.1452 5.64971C70.9632 5.76517 71.5445 6.41097 71.5503 7.17614C71.5562 7.93935 70.975 8.59493 70.1628 8.71822C69.9084 8.75736 69.6443 8.74757 69.384 8.74757C58.0336 8.74757 46.6833 8.74757 35.333 8.74757C33.922 8.74757 33.1529 8.19962 33.1451 7.19375C33.1373 6.18592 33.9122 5.62427 35.3153 5.62231C40.9905 5.62231 46.6657 5.62231 52.3409 5.62231V5.62427Z" fill="#145388"/>
<path id="Vector_8" d="M11.55 7.18004C11.5559 7.98826 10.8181 8.73191 10.008 8.73778C9.19974 8.74365 8.4561 8.00588 8.45023 7.1957C8.44436 6.38747 9.18213 5.64383 9.99231 5.63796C10.8005 5.63209 11.5442 6.36986 11.55 7.18004Z" fill="#145388"/>
<path id="Vector_9" d="M16.2428 8.73785C15.4326 8.73198 14.6968 7.98833 14.7007 7.18011C14.7066 6.36993 15.4502 5.63412 16.2584 5.63803C17.0686 5.6439 17.8044 6.38755 17.8005 7.19577C17.7946 8.00595 17.051 8.74176 16.2428 8.73785Z" fill="#145388"/>
<path id="Vector_10" d="M22.4735 8.73778C21.6575 8.72017 20.9334 7.97066 20.951 7.16048C20.9686 6.34443 21.7181 5.62035 22.5283 5.63796C23.3444 5.65558 24.0684 6.40509 24.0508 7.21527C24.0332 8.03132 23.2837 8.75539 22.4735 8.73778Z" fill="#145388"/>
</g>
</g>
</svg>
