<svg width="58" height="58" viewBox="0 0 58 58" fill="none" xmlns="http://www.w3.org/2000/svg">
<rect width="58" height="58" fill="#F5F5F5"/>
<g id="04.1_Text_Fish-Fish" clip-path="url(#clip0_0_1)">
<rect width="1920" height="4114" transform="translate(-994 -2606)" fill="white"/>
<g id="Infographics">
<g id="3">
<g id="Icon">
<g id="Icon_2">
<path id="Vector" d="M51.397 14.9828C49.7684 15.7086 48.2684 16.3772 46.7685 17.0441C40.5648 19.8026 34.3594 22.5523 28.163 25.3269C27.43 25.6558 26.7953 25.638 26.0641 25.309C18.6484 21.9891 11.2201 18.696 3.79368 15.3957C3.51479 15.2724 3.23053 15.1598 2.85331 15.0042V15.798C2.85331 24.7173 2.85867 33.6365 2.84079 42.5558C2.84079 43.0689 2.96772 43.3299 3.45936 43.548C11.1164 46.9287 18.7646 50.3309 26.4092 53.7419C26.8704 53.9475 27.2405 53.994 27.7089 53.7384C28.5938 53.2539 29.4502 53.4988 29.8238 54.2586C30.2046 55.0345 29.8399 55.7425 28.9818 56.2949C27.7732 57.0708 26.6916 57.0297 25.3687 56.429C17.3201 52.7765 9.23391 49.2117 1.15133 45.6361C0.353981 45.2839 0 44.7673 0 43.8913C0.0143023 33.6115 0.0143023 23.3317 0 13.052C0 12.201 0.353981 11.6915 1.11915 11.3518C9.46454 7.65643 17.8063 3.95035 26.141 0.228178C26.8293 -0.0793208 27.4318 -0.0739574 28.1165 0.231754C36.41 3.93604 44.7089 7.62782 53.0168 11.2999C53.8892 11.6861 54.2593 12.2439 54.2539 13.2003C54.2253 17.6823 54.2414 22.1643 54.2414 26.6463C54.2414 26.7804 54.2468 26.9144 54.2378 27.0467C54.1842 27.8995 53.5817 28.4752 52.7683 28.4537C51.9852 28.4341 51.4149 27.8691 51.4078 27.0199C51.3899 24.4115 51.3988 21.8014 51.3988 19.193C51.3988 17.8361 51.3988 16.4791 51.3988 14.981L51.397 14.9828ZM17.0859 18.1436C17.2789 18.2491 17.3665 18.3063 17.4595 18.3474C20.5506 19.7222 23.6381 21.1041 26.7417 22.4503C26.9973 22.5612 27.3978 22.5129 27.666 22.3931C34.6473 19.3056 41.6214 16.2003 48.5956 13.0967C48.7833 13.0126 48.9656 12.9125 49.2285 12.7802C49.0282 12.6783 48.9353 12.6265 48.8369 12.5818C45.7673 11.2159 42.6995 9.83931 39.6173 8.50384C39.3456 8.38584 38.9201 8.44126 38.6323 8.5682C32.0353 11.4787 25.4491 14.4107 18.8611 17.3391C18.2998 17.5894 17.742 17.845 17.0877 18.1418L17.0859 18.1436ZM35.6878 6.73572C32.9382 5.51287 30.3316 4.36511 27.7411 3.18517C27.2888 2.97958 26.9276 3.00282 26.4878 3.19948C20.2091 6.00451 13.9233 8.79346 7.63921 11.586C6.79537 11.9614 5.9569 12.3422 5.00222 12.7731C5.31687 12.9268 5.50638 13.0269 5.70125 13.1127C8.10046 14.1818 10.5068 15.2348 12.8935 16.329C13.3458 16.5364 13.6998 16.5238 14.1432 16.3236C19.5459 13.9065 24.9575 11.5073 30.3673 9.10274C32.0907 8.33578 33.8142 7.56882 35.6913 6.73393L35.6878 6.73572Z" fill="#145388"/>
<path id="Vector_2" d="M57.0806 42.7703C57.1056 50.5775 50.7197 57.0064 42.9106 57.0368C34.9478 57.0672 28.5636 50.6884 28.5493 42.6863C28.535 34.9291 35.014 28.4662 42.7944 28.4769C50.6982 28.4895 57.0556 34.8486 57.0806 42.7703ZM42.7676 54.1656C48.973 54.2318 54.1647 49.1598 54.2362 42.9634C54.3095 36.6024 49.2626 31.4018 42.9732 31.3553C36.5836 31.3088 31.4456 36.3539 31.3955 42.7238C31.3454 48.9828 36.4317 54.0995 42.7658 54.1656H42.7676Z" fill="#145388"/>
<path id="Vector_3" d="M41.3711 45.0516C43.2822 43.1386 45.104 41.3133 46.9293 39.4898C47.1653 39.2538 47.3941 39.0071 47.6569 38.8032C48.238 38.3527 48.9674 38.3956 49.4876 38.8819C50.0204 39.3807 50.0955 40.153 49.6557 40.7609C49.527 40.9396 49.3643 41.097 49.2069 41.2543C47.0509 43.4122 44.8948 45.57 42.7352 47.7261C41.7394 48.7201 41.0529 48.7237 40.0714 47.744C38.9844 46.6588 37.8903 45.5789 36.8194 44.4777C36.3385 43.9825 36.2723 43.2942 36.5834 42.756C36.8891 42.2251 37.5113 41.9229 38.1245 42.1053C38.4481 42.2018 38.7627 42.4199 39.0094 42.6577C39.7925 43.4139 40.5398 44.2059 41.3693 45.0533L41.3711 45.0516Z" fill="#145388"/>
</g>
</g>
</g>
</g>
</g>
<defs>
<clipPath id="clip0_0_1">
<rect width="1920" height="4114" fill="white" transform="translate(-994 -2606)"/>
</clipPath>
</defs>
</svg>
