<svg width="54" height="68" viewBox="0 0 54 68" fill="none" xmlns="http://www.w3.org/2000/svg">
<g id="Icon">
<g id="Icon_2">
<path id="Vector" d="M5.86871 68.0004C5.19865 67.7913 4.4954 67.6484 3.86269 67.3586C1.38368 66.2281 0 64.3543 0 61.5509C0.00622345 46.2999 0 31.0489 0.00414896 15.7979C0.00414896 11.9862 2.97273 8.96953 6.8043 8.89914C8.81862 8.86187 10.835 8.89293 12.9655 8.89293C12.9655 8.11651 12.9655 7.37735 12.9655 6.63613C12.9676 5.38971 13.4095 4.90315 14.6728 4.87209C16.0918 4.8369 17.5107 4.85139 18.9296 4.86174C19.2719 4.86381 19.4752 4.79342 19.6433 4.43937C21.0394 1.48689 23.3939 -0.0245441 26.6633 0.000301411C29.914 0.0251469 32.3806 1.36888 33.758 4.43523C33.8452 4.62985 34.1646 4.83068 34.3825 4.8369C35.7122 4.87416 37.044 4.84725 38.3738 4.86174C38.7472 4.86588 39.133 4.88452 39.4919 4.97976C40.2512 5.18059 40.5499 5.59054 40.5623 6.37111C40.5748 7.1848 40.5644 8.00056 40.5644 8.89086C41.3486 8.89086 42.0746 8.8805 42.8007 8.89293C44.4624 8.92398 46.1386 8.82874 47.7795 9.03372C51.0177 9.43539 53.5196 12.3402 53.5216 15.5991C53.5362 31.0054 53.5362 46.4117 53.5216 61.818C53.5196 64.7974 51.2853 67.2675 48.1612 67.8617C47.9911 67.8948 47.8293 67.9528 47.6612 68.0004H5.86871ZM12.9655 12.1311C10.9885 12.1311 9.1298 12.127 7.26899 12.1311C4.69455 12.1373 3.22789 13.6032 3.22789 16.1685C3.22789 31.198 3.22789 46.2254 3.22789 61.2549C3.22789 61.4329 3.22582 61.6089 3.22789 61.787C3.25486 62.7663 3.68843 63.5199 4.49748 64.0686C5.27956 64.5987 6.15914 64.7684 7.08643 64.7684C20.193 64.7684 33.2996 64.7684 46.4062 64.7643C46.7816 64.7643 47.1613 64.7353 47.5305 64.6753C49.298 64.3792 50.2979 63.199 50.2979 61.4226C50.2979 46.2834 50.2979 31.1442 50.2979 16.0029C50.2979 13.6964 48.8001 12.1684 46.4891 12.1373C45.1366 12.1187 43.784 12.1332 42.4315 12.1332C41.8361 12.1332 41.2428 12.1332 40.5623 12.1332C40.5623 13.3465 40.5623 14.4915 40.5623 15.6343C40.5623 17.1499 39.9317 17.7959 38.4402 17.7959C30.6339 17.798 22.8276 17.7959 15.0213 17.7959C13.5796 17.7959 12.9676 17.1768 12.9634 15.7317C12.9614 14.5618 12.9634 13.392 12.9634 12.1332L12.9655 12.1311ZM37.2743 8.08752C35.8885 8.08752 34.5609 8.08752 33.2353 8.08752C31.8599 8.08752 31.3807 7.72519 31.0094 6.40009C30.4098 4.27373 28.4619 2.86168 26.3397 3.01903C24.4146 3.16189 22.8048 4.55117 22.2405 6.55745C21.9293 7.66307 21.3775 8.08338 20.2262 8.08752C19.8051 8.08752 19.384 8.08752 18.9628 8.08752C18.0625 8.08752 17.1622 8.08752 16.2805 8.08752V14.5246H37.2743V8.08752Z" fill="#145388"/>
<path id="Vector_2" d="M34.4633 26.7029C37.4983 26.7029 40.5353 26.7009 43.5703 26.7029C44.5038 26.7029 45.1469 27.1419 45.3606 27.8893C45.6157 28.7879 45.0452 29.7217 44.1179 29.8914C43.8379 29.9432 43.5454 29.9453 43.257 29.9453C37.407 29.9473 31.557 29.9473 25.709 29.9453C25.4663 29.9453 25.2194 29.9453 24.9788 29.9163C24.1013 29.8045 23.5308 29.1564 23.5412 28.2993C23.5515 27.4586 24.1552 26.7878 25.0244 26.7174C25.597 26.6719 26.1757 26.7009 26.7525 26.7009C29.3227 26.7009 31.893 26.7009 34.4633 26.7009V26.7029Z" fill="#145388"/>
<path id="Vector_3" d="M34.5212 52.6065C37.469 52.6065 40.4148 52.6024 43.3626 52.6106C43.6904 52.6106 44.0327 52.6334 44.3438 52.7307C45.0263 52.9419 45.4392 53.5962 45.406 54.3167C45.3748 55.0331 44.8936 55.6294 44.1882 55.7867C43.931 55.8447 43.6613 55.8633 43.3979 55.8633C37.4379 55.8675 31.4758 55.8695 25.5158 55.8592C25.1694 55.8592 24.8001 55.8116 24.4786 55.6873C23.7733 55.412 23.4185 54.6562 23.5679 53.8881C23.7069 53.1738 24.3292 52.6438 25.1466 52.6168C26.0988 52.5858 27.0509 52.6065 28.0052 52.6065C30.1772 52.6065 32.3492 52.6065 34.5191 52.6065H34.5212Z" fill="#145388"/>
<path id="Vector_4" d="M34.4947 39.6723C37.5297 39.6723 40.5667 39.6682 43.6017 39.6765C44.6057 39.6785 45.2613 40.1837 45.394 41.0057C45.5476 41.9664 44.8775 42.8153 43.8921 42.8877C43.5395 42.9126 43.1826 42.8981 42.83 42.8981C37.0256 42.8981 31.2191 42.8981 25.4147 42.8981C24.282 42.8981 23.5829 42.3163 23.5456 41.3618C23.5062 40.3701 24.1742 39.6889 25.257 39.6785C27.429 39.662 29.5989 39.6723 31.7709 39.6723C32.6795 39.6723 33.5882 39.6723 34.4968 39.6723H34.4947Z" fill="#145388"/>
<path id="Vector_5" d="M13.1955 40.9084C14.7306 39.4467 16.3383 37.8979 17.9709 36.3762C18.2676 36.1008 18.641 35.8461 19.0248 35.7385C19.7322 35.5397 20.4582 35.9269 20.813 36.5708C21.176 37.2292 21.0764 37.9021 20.4603 38.4922C18.6389 40.2376 16.803 41.9664 14.9712 43.6994C14.6829 43.9727 14.4028 44.2605 14.0958 44.5131C13.3988 45.0845 12.5752 45.0742 11.9383 44.4447C10.8077 43.3246 9.68959 42.1879 8.59841 41.0285C7.94287 40.3307 7.97607 39.2997 8.60671 38.6951C9.25395 38.0739 10.1854 38.1381 10.9281 38.8338C11.6541 39.5129 12.3947 40.1775 13.1955 40.9084Z" fill="#145388"/>
<path id="Vector_6" d="M13.1168 28.0239C14.7743 26.4483 16.4235 24.8768 18.079 23.3116C18.7573 22.6697 19.4398 22.5538 20.1265 22.9368C21.1077 23.4834 21.3401 24.6718 20.5352 25.4524C18.4067 27.5146 16.2493 29.5478 14.0752 31.5644C13.4135 32.1793 12.5754 32.1214 11.9302 31.4795C10.8328 30.3884 9.74786 29.2828 8.6795 28.1606C7.95551 27.4007 7.94721 26.3634 8.61519 25.7298C9.25413 25.1232 10.2499 25.2081 10.9822 25.941C11.6543 26.6139 12.314 27.2993 12.9799 27.9763C12.9923 27.9908 13.0193 27.9908 13.1147 28.0218L13.1168 28.0239Z" fill="#145388"/>
<path id="Vector_7" d="M13.173 53.8798C14.7787 52.3539 16.4424 50.7659 18.1124 49.1882C18.8281 48.5111 19.6288 48.447 20.3321 48.9811C21.1473 49.6002 21.2863 50.6354 20.5519 51.3456C18.4235 53.4078 16.2661 55.443 14.0962 57.4597C13.4116 58.0953 12.5714 58.029 11.9014 57.3582C10.8226 56.2795 9.75219 55.1904 8.69628 54.0869C7.96814 53.325 7.94324 52.2959 8.60085 51.652C9.24602 51.0205 10.2418 51.1241 11.0197 51.8756C11.7043 52.534 12.4117 53.1697 13.173 53.8757V53.8798Z" fill="#145388"/>
</g>
</g>
</svg>
